STARTFONT 2.1
COMMENT
COMMENT Converted from TrueType font "LucidaSansRegular.ttf" by "ttf2bdf 2.6".
COMMENT
FONT -FreeType-Lucida Sans-Medium-R-Normal--17-120-100-100-P-93-ISO10646-1
SIZE 12 100 100
FONTBOUNDINGBOX 39 33 -11 -12
STARTPROPERTIES 22
FOUNDRY "FreeType"
FAMILY_NAME "Lucida Sans"
WEIGHT_NAME "Medium"
SLANT "R"
SETWIDTH_NAME "Normal"
ADD_STYLE_NAME ""
PIXEL_SIZE 17
POINT_SIZE 120
RESOLUTION_X 100
RESOLUTION_Y 100
SPACING "P"
AVERAGE_WIDTH 93
CHARSET_REGISTRY "ISO10646"
CHARSET_ENCODING "1"
FONT_ASCENT 16
FONT_DESCENT 3
COPYRIGHT "Copyright (c) 1999 by Bigelow & Holmes Inc. Pat. Des. 289,420."
_TTF_FONTFILE "LucidaSansRegular.ttf"
_TTF_PSNAME "LucidaSans"
_XFREE86_GLYPH_RANGES "32_126 160_383 402 506_511 536_539 592_680 688_734 736_745 768_837 884_885 890 894 900_906 908 910_929 931_974 976_982 986 988 990 992 994_1011 1025_1036 1038_1103 1105_1116 1118_1158 1168_1220 1223_1224 1227_1228 1232_1259 1262_1269 1272_1273 1425_1441 1443_1465 1467_1476 1488_1514 1520_1524 1548 1563 1567 1569_1594 1600_1618 1632_1645 1648_1719 1722_1726 1728_1742 1744_1773 1776_1785 2305_2307 2309_2361 2364_2381 2384_2388 2392_2416 3585_3642 3647_3675 7808_7813 7922_7923 8192_8238"
_XFREE86_GLYPH_RANGES "8240_8262 8298_8304 8308_8334 8337 8352_8364 8448_8504 8531_8578 8592_8682 8704_8945 8962 8976 8992_8993 9312_9321 9472 9474 9484 9488 9492 9496 9500 9508 9516 9524 9532 9552_9580 9600 9604 9608 9612 9616_9619 9632_9633 9642_9644 9650 9658 9660 9668 9670 9674_9676 9679 9687_9689 9702 9733 9742 9755 9758 9786_9788 9792 9794 9824 9827 9829_9830 9834_9835 9985_9988 9990_9993 9996_10023 10025_10059 10061 10063_10066 10070 10072_10078 10081_10087 10102_10132 10136_10159 10161_10174"
_XFREE86_GLYPH_RANGES "61440_61442 62977_62981 62986_62998 63488_63495 63498_63499 63502_63505 63508_63509 63519_63520 63539 64256_64260 64286_64287 64297_64310 64312_64316 64318 64320_64321 64323_64324 64326_64334 64606_64610 65136_65138 65140 65142_65276 65279"
ENDPROPERTIES
CHARS 2388
STARTCHAR 0020
ENCODING 32
SWIDTH 300 0
DWIDTH 5 0
BBX 1 1 0 0
BITMAP
00
ENDCHAR
STARTCHAR 0021
ENCODING 33
SWIDTH 300 0
DWIDTH 5 0
BBX 1 12 2 0
BITMAP
80
80
80
80
80
80
80
80
00
00
80
80
ENDCHAR
STARTCHAR 0022
ENCODING 34
SWIDTH 360 0
DWIDTH 6 0
BBX 4 4 1 8
BITMAP
90
90
90
90
ENDCHAR
STARTCHAR 0023
ENCODING 35
SWIDTH 660 0
DWIDTH 11 0
BBX 11 12 0 0
BITMAP
0480
0480
0900
0900
7FE0
0900
1200
FFC0
1200
1200
2400
2400
ENDCHAR
STARTCHAR 0024
ENCODING 36
SWIDTH 660 0
DWIDTH 11 0
BBX 7 14 2 -1
BITMAP
10
7C
92
90
90
50
30
18
14
12
12
94
7C
10
ENDCHAR
STARTCHAR 0025
ENCODING 37
SWIDTH 660 0
DWIDTH 11 0
BBX 11 12 0 0
BITMAP
7020
8840
8880
8900
8A00
7400
05C0
0A20
1220
2220
4220
81C0
ENDCHAR
STARTCHAR 0026
ENCODING 38
SWIDTH 720 0
DWIDTH 12 0
BBX 9 12 1 0
BITMAP
1C00
2200
2200
2200
1C00
3000
4880
8880
8500
8300
4300
3D80
ENDCHAR
STARTCHAR 0027
ENCODING 39
SWIDTH 240 0
DWIDTH 4 0
BBX 1 4 1 8
BITMAP
80
80
80
80
ENDCHAR
STARTCHAR 0028
ENCODING 40
SWIDTH 360 0
DWIDTH 6 0
BBX 4 14 1 -2
BITMAP
10
20
40
40
80
80
80
80
80
80
40
40
20
10
ENDCHAR
STARTCHAR 0029
ENCODING 41
SWIDTH 360 0
DWIDTH 6 0
BBX 4 14 1 -2
BITMAP
80
40
20
20
10
10
10
10
10
10
20
20
40
80
ENDCHAR
STARTCHAR 002A
ENCODING 42
SWIDTH 480 0
DWIDTH 8 0
BBX 5 5 1 7
BITMAP
20
A8
70
10
50
ENDCHAR
STARTCHAR 002B
ENCODING 43
SWIDTH 840 0
DWIDTH 14 0
BBX 9 9 2 0
BITMAP
0800
0800
0800
0800
FF80
0800
0800
0800
0800
ENDCHAR
STARTCHAR 002C
ENCODING 44
SWIDTH 300 0
DWIDTH 5 0
BBX 2 5 1 -3
BITMAP
C0
C0
40
40
80
ENDCHAR
STARTCHAR 002D
ENCODING 45
SWIDTH 600 0
DWIDTH 10 0
BBX 8 1 1 5
BITMAP
FF
ENDCHAR
STARTCHAR 002E
ENCODING 46
SWIDTH 300 0
DWIDTH 5 0
BBX 2 2 1 0
BITMAP
C0
C0
ENDCHAR
STARTCHAR 002F
ENCODING 47
SWIDTH 540 0
DWIDTH 9 0
BBX 5 14 2 -2
BITMAP
08
08
10
10
10
20
20
20
40
40
40
80
80
80
ENDCHAR
STARTCHAR 0030
ENCODING 48
SWIDTH 660 0
DWIDTH 11 0
BBX 9 12 1 0
BITMAP
1C00
6300
4100
8080
8080
8080
8080
8080
8080
4100
6300
1C00
ENDCHAR
STARTCHAR 0031
ENCODING 49
SWIDTH 660 0
DWIDTH 11 0
BBX 5 12 3 0
BITMAP
60
A0
20
20
20
20
20
20
20
20
20
F8
ENDCHAR
STARTCHAR 0032
ENCODING 50
SWIDTH 660 0
DWIDTH 11 0
BBX 8 12 1 0
BITMAP
7C
82
01
01
01
02
04
18
20
40
80
FF
ENDCHAR
STARTCHAR 0033
ENCODING 51
SWIDTH 660 0
DWIDTH 11 0
BBX 7 12 2 0
BITMAP
7C
82
02
02
04
78
04
02
02
02
84
78
ENDCHAR
STARTCHAR 0034
ENCODING 52
SWIDTH 660 0
DWIDTH 11 0
BBX 9 12 1 0
BITMAP
0200
0600
0A00
1200
1200
2200
4200
8200
FF80
0200
0200
0200
ENDCHAR
STARTCHAR 0035
ENCODING 53
SWIDTH 660 0
DWIDTH 11 0
BBX 7 12 2 0
BITMAP
FE
80
80
80
80
F0
0C
02
02
02
84
78
ENDCHAR
STARTCHAR 0036
ENCODING 54
SWIDTH 660 0
DWIDTH 11 0
BBX 8 12 1 0
BITMAP
1E
21
40
80
80
BC
C2
81
81
81
42
3C
ENDCHAR
STARTCHAR 0037
ENCODING 55
SWIDTH 660 0
DWIDTH 11 0
BBX 8 12 2 0
BITMAP
FF
01
02
04
04
08
10
10
20
20
40
40
ENDCHAR
STARTCHAR 0038
ENCODING 56
SWIDTH 660 0
DWIDTH 11 0
BBX 9 12 1 0
BITMAP
3E00
4100
4100
4100
2200
3E00
4100
8080
8080
8080
4100
3E00
ENDCHAR
STARTCHAR 0039
ENCODING 57
SWIDTH 660 0
DWIDTH 11 0
BBX 8 12 1 0
BITMAP
3C
42
81
81
81
43
3D
01
01
02
84
78
ENDCHAR
STARTCHAR 003A
ENCODING 58
SWIDTH 300 0
DWIDTH 5 0
BBX 1 9 2 0
BITMAP
80
80
00
00
00
00
00
80
80
ENDCHAR
STARTCHAR 003B
ENCODING 59
SWIDTH 300 0
DWIDTH 5 0
BBX 2 12 1 -3
BITMAP
40
40
00
00
00
00
00
40
40
40
40
80
ENDCHAR
STARTCHAR 003C
ENCODING 60
SWIDTH 840 0
DWIDTH 14 0
BBX 10 9 2 0
BITMAP
0040
0180
0E00
3000
C000
3000
0E00
0180
0040
ENDCHAR
STARTCHAR 003D
ENCODING 61
SWIDTH 840 0
DWIDTH 14 0
BBX 10 4 2 3
BITMAP
FFC0
0000
0000
FFC0
ENDCHAR
STARTCHAR 003E
ENCODING 62
SWIDTH 840 0
DWIDTH 14 0
BBX 10 9 2 0
BITMAP
8000
6000
1C00
0300
00C0
0300
1C00
6000
8000
ENDCHAR
STARTCHAR 003F
ENCODING 63
SWIDTH 420 0
DWIDTH 7 0
BBX 6 12 0 0
BITMAP
78
84
04
04
08
10
20
20
00
00
20
20
ENDCHAR
STARTCHAR 0040
ENCODING 64
SWIDTH 900 0
DWIDTH 15 0
BBX 13 12 1 0
BITMAP
0780
1860
2010
47C8
4848
9088
9188
9290
8CE0
4000
2100
1E00
ENDCHAR
STARTCHAR 0041
ENCODING 65
SWIDTH 720 0
DWIDTH 12 0
BBX 11 12 0 0
BITMAP
0400
0400
0A00
0A00
1100
1100
1100
2080
3F80
4040
4040
8020
ENDCHAR
STARTCHAR 0042
ENCODING 66
SWIDTH 600 0
DWIDTH 10 0
BBX 7 12 1 0
BITMAP
F8
84
84
84
88
F0
8C
82
82
82
82
FC
ENDCHAR
STARTCHAR 0043
ENCODING 67
SWIDTH 720 0
DWIDTH 12 0
BBX 9 12 1 0
BITMAP
1F00
6080
4000
8000
8000
8000
8000
8000
8000
4000
6080
1F00
ENDCHAR
STARTCHAR 0044
ENCODING 68
SWIDTH 780 0
DWIDTH 13 0
BBX 10 12 1 0
BITMAP
FE00
8100
8080
8040
8040
8040
8040
8040
8040
8080
8100
FE00
ENDCHAR
STARTCHAR 0045
ENCODING 69
SWIDTH 540 0
DWIDTH 9 0
BBX 7 12 1 0
BITMAP
FE
80
80
80
80
FC
80
80
80
80
80
FE
ENDCHAR
STARTCHAR 0046
ENCODING 70
SWIDTH 540 0
DWIDTH 9 0
BBX 7 12 1 0
BITMAP
FE
80
80
80
80
FC
80
80
80
80
80
80
ENDCHAR
STARTCHAR 0047
ENCODING 71
SWIDTH 720 0
DWIDTH 12 0
BBX 9 12 1 0
BITMAP
1F00
6080
4000
8000
8000
8000
8000
8080
8080
4080
6080
1F80
ENDCHAR
STARTCHAR 0048
ENCODING 72
SWIDTH 780 0
DWIDTH 13 0
BBX 10 12 1 0
BITMAP
8040
8040
8040
8040
8040
FFC0
8040
8040
8040
8040
8040
8040
ENDCHAR
STARTCHAR 0049
ENCODING 73
SWIDTH 300 0
DWIDTH 5 0
BBX 1 12 2 0
BITMAP
80
80
80
80
80
80
80
80
80
80
80
80
ENDCHAR
STARTCHAR 004A
ENCODING 74
SWIDTH 300 0
DWIDTH 5 0
BBX 4 14 1 0
BITMAP
10
10
10
10
10
10
10
10
10
10
10
10
10
E0
ENDCHAR
STARTCHAR 004B
ENCODING 75
SWIDTH 660 0
DWIDTH 11 0
BBX 9 12 1 0
BITMAP
8200
8400
8800
9000
A000
E000
9000
8800
8400
8200
8100
8080
ENDCHAR
STARTCHAR 004C
ENCODING 76
SWIDTH 540 0
DWIDTH 9 0
BBX 7 12 1 0
BITMAP
80
80
80
80
80
80
80
80
80
80
80
FE
ENDCHAR
STARTCHAR 004D
ENCODING 77
SWIDTH 900 0
DWIDTH 15 0
BBX 11 12 2 0
BITMAP
8020
C060
C060
A0A0
A0A0
9120
9120
8A20
8A20
8420
8420
8020
ENDCHAR
STARTCHAR 004E
ENCODING 78
SWIDTH 780 0
DWIDTH 13 0
BBX 10 12 1 0
BITMAP
C040
C040
A040
9040
9040
8840
8440
8240
8240
8140
80C0
80C0
ENDCHAR
STARTCHAR 004F
ENCODING 79
SWIDTH 780 0
DWIDTH 13 0
BBX 10 12 1 0
BITMAP
1E00
6180
4080
8040
8040
8040
8040
8040
8040
4080
6180
1E00
ENDCHAR
STARTCHAR 0050
ENCODING 80
SWIDTH 540 0
DWIDTH 9 0
BBX 7 12 1 0
BITMAP
F8
84
82
82
82
84
F8
80
80
80
80
80
ENDCHAR
STARTCHAR 0051
ENCODING 81
SWIDTH 780 0
DWIDTH 13 0
BBX 11 14 1 -2
BITMAP
1E00
6180
4080
8040
8040
8040
8040
8040
8040
4080
6180
1E00
0180
0060
ENDCHAR
STARTCHAR 0052
ENCODING 82
SWIDTH 660 0
DWIDTH 11 0
BBX 9 12 1 0
BITMAP
FC00
8200
8200
8200
8200
8400
F800
8800
8400
8200
8100
8080
ENDCHAR
STARTCHAR 0053
ENCODING 83
SWIDTH 540 0
DWIDTH 9 0
BBX 7 12 1 0
BITMAP
78
84
80
80
40
30
0C
02
02
02
84
78
ENDCHAR
STARTCHAR 0054
ENCODING 84
SWIDTH 660 0
DWIDTH 11 0
BBX 9 12 1 0
BITMAP
FF80
0800
0800
0800
0800
0800
0800
0800
0800
0800
0800
0800
ENDCHAR
STARTCHAR 0055
ENCODING 85
SWIDTH 720 0
DWIDTH 12 0
BBX 9 12 1 0
BITMAP
8080
8080
8080
8080
8080
8080
8080
8080
8080
8080
4100
3E00
ENDCHAR
STARTCHAR 0056
ENCODING 86
SWIDTH 660 0
DWIDTH 11 0
BBX 11 12 0 0
BITMAP
8020
4040
4040
2080
2080
2080
1100
1100
0A00
0A00
0400
0400
ENDCHAR
STARTCHAR 0057
ENCODING 87
SWIDTH 900 0
DWIDTH 15 0
BBX 13 12 1 0
BITMAP
8208
4208
4510
4510
2510
2510
24A0
14A0
14A0
18A0
0840
0840
ENDCHAR
STARTCHAR 0058
ENCODING 88
SWIDTH 660 0
DWIDTH 11 0
BBX 10 12 0 0
BITMAP
8040
4080
2100
2100
1200
0C00
0C00
1200
1200
2100
4080
8040
ENDCHAR
STARTCHAR 0059
ENCODING 89
SWIDTH 660 0
DWIDTH 11 0
BBX 9 12 1 0
BITMAP
8080
4100
2200
2200
1400
0800
0800
0800
0800
0800
0800
0800
ENDCHAR
STARTCHAR 005A
ENCODING 90
SWIDTH 600 0
DWIDTH 10 0
BBX 7 12 1 0
BITMAP
FE
02
04
04
08
10
10
20
20
40
80
FE
ENDCHAR
STARTCHAR 005B
ENCODING 91
SWIDTH 360 0
DWIDTH 6 0
BBX 3 14 2 -2
BITMAP
E0
80
80
80
80
80
80
80
80
80
80
80
80
E0
ENDCHAR
STARTCHAR 005C
ENCODING 92
SWIDTH 540 0
DWIDTH 9 0
BBX 5 14 2 -2
BITMAP
80
80
40
40
40
20
20
20
20
10
10
10
08
08
ENDCHAR
STARTCHAR 005D
ENCODING 93
SWIDTH 360 0
DWIDTH 6 0
BBX 3 14 1 -2
BITMAP
E0
20
20
20
20
20
20
20
20
20
20
20
20
E0
ENDCHAR
STARTCHAR 005E
ENCODING 94
SWIDTH 660 0
DWIDTH 11 0
BBX 9 9 1 3
BITMAP
0800
0800
1400
1400
2200
2200
4100
4100
8080
ENDCHAR
STARTCHAR 005F
ENCODING 95
SWIDTH 540 0
DWIDTH 9 0
BBX 7 1 1 -1
BITMAP
FE
ENDCHAR
STARTCHAR 0060
ENCODING 96
SWIDTH 600 0
DWIDTH 10 0
BBX 3 3 4 11
BITMAP
80
40
20
ENDCHAR
STARTCHAR 0061
ENCODING 97
SWIDTH 540 0
DWIDTH 9 0
BBX 7 9 1 0
BITMAP
38
44
04
04
7C
84
84
8C
76
ENDCHAR
STARTCHAR 0062
ENCODING 98
SWIDTH 660 0
DWIDTH 11 0
BBX 8 12 2 0
BITMAP
80
80
80
BC
C2
81
81
81
81
81
C2
BC
ENDCHAR
STARTCHAR 0063
ENCODING 99
SWIDTH 540 0
DWIDTH 9 0
BBX 7 9 1 0
BITMAP
3C
42
80
80
80
80
80
42
3C
ENDCHAR
STARTCHAR 0064
ENCODING 100
SWIDTH 660 0
DWIDTH 11 0
BBX 8 12 1 0
BITMAP
01
01
01
3D
43
81
81
81
81
81
43
3D
ENDCHAR
STARTCHAR 0065
ENCODING 101
SWIDTH 540 0
DWIDTH 9 0
BBX 7 9 1 0
BITMAP
38
44
82
82
FE
80
80
42
3C
ENDCHAR
STARTCHAR 0066
ENCODING 102
SWIDTH 360 0
DWIDTH 6 0
BBX 5 12 1 0
BITMAP
38
40
40
F0
40
40
40
40
40
40
40
40
ENDCHAR
STARTCHAR 0067
ENCODING 103
SWIDTH 660 0
DWIDTH 11 0
BBX 8 12 1 -3
BITMAP
3D
43
81
81
81
81
81
43
3D
01
42
3C
ENDCHAR
STARTCHAR 0068
ENCODING 104
SWIDTH 660 0
DWIDTH 11 0
BBX 7 12 2 0
BITMAP
80
80
80
9C
A2
C2
82
82
82
82
82
82
ENDCHAR
STARTCHAR 0069
ENCODING 105
SWIDTH 300 0
DWIDTH 5 0
BBX 1 12 2 0
BITMAP
80
80
00
80
80
80
80
80
80
80
80
80
ENDCHAR
STARTCHAR 006A
ENCODING 106
SWIDTH 300 0
DWIDTH 5 0
BBX 4 15 -1 -3
BITMAP
10
10
00
10
10
10
10
10
10
10
10
10
10
10
E0
ENDCHAR
STARTCHAR 006B
ENCODING 107
SWIDTH 600 0
DWIDTH 10 0
BBX 7 12 2 0
BITMAP
80
80
80
88
90
A0
C0
A0
90
88
84
82
ENDCHAR
STARTCHAR 006C
ENCODING 108
SWIDTH 300 0
DWIDTH 5 0
BBX 1 12 2 0
BITMAP
80
80
80
80
80
80
80
80
80
80
80
80
ENDCHAR
STARTCHAR 006D
ENCODING 109
SWIDTH 960 0
DWIDTH 16 0
BBX 11 9 2 0
BITMAP
B9C0
C620
8420
8420
8420
8420
8420
8420
8420
ENDCHAR
STARTCHAR 006E
ENCODING 110
SWIDTH 660 0
DWIDTH 11 0
BBX 7 9 2 0
BITMAP
9C
A2
C2
82
82
82
82
82
82
ENDCHAR
STARTCHAR 006F
ENCODING 111
SWIDTH 600 0
DWIDTH 10 0
BBX 8 9 1 0
BITMAP
3C
42
81
81
81
81
81
42
3C
ENDCHAR
STARTCHAR 0070
ENCODING 112
SWIDTH 660 0
DWIDTH 11 0
BBX 8 12 2 -3
BITMAP
BC
C2
81
81
81
81
81
C2
BC
80
80
80
ENDCHAR
STARTCHAR 0071
ENCODING 113
SWIDTH 660 0
DWIDTH 11 0
BBX 8 12 1 -3
BITMAP
3D
43
81
81
81
81
81
43
3D
01
01
01
ENDCHAR
STARTCHAR 0072
ENCODING 114
SWIDTH 420 0
DWIDTH 7 0
BBX 5 9 2 0
BITMAP
B8
C0
80
80
80
80
80
80
80
ENDCHAR
STARTCHAR 0073
ENCODING 115
SWIDTH 540 0
DWIDTH 9 0
BBX 5 9 2 0
BITMAP
78
80
80
40
30
08
08
08
F0
ENDCHAR
STARTCHAR 0074
ENCODING 116
SWIDTH 360 0
DWIDTH 6 0
BBX 4 11 1 0
BITMAP
40
40
F0
40
40
40
40
40
40
40
30
ENDCHAR
STARTCHAR 0075
ENCODING 117
SWIDTH 660 0
DWIDTH 11 0
BBX 7 9 2 0
BITMAP
82
82
82
82
82
82
86
8A
72
ENDCHAR
STARTCHAR 0076
ENCODING 118
SWIDTH 540 0
DWIDTH 9 0
BBX 9 9 0 0
BITMAP
8080
4100
4100
2200
2200
1400
1400
0800
0800
ENDCHAR
STARTCHAR 0077
ENCODING 119
SWIDTH 780 0
DWIDTH 13 0
BBX 13 9 0 0
BITMAP
8208
4210
4510
4510
28A0
28A0
28A0
1040
1040
ENDCHAR
STARTCHAR 0078
ENCODING 120
SWIDTH 600 0
DWIDTH 10 0
BBX 8 9 1 0
BITMAP
81
42
24
18
18
18
24
42
81
ENDCHAR
STARTCHAR 0079
ENCODING 121
SWIDTH 540 0
DWIDTH 9 0
BBX 9 12 0 -3
BITMAP
8080
8080
4100
4100
2200
2200
1400
1400
0800
0800
0800
1000
ENDCHAR
STARTCHAR 007A
ENCODING 122
SWIDTH 600 0
DWIDTH 10 0
BBX 7 9 1 0
BITMAP
FE
02
04
08
10
20
40
80
FE
ENDCHAR
STARTCHAR 007B
ENCODING 123
SWIDTH 360 0
DWIDTH 6 0
BBX 4 14 1 -2
BITMAP
30
40
40
40
40
40
80
40
40
40
40
40
40
30
ENDCHAR
STARTCHAR 007C
ENCODING 124
SWIDTH 360 0
DWIDTH 6 0
BBX 1 14 2 -2
BITMAP
80
80
80
80
80
80
80
80
80
80
80
80
80
80
ENDCHAR
STARTCHAR 007D
ENCODING 125
SWIDTH 360 0
DWIDTH 6 0
BBX 4 14 1 -2
BITMAP
C0
20
20
20
20
20
10
20
20
20
20
20
20
C0
ENDCHAR
STARTCHAR 007E
ENCODING 126
SWIDTH 660 0
DWIDTH 11 0
BBX 8 3 1 3
BITMAP
61
99
86
ENDCHAR
STARTCHAR 00A0
ENCODING 160
SWIDTH 300 0
DWIDTH 5 0
BBX 1 1 0 0
BITMAP
00
ENDCHAR
STARTCHAR 00A1
ENCODING 161
SWIDTH 300 0
DWIDTH 5 0
BBX 1 12 2 -3
BITMAP
80
80
00
00
80
80
80
80
80
80
80
80
ENDCHAR
STARTCHAR 00A2
ENCODING 162
SWIDTH 660 0
DWIDTH 11 0
BBX 8 12 1 0
BITMAP
08
08
3F
48
88
88
88
88
88
48
3F
08
ENDCHAR
STARTCHAR 00A3
ENCODING 163
SWIDTH 660 0
DWIDTH 11 0
BBX 7 12 2 0
BITMAP
1C
22
20
20
20
F8
20
20
20
20
40
FE
ENDCHAR
STARTCHAR 00A4
ENCODING 164
SWIDTH 660 0
DWIDTH 11 0
BBX 9 9 1 2
BITMAP
8080
5D00
2200
4100
4100
4100
2200
5D00
8080
ENDCHAR
STARTCHAR 00A5
ENCODING 165
SWIDTH 660 0
DWIDTH 11 0
BBX 9 12 1 0
BITMAP
8080
4100
2200
2200
1400
0800
3E00
0800
3E00
0800
0800
0800
ENDCHAR
STARTCHAR 00A6
ENCODING 166
SWIDTH 360 0
DWIDTH 6 0
BBX 1 14 2 -2
BITMAP
80
80
80
80
80
80
00
00
80
80
80
80
80
80
ENDCHAR
STARTCHAR 00A7
ENCODING 167
SWIDTH 660 0
DWIDTH 11 0
BBX 7 15 2 -3
BITMAP
7E
80
80
80
70
5C
86
82
82
74
1C
02
02
02
FC
ENDCHAR
STARTCHAR 00A8
ENCODING 168
SWIDTH 600 0
DWIDTH 10 0
BBX 4 1 3 11
BITMAP
90
ENDCHAR
STARTCHAR 00A9
ENCODING 169
SWIDTH 900 0
DWIDTH 15 0
BBX 13 13 1 0
BITMAP
0F80
3060
4010
4790
8808
9008
9008
9008
8808
4790
4010
3060
0F80
ENDCHAR
STARTCHAR 00AA
ENCODING 170
SWIDTH 480 0
DWIDTH 8 0
BBX 6 6 1 7
BITMAP
F0
08
78
88
88
7C
ENDCHAR
STARTCHAR 00AB
ENCODING 171
SWIDTH 540 0
DWIDTH 9 0
BBX 7 7 1 1
BITMAP
12
24
48
90
48
24
12
ENDCHAR
STARTCHAR 00AC
ENCODING 172
SWIDTH 840 0
DWIDTH 14 0
BBX 10 5 2 2
BITMAP
FFC0
0040
0040
0040
0040
ENDCHAR
STARTCHAR 00AD
ENCODING 173
SWIDTH 600 0
DWIDTH 10 0
BBX 8 1 1 5
BITMAP
FF
ENDCHAR
STARTCHAR 00AE
ENCODING 174
SWIDTH 660 0
DWIDTH 11 0
BBX 7 7 2 6
BITMAP
38
44
B2
AA
B2
6C
38
ENDCHAR
STARTCHAR 00AF
ENCODING 175
SWIDTH 540 0
DWIDTH 9 0
BBX 7 1 1 12
BITMAP
FE
ENDCHAR
STARTCHAR 00B0
ENCODING 176
SWIDTH 420 0
DWIDTH 7 0
BBX 5 5 1 8
BITMAP
70
88
88
88
70
ENDCHAR
STARTCHAR 00B1
ENCODING 177
SWIDTH 840 0
DWIDTH 14 0
BBX 9 11 2 0
BITMAP
0800
0800
0800
0800
FF80
0800
0800
0800
0800
0000
FF80
ENDCHAR
STARTCHAR 00B2
ENCODING 178
SWIDTH 420 0
DWIDTH 7 0
BBX 5 7 1 5
BITMAP
F0
08
08
10
60
80
F8
ENDCHAR
STARTCHAR 00B3
ENCODING 179
SWIDTH 420 0
DWIDTH 7 0
BBX 5 7 1 5
BITMAP
F0
08
08
70
08
08
F0
ENDCHAR
STARTCHAR 00B4
ENCODING 180
SWIDTH 600 0
DWIDTH 10 0
BBX 3 3 3 11
BITMAP
20
40
80
ENDCHAR
STARTCHAR 00B5
ENCODING 181
SWIDTH 660 0
DWIDTH 11 0
BBX 7 12 2 -3
BITMAP
82
82
82
82
82
82
86
CA
B2
80
80
80
ENDCHAR
STARTCHAR 00B6
ENCODING 182
SWIDTH 660 0
DWIDTH 11 0
BBX 6 14 2 -2
BITMAP
7C
F4
F4
F4
F4
74
14
14
14
14
14
14
14
14
ENDCHAR
STARTCHAR 00B7
ENCODING 183
SWIDTH 300 0
DWIDTH 5 0
BBX 2 2 1 4
BITMAP
C0
C0
ENDCHAR
STARTCHAR 00B8
ENCODING 184
SWIDTH 600 0
DWIDTH 10 0
BBX 3 3 4 -4
BITMAP
C0
20
C0
ENDCHAR
STARTCHAR 00B9
ENCODING 185
SWIDTH 420 0
DWIDTH 7 0
BBX 5 7 1 5
BITMAP
60
A0
20
20
20
20
F8
ENDCHAR
STARTCHAR 00BA
ENCODING 186
SWIDTH 480 0
DWIDTH 8 0
BBX 6 6 1 7
BITMAP
30
48
84
84
48
30
ENDCHAR
STARTCHAR 00BB
ENCODING 187
SWIDTH 540 0
DWIDTH 9 0
BBX 7 7 1 1
BITMAP
90
48
24
12
24
48
90
ENDCHAR
STARTCHAR 00BC
ENCODING 188
SWIDTH 840 0
DWIDTH 14 0
BBX 13 12 0 0
BITMAP
6020
A040
2080
2100
2100
2210
2430
0850
0890
10F8
2010
4010
ENDCHAR
STARTCHAR 00BD
ENCODING 189
SWIDTH 840 0
DWIDTH 14 0
BBX 13 12 0 0
BITMAP
6020
A040
2080
2100
2100
22F0
2408
0808
0830
1040
2080
40F8
ENDCHAR
STARTCHAR 00BE
ENCODING 190
SWIDTH 840 0
DWIDTH 14 0
BBX 12 12 1 0
BITMAP
F020
0840
0880
7100
0900
0A20
F460
08A0
0920
11F0
2020
4020
ENDCHAR
STARTCHAR 00BF
ENCODING 191
SWIDTH 420 0
DWIDTH 7 0
BBX 6 12 0 -3
BITMAP
10
10
00
00
10
10
20
40
80
80
84
78
ENDCHAR
STARTCHAR 00C0
ENCODING 192
SWIDTH 720 0
DWIDTH 12 0
BBX 11 16 0 0
BITMAP
0800
0400
0200
0000
0400
0400
0A00
0A00
1100
1100
1100
2080
3F80
4040
4040
8020
ENDCHAR
STARTCHAR 00C1
ENCODING 193
SWIDTH 720 0
DWIDTH 12 0
BBX 11 16 0 0
BITMAP
0100
0200
0400
0000
0400
0400
0A00
0A00
1100
1100
1100
2080
3F80
4040
4040
8020
ENDCHAR
STARTCHAR 00C2
ENCODING 194
SWIDTH 720 0
DWIDTH 12 0
BBX 11 16 0 0
BITMAP
0400
0A00
1100
0000
0400
0400
0A00
0A00
1100
1100
1100
2080
3F80
4040
4040
8020
ENDCHAR
STARTCHAR 00C3
ENCODING 195
SWIDTH 720 0
DWIDTH 12 0
BBX 11 15 0 0
BITMAP
0C80
1300
0000
0400
0400
0A00
0A00
1100
1100
1100
2080
3F80
4040
4040
8020
ENDCHAR
STARTCHAR 00C4
ENCODING 196
SWIDTH 720 0
DWIDTH 12 0
BBX 11 14 0 0
BITMAP
0900
0000
0400
0400
0A00
0A00
1100
1100
1100
2080
3F80
4040
4040
8020
ENDCHAR
STARTCHAR 00C5
ENCODING 197
SWIDTH 720 0
DWIDTH 12 0
BBX 11 16 0 0
BITMAP
0600
0900
0900
0600
0400
0400
0A00
0A00
1100
1100
1100
2080
3F80
4040
4040
8020
ENDCHAR
STARTCHAR 00C6
ENCODING 198
SWIDTH 900 0
DWIDTH 15 0
BBX 14 12 0 0
BITMAP
01FC
0300
0500
0500
0900
09F8
1100
2100
3F00
4100
4100
81FC
ENDCHAR
STARTCHAR 00C7
ENCODING 199
SWIDTH 720 0
DWIDTH 12 0
BBX 9 16 1 -4
BITMAP
1F00
6080
4000
8000
8000
8000
8000
8000
8000
4000
6080
1F00
0000
0C00
0200
0C00
ENDCHAR
STARTCHAR 00C8
ENCODING 200
SWIDTH 540 0
DWIDTH 9 0
BBX 7 16 1 0
BITMAP
20
10
08
00
FE
80
80
80
80
FC
80
80
80
80
80
FE
ENDCHAR
STARTCHAR 00C9
ENCODING 201
SWIDTH 540 0
DWIDTH 9 0
BBX 7 16 1 0
BITMAP
04
08
10
00
FE
80
80
80
80
FC
80
80
80
80
80
FE
ENDCHAR
STARTCHAR 00CA
ENCODING 202
SWIDTH 540 0
DWIDTH 9 0
BBX 7 16 1 0
BITMAP
10
28
44
00
FE
80
80
80
80
FC
80
80
80
80
80
FE
ENDCHAR
STARTCHAR 00CB
ENCODING 203
SWIDTH 540 0
DWIDTH 9 0
BBX 7 14 1 0
BITMAP
24
00
FE
80
80
80
80
FC
80
80
80
80
80
FE
ENDCHAR
STARTCHAR 00CC
ENCODING 204
SWIDTH 300 0
DWIDTH 5 0
BBX 3 16 1 0
BITMAP
80
40
20
00
40
40
40
40
40
40
40
40
40
40
40
40
ENDCHAR
STARTCHAR 00CD
ENCODING 205
SWIDTH 300 0
DWIDTH 5 0
BBX 3 16 2 0
BITMAP
20
40
80
00
80
80
80
80
80
80
80
80
80
80
80
80
ENDCHAR
STARTCHAR 00CE
ENCODING 206
SWIDTH 300 0
DWIDTH 5 0
BBX 5 16 0 0
BITMAP
20
50
88
00
20
20
20
20
20
20
20
20
20
20
20
20
ENDCHAR
STARTCHAR 00CF
ENCODING 207
SWIDTH 300 0
DWIDTH 5 0
BBX 4 14 1 0
BITMAP
90
00
40
40
40
40
40
40
40
40
40
40
40
40
ENDCHAR
STARTCHAR 00D0
ENCODING 208
SWIDTH 780 0
DWIDTH 13 0
BBX 12 12 -1 0
BITMAP
3F80
2040
2020
2010
2010
FC10
2010
2010
2010
2020
2040
3F80
ENDCHAR
STARTCHAR 00D1
ENCODING 209
SWIDTH 780 0
DWIDTH 13 0
BBX 10 15 1 0
BITMAP
1900
2600
0000
C040
C040
A040
9040
9040
8840
8440
8240
8240
8140
80C0
80C0
ENDCHAR
STARTCHAR 00D2
ENCODING 210
SWIDTH 780 0
DWIDTH 13 0
BBX 10 16 1 0
BITMAP
1000
0800
0400
0000
1E00
6180
4080
8040
8040
8040
8040
8040
8040
4080
6180
1E00
ENDCHAR
STARTCHAR 00D3
ENCODING 211
SWIDTH 780 0
DWIDTH 13 0
BBX 10 16 1 0
BITMAP
0200
0400
0800
0000
1E00
6180
4080
8040
8040
8040
8040
8040
8040
4080
6180
1E00
ENDCHAR
STARTCHAR 00D4
ENCODING 212
SWIDTH 780 0
DWIDTH 13 0
BBX 10 16 1 0
BITMAP
0400
0A00
1100
0000
1E00
6180
4080
8040
8040
8040
8040
8040
8040
4080
6180
1E00
ENDCHAR
STARTCHAR 00D5
ENCODING 213
SWIDTH 780 0
DWIDTH 13 0
BBX 10 15 1 0
BITMAP
1900
2600
0000
1E00
6180
4080
8040
8040
8040
8040
8040
8040
4080
6180
1E00
ENDCHAR
STARTCHAR 00D6
ENCODING 214
SWIDTH 780 0
DWIDTH 13 0
BBX 10 14 1 0
BITMAP
1200
0000
1E00
6180
4080
8040
8040
8040
8040
8040
8040
4080
6180
1E00
ENDCHAR
STARTCHAR 00D7
ENCODING 215
SWIDTH 840 0
DWIDTH 14 0
BBX 10 10 2 0
BITMAP
8040
4080
2100
1200
0C00
0C00
1200
2100
4080
8040
ENDCHAR
STARTCHAR 00D8
ENCODING 216
SWIDTH 780 0
DWIDTH 13 0
BBX 10 12 1 0
BITMAP
1E40
6180
4180
8340
8240
8440
8840
9040
B040
6080
6180
9E00
ENDCHAR
STARTCHAR 00D9
ENCODING 217
SWIDTH 720 0
DWIDTH 12 0
BBX 9 16 1 0
BITMAP
1000
0800
0400
0000
8080
8080
8080
8080
8080
8080
8080
8080
8080
8080
4100
3E00
ENDCHAR
STARTCHAR 00DA
ENCODING 218
SWIDTH 720 0
DWIDTH 12 0
BBX 9 16 1 0
BITMAP
0300
0600
0C00
0000
8080
8080
8080
8080
8080
8080
8080
8080
8080
8080
4100
3E00
ENDCHAR
STARTCHAR 00DB
ENCODING 219
SWIDTH 720 0
DWIDTH 12 0
BBX 9 16 1 0
BITMAP
0800
1400
2200
0000
8080
8080
8080
8080
8080
8080
8080
8080
8080
8080
4100
3E00
ENDCHAR
STARTCHAR 00DC
ENCODING 220
SWIDTH 720 0
DWIDTH 12 0
BBX 9 14 1 0
BITMAP
1200
0000
8080
8080
8080
8080
8080
8080
8080
8080
8080
8080
4100
3E00
ENDCHAR
STARTCHAR 00DD
ENCODING 221
SWIDTH 660 0
DWIDTH 11 0
BBX 9 16 1 0
BITMAP
0200
0400
0800
0000
8080
4100
2200
2200
1400
0800
0800
0800
0800
0800
0800
0800
ENDCHAR
STARTCHAR 00DE
ENCODING 222
SWIDTH 540 0
DWIDTH 9 0
BBX 7 12 1 0
BITMAP
80
80
F8
84
82
82
82
82
84
F8
80
80
ENDCHAR
STARTCHAR 00DF
ENCODING 223
SWIDTH 600 0
DWIDTH 10 0
BBX 7 12 2 0
BITMAP
78
84
84
88
90
A0
90
88
84
82
A2
9C
ENDCHAR
STARTCHAR 00E0
ENCODING 224
SWIDTH 540 0
DWIDTH 9 0
BBX 7 13 1 0
BITMAP
20
10
08
00
38
44
04
04
7C
84
84
8C
76
ENDCHAR
STARTCHAR 00E1
ENCODING 225
SWIDTH 540 0
DWIDTH 9 0
BBX 7 13 1 0
BITMAP
08
10
20
00
38
44
04
04
7C
84
84
8C
76
ENDCHAR
STARTCHAR 00E2
ENCODING 226
SWIDTH 540 0
DWIDTH 9 0
BBX 7 13 1 0
BITMAP
10
28
44
00
38
44
04
04
7C
84
84
8C
76
ENDCHAR
STARTCHAR 00E3
ENCODING 227
SWIDTH 540 0
DWIDTH 9 0
BBX 7 12 1 0
BITMAP
32
4C
00
38
44
04
04
7C
84
84
8C
76
ENDCHAR
STARTCHAR 00E4
ENCODING 228
SWIDTH 540 0
DWIDTH 9 0
BBX 7 11 1 0
BITMAP
24
00
38
44
04
04
7C
84
84
8C
76
ENDCHAR
STARTCHAR 00E5
ENCODING 229
SWIDTH 540 0
DWIDTH 9 0
BBX 7 14 1 0
BITMAP
18
24
24
18
00
38
44
04
04
7C
84
84
8C
76
ENDCHAR
STARTCHAR 00E6
ENCODING 230
SWIDTH 840 0
DWIDTH 14 0
BBX 12 9 1 0
BITMAP
39C0
4620
0410
0410
7FF0
8400
8400
8A10
71E0
ENDCHAR
STARTCHAR 00E7
ENCODING 231
SWIDTH 540 0
DWIDTH 9 0
BBX 7 13 1 -4
BITMAP
3C
42
80
80
80
80
80
42
3C
00
18
04
18
ENDCHAR
STARTCHAR 00E8
ENCODING 232
SWIDTH 540 0
DWIDTH 9 0
BBX 7 13 1 0
BITMAP
20
10
08
00
38
44
82
82
FE
80
80
42
3C
ENDCHAR
STARTCHAR 00E9
ENCODING 233
SWIDTH 540 0
DWIDTH 9 0
BBX 7 13 1 0
BITMAP
04
08
10
00
38
44
82
82
FE
80
80
42
3C
ENDCHAR
STARTCHAR 00EA
ENCODING 234
SWIDTH 540 0
DWIDTH 9 0
BBX 7 13 1 0
BITMAP
08
14
22
00
38
44
82
82
FE
80
80
42
3C
ENDCHAR
STARTCHAR 00EB
ENCODING 235
SWIDTH 540 0
DWIDTH 9 0
BBX 7 11 1 0
BITMAP
24
00
38
44
82
82
FE
80
80
42
3C
ENDCHAR
STARTCHAR 00EC
ENCODING 236
SWIDTH 300 0
DWIDTH 5 0
BBX 3 13 1 0
BITMAP
80
40
20
00
40
40
40
40
40
40
40
40
40
ENDCHAR
STARTCHAR 00ED
ENCODING 237
SWIDTH 300 0
DWIDTH 5 0
BBX 3 13 2 0
BITMAP
20
40
80
00
80
80
80
80
80
80
80
80
80
ENDCHAR
STARTCHAR 00EE
ENCODING 238
SWIDTH 300 0
DWIDTH 5 0
BBX 5 13 0 0
BITMAP
20
50
88
00
20
20
20
20
20
20
20
20
20
ENDCHAR
STARTCHAR 00EF
ENCODING 239
SWIDTH 300 0
DWIDTH 5 0
BBX 4 11 1 0
BITMAP
90
00
40
40
40
40
40
40
40
40
40
ENDCHAR
STARTCHAR 00F0
ENCODING 240
SWIDTH 600 0
DWIDTH 10 0
BBX 8 13 1 0
BITMAP
04
78
2C
02
3E
43
81
81
81
81
81
42
3C
ENDCHAR
STARTCHAR 00F1
ENCODING 241
SWIDTH 660 0
DWIDTH 11 0
BBX 7 12 2 0
BITMAP
32
4C
00
9C
A2
C2
82
82
82
82
82
82
ENDCHAR
STARTCHAR 00F2
ENCODING 242
SWIDTH 600 0
DWIDTH 10 0
BBX 8 13 1 0
BITMAP
20
10
08
00
3C
42
81
81
81
81
81
42
3C
ENDCHAR
STARTCHAR 00F3
ENCODING 243
SWIDTH 600 0
DWIDTH 10 0
BBX 8 13 1 0
BITMAP
06
0C
18
00
3C
42
81
81
81
81
81
42
3C
ENDCHAR
STARTCHAR 00F4
ENCODING 244
SWIDTH 600 0
DWIDTH 10 0
BBX 8 13 1 0
BITMAP
08
14
22
00
3C
42
81
81
81
81
81
42
3C
ENDCHAR
STARTCHAR 00F5
ENCODING 245
SWIDTH 600 0
DWIDTH 10 0
BBX 8 12 1 0
BITMAP
32
4C
00
3C
42
81
81
81
81
81
42
3C
ENDCHAR
STARTCHAR 00F6
ENCODING 246
SWIDTH 600 0
DWIDTH 10 0
BBX 8 11 1 0
BITMAP
24
00
3C
42
81
81
81
81
81
42
3C
ENDCHAR
STARTCHAR 00F7
ENCODING 247
SWIDTH 840 0
DWIDTH 14 0
BBX 10 10 2 0
BITMAP
0C00
0C00
0000
0000
0000
FFC0
0000
0000
0C00
0C00
ENDCHAR
STARTCHAR 00F8
ENCODING 248
SWIDTH 600 0
DWIDTH 10 0
BBX 8 9 1 0
BITMAP
3D
42
85
89
91
91
A1
42
BC
ENDCHAR
STARTCHAR 00F9
ENCODING 249
SWIDTH 660 0
DWIDTH 11 0
BBX 7 13 2 0
BITMAP
20
10
08
00
82
82
82
82
82
82
86
8A
72
ENDCHAR
STARTCHAR 00FA
ENCODING 250
SWIDTH 660 0
DWIDTH 11 0
BBX 7 13 2 0
BITMAP
04
08
10
00
82
82
82
82
82
82
86
8A
72
ENDCHAR
STARTCHAR 00FB
ENCODING 251
SWIDTH 660 0
DWIDTH 11 0
BBX 7 13 2 0
BITMAP
10
28
44
00
82
82
82
82
82
82
86
8A
72
ENDCHAR
STARTCHAR 00FC
ENCODING 252
SWIDTH 660 0
DWIDTH 11 0
BBX 7 11 2 0
BITMAP
24
00
82
82
82
82
82
82
86
8A
72
ENDCHAR
STARTCHAR 00FD
ENCODING 253
SWIDTH 540 0
DWIDTH 9 0
BBX 9 16 0 -3
BITMAP
0200
0400
0800
0000
8080
8080
4100
4100
2200
2200
1400
1400
0800
0800
0800
1000
ENDCHAR
STARTCHAR 00FE
ENCODING 254
SWIDTH 660 0
DWIDTH 11 0
BBX 8 15 2 -3
BITMAP
80
80
80
BC
C2
81
81
81
81
81
C2
BC
80
80
80
ENDCHAR
STARTCHAR 00FF
ENCODING 255
SWIDTH 540 0
DWIDTH 9 0
BBX 9 14 0 -3
BITMAP
1200
0000
8080
8080
4100
4100
2200
2200
1400
1400
0800
0800
0800
1000
ENDCHAR
STARTCHAR 0100
ENCODING 256
SWIDTH 720 0
DWIDTH 12 0
BBX 11 14 0 0
BITMAP
1F00
0000
0400
0400
0A00
0A00
1100
1100
1100
2080
3F80
4040
4040
8020
ENDCHAR
STARTCHAR 0101
ENCODING 257
SWIDTH 540 0
DWIDTH 9 0
BBX 7 11 1 0
BITMAP
7C
00
38
44
04
04
7C
84
84
8C
76
ENDCHAR
STARTCHAR 0102
ENCODING 258
SWIDTH 720 0
DWIDTH 12 0
BBX 11 16 0 0
BITMAP
1080
1080
0F00
0000
0400
0400
0A00
0A00
1100
1100
1100
2080
3F80
4040
4040
8020
ENDCHAR
STARTCHAR 0103
ENCODING 259
SWIDTH 540 0
DWIDTH 9 0
BBX 7 13 1 0
BITMAP
42
42
3C
00
38
44
04
04
7C
84
84
8C
76
ENDCHAR
STARTCHAR 0104
ENCODING 260
SWIDTH 720 0
DWIDTH 12 0
BBX 11 15 0 -3
BITMAP
0400
0400
0A00
0A00
1100
1100
1100
2080
3F80
4040
4040
8020
0040
0080
0060
ENDCHAR
STARTCHAR 0105
ENCODING 261
SWIDTH 540 0
DWIDTH 9 0
BBX 8 12 1 -3
BITMAP
38
44
04
04
7C
84
84
8C
76
02
04
03
ENDCHAR
STARTCHAR 0106
ENCODING 262
SWIDTH 720 0
DWIDTH 12 0
BBX 9 16 1 0
BITMAP
0100
0200
0400
0000
1F00
6080
4000
8000
8000
8000
8000
8000
8000
4000
6080
1F00
ENDCHAR
STARTCHAR 0107
ENCODING 263
SWIDTH 540 0
DWIDTH 9 0
BBX 7 13 1 0
BITMAP
06
0C
18
00
3C
42
80
80
80
80
80
42
3C
ENDCHAR
STARTCHAR 0108
ENCODING 264
SWIDTH 720 0
DWIDTH 12 0
BBX 9 16 1 0
BITMAP
0400
0A00
1100
0000
1F00
6080
4000
8000
8000
8000
8000
8000
8000
4000
6080
1F00
ENDCHAR
STARTCHAR 0109
ENCODING 265
SWIDTH 540 0
DWIDTH 9 0
BBX 7 13 1 0
BITMAP
08
14
22
00
3C
42
80
80
80
80
80
42
3C
ENDCHAR
STARTCHAR 010A
ENCODING 266
SWIDTH 720 0
DWIDTH 12 0
BBX 9 15 1 0
BITMAP
0600
0600
0000
1F00
6080
4000
8000
8000
8000
8000
8000
8000
4000
6080
1F00
ENDCHAR
STARTCHAR 010B
ENCODING 267
SWIDTH 540 0
DWIDTH 9 0
BBX 7 12 1 0
BITMAP
0C
0C
00
3C
42
80
80
80
80
80
42
3C
ENDCHAR
STARTCHAR 010C
ENCODING 268
SWIDTH 720 0
DWIDTH 12 0
BBX 9 16 1 0
BITMAP
1100
0A00
0400
0000
1F00
6080
4000
8000
8000
8000
8000
8000
8000
4000
6080
1F00
ENDCHAR
STARTCHAR 010D
ENCODING 269
SWIDTH 540 0
DWIDTH 9 0
BBX 7 13 1 0
BITMAP
22
14
08
00
3C
42
80
80
80
80
80
42
3C
ENDCHAR
STARTCHAR 010E
ENCODING 270
SWIDTH 780 0
DWIDTH 13 0
BBX 10 16 1 0
BITMAP
2200
1400
0800
0000
FE00
8100
8080
8040
8040
8040
8040
8040
8040
8080
8100
FE00
ENDCHAR
STARTCHAR 010F
ENCODING 271
SWIDTH 720 0
DWIDTH 12 0
BBX 11 12 1 0
BITMAP
0160
0160
0120
3D40
4300
8100
8100
8100
8100
8100
4300
3D00
ENDCHAR
STARTCHAR 0110
ENCODING 272
SWIDTH 780 0
DWIDTH 13 0
BBX 12 12 -1 0
BITMAP
3F80
2040
2020
2010
2010
FC10
2010
2010
2010
2020
2040
3F80
ENDCHAR
STARTCHAR 0111
ENCODING 273
SWIDTH 660 0
DWIDTH 11 0
BBX 9 12 1 0
BITMAP
0100
0F80
0100
3D00
4300
8100
8100
8100
8100
8100
4300
3D00
ENDCHAR
STARTCHAR 0112
ENCODING 274
SWIDTH 540 0
DWIDTH 9 0
BBX 7 14 1 0
BITMAP
7C
00
FE
80
80
80
80
FC
80
80
80
80
80
FE
ENDCHAR
STARTCHAR 0113
ENCODING 275
SWIDTH 540 0
DWIDTH 9 0
BBX 7 11 1 0
BITMAP
7C
00
38
44
82
82
FE
80
80
42
3C
ENDCHAR
STARTCHAR 0114
ENCODING 276
SWIDTH 540 0
DWIDTH 9 0
BBX 7 16 1 0
BITMAP
42
42
3C
00
FE
80
80
80
80
FC
80
80
80
80
80
FE
ENDCHAR
STARTCHAR 0115
ENCODING 277
SWIDTH 540 0
DWIDTH 9 0
BBX 7 13 1 0
BITMAP
42
42
3C
00
38
44
82
82
FE
80
80
42
3C
ENDCHAR
STARTCHAR 0116
ENCODING 278
SWIDTH 540 0
DWIDTH 9 0
BBX 7 15 1 0
BITMAP
18
18
00
FE
80
80
80
80
FC
80
80
80
80
80
FE
ENDCHAR
STARTCHAR 0117
ENCODING 279
SWIDTH 540 0
DWIDTH 9 0
BBX 7 12 1 0
BITMAP
18
18
00
38
44
82
82
FE
80
80
42
3C
ENDCHAR
STARTCHAR 0118
ENCODING 280
SWIDTH 540 0
DWIDTH 9 0
BBX 7 15 1 -3
BITMAP
FE
80
80
80
80
FC
80
80
80
80
80
FE
04
08
06
ENDCHAR
STARTCHAR 0119
ENCODING 281
SWIDTH 540 0
DWIDTH 9 0
BBX 7 12 1 -3
BITMAP
38
44
82
82
FE
80
80
42
3C
04
08
06
ENDCHAR
STARTCHAR 011A
ENCODING 282
SWIDTH 540 0
DWIDTH 9 0
BBX 7 16 1 0
BITMAP
44
28
10
00
FE
80
80
80
80
FC
80
80
80
80
80
FE
ENDCHAR
STARTCHAR 011B
ENCODING 283
SWIDTH 540 0
DWIDTH 9 0
BBX 7 13 1 0
BITMAP
44
28
10
00
38
44
82
82
FE
80
80
42
3C
ENDCHAR
STARTCHAR 011C
ENCODING 284
SWIDTH 720 0
DWIDTH 12 0
BBX 9 16 1 0
BITMAP
0400
0A00
1100
0000
1F00
6080
4000
8000
8000
8000
8000
8080
8080
4080
6080
1F80
ENDCHAR
STARTCHAR 011D
ENCODING 285
SWIDTH 660 0
DWIDTH 11 0
BBX 8 16 1 -3
BITMAP
08
14
22
00
3D
43
81
81
81
81
81
43
3D
01
42
3C
ENDCHAR
STARTCHAR 011E
ENCODING 286
SWIDTH 720 0
DWIDTH 12 0
BBX 9 16 1 0
BITMAP
2100
2100
1E00
0000
1F00
6080
4000
8000
8000
8000
8000
8080
8080
4080
6080
1F80
ENDCHAR
STARTCHAR 011F
ENCODING 287
SWIDTH 660 0
DWIDTH 11 0
BBX 8 16 1 -3
BITMAP
42
42
3C
00
3D
43
81
81
81
81
81
43
3D
01
42
3C
ENDCHAR
STARTCHAR 0120
ENCODING 288
SWIDTH 720 0
DWIDTH 12 0
BBX 9 15 1 0
BITMAP
0C00
0C00
0000
1F00
6080
4000
8000
8000
8000
8000
8080
8080
4080
6080
1F80
ENDCHAR
STARTCHAR 0121
ENCODING 289
SWIDTH 660 0
DWIDTH 11 0
BBX 8 15 1 -3
BITMAP
18
18
00
3D
43
81
81
81
81
81
43
3D
01
42
3C
ENDCHAR
STARTCHAR 0122
ENCODING 290
SWIDTH 720 0
DWIDTH 12 0
BBX 9 18 1 -6
BITMAP
1F00
6080
4000
8000
8000
8000
8000
8080
8080
4080
6080
1F80
0000
0000
0600
0600
0200
0400
ENDCHAR
STARTCHAR 0123
ENCODING 291
SWIDTH 660 0
DWIDTH 11 0
BBX 8 17 1 -3
BITMAP
08
10
18
18
00
3D
43
81
81
81
81
81
43
3D
01
42
3C
ENDCHAR
STARTCHAR 0124
ENCODING 292
SWIDTH 780 0
DWIDTH 13 0
BBX 10 16 1 0
BITMAP
0400
0A00
1100
0000
8040
8040
8040
8040
8040
FFC0
8040
8040
8040
8040
8040
8040
ENDCHAR
STARTCHAR 0125
ENCODING 293
SWIDTH 660 0
DWIDTH 11 0
BBX 7 16 2 0
BITMAP
10
28
44
00
80
80
80
9C
A2
C2
82
82
82
82
82
82
ENDCHAR
STARTCHAR 0126
ENCODING 294
SWIDTH 780 0
DWIDTH 13 0
BBX 13 12 0 0
BITMAP
2020
2020
FFF8
2020
2020
3FE0
2020
2020
2020
2020
2020
2020
ENDCHAR
STARTCHAR 0127
ENCODING 295
SWIDTH 660 0
DWIDTH 11 0
BBX 8 12 1 0
BITMAP
40
F8
40
4E
51
61
41
41
41
41
41
41
ENDCHAR
STARTCHAR 0128
ENCODING 296
SWIDTH 300 0
DWIDTH 5 0
BBX 6 15 0 0
BITMAP
64
98
00
20
20
20
20
20
20
20
20
20
20
20
20
ENDCHAR
STARTCHAR 0129
ENCODING 297
SWIDTH 300 0
DWIDTH 5 0
BBX 6 12 0 0
BITMAP
64
98
00
20
20
20
20
20
20
20
20
20
ENDCHAR
STARTCHAR 012A
ENCODING 298
SWIDTH 300 0
DWIDTH 5 0
BBX 5 14 0 0
BITMAP
F8
00
20
20
20
20
20
20
20
20
20
20
20
20
ENDCHAR
STARTCHAR 012B
ENCODING 299
SWIDTH 300 0
DWIDTH 5 0
BBX 5 11 0 0
BITMAP
F8
00
20
20
20
20
20
20
20
20
20
ENDCHAR
STARTCHAR 012C
ENCODING 300
SWIDTH 300 0
DWIDTH 5 0
BBX 6 16 0 0
BITMAP
84
84
78
00
20
20
20
20
20
20
20
20
20
20
20
20
ENDCHAR
STARTCHAR 012D
ENCODING 301
SWIDTH 300 0
DWIDTH 5 0
BBX 6 13 0 0
BITMAP
84
84
78
00
20
20
20
20
20
20
20
20
20
ENDCHAR
STARTCHAR 012E
ENCODING 302
SWIDTH 300 0
DWIDTH 5 0
BBX 3 15 1 -3
BITMAP
40
40
40
40
40
40
40
40
40
40
40
40
40
80
60
ENDCHAR
STARTCHAR 012F
ENCODING 303
SWIDTH 300 0
DWIDTH 5 0
BBX 3 15 1 -3
BITMAP
40
40
00
40
40
40
40
40
40
40
40
40
40
80
60
ENDCHAR
STARTCHAR 0130
ENCODING 304
SWIDTH 300 0
DWIDTH 5 0
BBX 2 15 2 0
BITMAP
C0
C0
00
80
80
80
80
80
80
80
80
80
80
80
80
ENDCHAR
STARTCHAR 0131
ENCODING 305
SWIDTH 300 0
DWIDTH 5 0
BBX 1 9 2 0
BITMAP
80
80
80
80
80
80
80
80
80
ENDCHAR
STARTCHAR 0132
ENCODING 306
SWIDTH 600 0
DWIDTH 10 0
BBX 6 14 2 -2
BITMAP
84
84
84
84
84
84
84
84
84
84
84
84
04
38
ENDCHAR
STARTCHAR 0133
ENCODING 307
SWIDTH 600 0
DWIDTH 10 0
BBX 6 15 2 -3
BITMAP
84
84
00
84
84
84
84
84
84
84
84
84
04
04
38
ENDCHAR
STARTCHAR 0134
ENCODING 308
SWIDTH 300 0
DWIDTH 5 0
BBX 7 18 -1 -2
BITMAP
08
14
22
00
10
10
10
10
10
10
10
10
10
10
10
10
10
E0
ENDCHAR
STARTCHAR 0135
ENCODING 309
SWIDTH 300 0
DWIDTH 5 0
BBX 6 17 -1 -3
BITMAP
10
28
44
00
00
10
10
10
10
10
10
10
10
10
10
10
E0
ENDCHAR
STARTCHAR 0136
ENCODING 310
SWIDTH 660 0
DWIDTH 11 0
BBX 9 18 1 -6
BITMAP
8200
8400
8800
9000
A000
E000
9000
8800
8400
8200
8100
8080
0000
0000
1800
1800
0800
1000
ENDCHAR
STARTCHAR 0137
ENCODING 311
SWIDTH 600 0
DWIDTH 10 0
BBX 7 18 2 -6
BITMAP
80
80
80
88
90
A0
C0
A0
90
88
84
82
00
00
30
30
10
20
ENDCHAR
STARTCHAR 0138
ENCODING 312
SWIDTH 600 0
DWIDTH 10 0
BBX 7 9 2 0
BITMAP
84
88
90
E0
A0
90
88
84
82
ENDCHAR
STARTCHAR 0139
ENCODING 313
SWIDTH 540 0
DWIDTH 9 0
BBX 7 16 1 0
BITMAP
20
40
80
00
80
80
80
80
80
80
80
80
80
80
80
FE
ENDCHAR
STARTCHAR 013A
ENCODING 314
SWIDTH 300 0
DWIDTH 5 0
BBX 3 17 2 0
BITMAP
20
40
80
00
00
80
80
80
80
80
80
80
80
80
80
80
80
ENDCHAR
STARTCHAR 013B
ENCODING 315
SWIDTH 540 0
DWIDTH 9 0
BBX 7 18 1 -6
BITMAP
80
80
80
80
80
80
80
80
80
80
80
FE
00
00
38
38
10
30
ENDCHAR
STARTCHAR 013C
ENCODING 316
SWIDTH 300 0
DWIDTH 5 0
BBX 2 18 2 -6
BITMAP
80
80
80
80
80
80
80
80
80
80
80
80
00
00
C0
C0
40
80
ENDCHAR
STARTCHAR 013D
ENCODING 317
SWIDTH 540 0
DWIDTH 9 0
BBX 7 12 1 0
BITMAP
98
98
88
90
80
80
80
80
80
80
80
FE
ENDCHAR
STARTCHAR 013E
ENCODING 318
SWIDTH 360 0
DWIDTH 6 0
BBX 3 12 2 0
BITMAP
E0
E0
A0
C0
80
80
80
80
80
80
80
80
ENDCHAR
STARTCHAR 013F
ENCODING 319
SWIDTH 540 0
DWIDTH 9 0
BBX 7 12 1 0
BITMAP
80
80
80
80
8C
8C
80
80
80
80
80
FE
ENDCHAR
STARTCHAR 0140
ENCODING 320
SWIDTH 420 0
DWIDTH 7 0
BBX 4 12 2 0
BITMAP
80
80
80
80
80
B0
B0
80
80
80
80
80
ENDCHAR
STARTCHAR 0141
ENCODING 321
SWIDTH 540 0
DWIDTH 9 0
BBX 8 12 0 0
BITMAP
20
20
20
28
30
60
A0
20
20
20
20
3F
ENDCHAR
STARTCHAR 0142
ENCODING 322
SWIDTH 360 0
DWIDTH 6 0
BBX 5 12 0 0
BITMAP
20
20
20
20
28
70
A0
20
20
20
20
20
ENDCHAR
STARTCHAR 0143
ENCODING 323
SWIDTH 780 0
DWIDTH 13 0
BBX 10 16 1 0
BITMAP
0300
0600
0C00
0000
C040
C040
A040
9040
9040
8840
8440
8240
8240
8140
80C0
80C0
ENDCHAR
STARTCHAR 0144
ENCODING 324
SWIDTH 660 0
DWIDTH 11 0
BBX 7 13 2 0
BITMAP
04
08
10
00
9C
A2
C2
82
82
82
82
82
82
ENDCHAR
STARTCHAR 0145
ENCODING 325
SWIDTH 780 0
DWIDTH 13 0
BBX 10 18 1 -6
BITMAP
C040
C040
A040
9040
9040
8840
8440
8240
8240
8140
80C0
80C0
0000
0000
0C00
0C00
0400
0800
ENDCHAR
STARTCHAR 0146
ENCODING 326
SWIDTH 660 0
DWIDTH 11 0
BBX 7 15 2 -6
BITMAP
9C
A2
C2
82
82
82
82
82
82
00
00
18
18
08
10
ENDCHAR
STARTCHAR 0147
ENCODING 327
SWIDTH 780 0
DWIDTH 13 0
BBX 10 16 1 0
BITMAP
1100
0A00
0400
0000
C040
C040
A040
9040
9040
8840
8440
8240
8240
8140
80C0
80C0
ENDCHAR
STARTCHAR 0148
ENCODING 328
SWIDTH 660 0
DWIDTH 11 0
BBX 7 13 2 0
BITMAP
44
28
10
00
9C
A2
C2
82
82
82
82
82
82
ENDCHAR
STARTCHAR 0149
ENCODING 329
SWIDTH 720 0
DWIDTH 12 0
BBX 11 12 -1 0
BITMAP
C000
C000
4000
89C0
0A20
0C20
0820
0820
0820
0820
0820
0820
ENDCHAR
STARTCHAR 014A
ENCODING 330
SWIDTH 780 0
DWIDTH 13 0
BBX 10 15 1 -3
BITMAP
C040
C040
A040
9040
9040
8840
8440
8240
8240
8140
80C0
80C0
0040
0040
0380
ENDCHAR
STARTCHAR 014B
ENCODING 331
SWIDTH 660 0
DWIDTH 11 0
BBX 7 12 2 -3
BITMAP
9C
A2
C2
82
82
82
82
82
82
02
02
1C
ENDCHAR
STARTCHAR 014C
ENCODING 332
SWIDTH 780 0
DWIDTH 13 0
BBX 10 14 1 0
BITMAP
1F00
0000
1E00
6180
4080
8040
8040
8040
8040
8040
8040
4080
6180
1E00
ENDCHAR
STARTCHAR 014D
ENCODING 333
SWIDTH 600 0
DWIDTH 10 0
BBX 8 11 1 0
BITMAP
3E
00
3C
42
81
81
81
81
81
42
3C
ENDCHAR
STARTCHAR 014E
ENCODING 334
SWIDTH 780 0
DWIDTH 13 0
BBX 10 16 1 0
BITMAP
2100
2100
1E00
0000
1E00
6180
4080
8040
8040
8040
8040
8040
8040
4080
6180
1E00
ENDCHAR
STARTCHAR 014F
ENCODING 335
SWIDTH 600 0
DWIDTH 10 0
BBX 8 13 1 0
BITMAP
42
42
3C
00
3C
42
81
81
81
81
81
42
3C
ENDCHAR
STARTCHAR 0150
ENCODING 336
SWIDTH 780 0
DWIDTH 13 0
BBX 10 16 1 0
BITMAP
0480
0900
1200
0000
1E00
6180
4080
8040
8040
8040
8040
8040
8040
4080
6180
1E00
ENDCHAR
STARTCHAR 0151
ENCODING 337
SWIDTH 600 0
DWIDTH 10 0
BBX 8 13 1 0
BITMAP
09
12
24
00
3C
42
81
81
81
81
81
42
3C
ENDCHAR
STARTCHAR 0152
ENCODING 338
SWIDTH 1020 0
DWIDTH 17 0
BBX 15 12 1 0
BITMAP
1EFE
2180
4080
8080
8080
80FC
8080
8080
8080
4080
2180
1EFE
ENDCHAR
STARTCHAR 0153
ENCODING 339
SWIDTH 960 0
DWIDTH 16 0
BBX 14 9 1 0
BITMAP
3C70
4288
8104
8104
81FC
8100
8100
4284
3C78
ENDCHAR
STARTCHAR 0154
ENCODING 340
SWIDTH 660 0
DWIDTH 11 0
BBX 9 16 1 0
BITMAP
0400
0800
1000
0000
FC00
8200
8200
8200
8200
8400
F800
8800
8400
8200
8100
8080
ENDCHAR
STARTCHAR 0155
ENCODING 341
SWIDTH 420 0
DWIDTH 7 0
BBX 5 13 2 0
BITMAP
10
20
40
00
B8
C0
80
80
80
80
80
80
80
ENDCHAR
STARTCHAR 0156
ENCODING 342
SWIDTH 660 0
DWIDTH 11 0
BBX 9 18 1 -6
BITMAP
FC00
8200
8200
8200
8200
8400
F800
8800
8400
8200
8100
8080
0000
0000
1800
1800
0800
1000
ENDCHAR
STARTCHAR 0157
ENCODING 343
SWIDTH 420 0
DWIDTH 7 0
BBX 5 15 2 -6
BITMAP
B8
C0
80
80
80
80
80
80
80
00
00
C0
C0
40
80
ENDCHAR
STARTCHAR 0158
ENCODING 344
SWIDTH 660 0
DWIDTH 11 0
BBX 9 16 1 0
BITMAP
4400
2800
1000
0000
FC00
8200
8200
8200
8200
8400
F800
8800
8400
8200
8100
8080
ENDCHAR
STARTCHAR 0159
ENCODING 345
SWIDTH 420 0
DWIDTH 7 0
BBX 5 13 2 0
BITMAP
88
50
20
00
B8
C0
80
80
80
80
80
80
80
ENDCHAR
STARTCHAR 015A
ENCODING 346
SWIDTH 540 0
DWIDTH 9 0
BBX 7 16 1 0
BITMAP
04
08
10
00
78
84
80
80
40
30
0C
02
02
02
84
78
ENDCHAR
STARTCHAR 015B
ENCODING 347
SWIDTH 540 0
DWIDTH 9 0
BBX 5 13 2 0
BITMAP
08
10
20
00
78
80
80
40
30
08
08
08
F0
ENDCHAR
STARTCHAR 015C
ENCODING 348
SWIDTH 540 0
DWIDTH 9 0
BBX 7 16 1 0
BITMAP
10
28
44
00
78
84
80
80
40
30
0C
02
02
02
84
78
ENDCHAR
STARTCHAR 015D
ENCODING 349
SWIDTH 540 0
DWIDTH 9 0
BBX 5 13 2 0
BITMAP
20
50
88
00
78
80
80
40
30
08
08
08
F0
ENDCHAR
STARTCHAR 015E
ENCODING 350
SWIDTH 540 0
DWIDTH 9 0
BBX 7 16 1 -4
BITMAP
78
84
80
80
40
30
0C
02
02
02
84
78
00
30
08
30
ENDCHAR
STARTCHAR 015F
ENCODING 351
SWIDTH 540 0
DWIDTH 9 0
BBX 5 13 2 -4
BITMAP
78
80
80
40
30
08
08
08
F0
00
60
10
60
ENDCHAR
STARTCHAR 0160
ENCODING 352
SWIDTH 540 0
DWIDTH 9 0
BBX 7 16 1 0
BITMAP
44
28
10
00
78
84
80
80
40
30
0C
02
02
02
84
78
ENDCHAR
STARTCHAR 0161
ENCODING 353
SWIDTH 540 0
DWIDTH 9 0
BBX 5 13 2 0
BITMAP
88
50
20
00
78
80
80
40
30
08
08
08
F0
ENDCHAR
STARTCHAR 0162
ENCODING 354
SWIDTH 660 0
DWIDTH 11 0
BBX 9 16 1 -4
BITMAP
FF80
0800
0800
0800
0800
0800
0800
0800
0800
0800
0800
0800
0000
1800
0400
1800
ENDCHAR
STARTCHAR 0163
ENCODING 355
SWIDTH 360 0
DWIDTH 6 0
BBX 5 15 1 -4
BITMAP
40
40
F0
40
40
40
40
40
40
40
30
00
30
08
30
ENDCHAR
STARTCHAR 0164
ENCODING 356
SWIDTH 660 0
DWIDTH 11 0
BBX 9 16 1 0
BITMAP
2200
1400
0800
0000
FF80
0800
0800
0800
0800
0800
0800
0800
0800
0800
0800
0800
ENDCHAR
STARTCHAR 0165
ENCODING 357
SWIDTH 360 0
DWIDTH 6 0
BBX 4 14 1 0
BITMAP
30
30
10
60
40
F0
40
40
40
40
40
40
40
30
ENDCHAR
STARTCHAR 0166
ENCODING 358
SWIDTH 660 0
DWIDTH 11 0
BBX 9 12 1 0
BITMAP
FF80
0800
0800
0800
0800
7F00
0800
0800
0800
0800
0800
0800
ENDCHAR
STARTCHAR 0167
ENCODING 359
SWIDTH 360 0
DWIDTH 6 0
BBX 4 11 1 0
BITMAP
40
40
F0
40
40
F0
40
40
40
40
30
ENDCHAR
STARTCHAR 0168
ENCODING 360
SWIDTH 720 0
DWIDTH 12 0
BBX 9 15 1 0
BITMAP
1900
2600
0000
8080
8080
8080
8080
8080
8080
8080
8080
8080
8080
4100
3E00
ENDCHAR
STARTCHAR 0169
ENCODING 361
SWIDTH 660 0
DWIDTH 11 0
BBX 7 12 2 0
BITMAP
32
4C
00
82
82
82
82
82
82
86
8A
72
ENDCHAR
STARTCHAR 016A
ENCODING 362
SWIDTH 720 0
DWIDTH 12 0
BBX 9 14 1 0
BITMAP
3E00
0000
8080
8080
8080
8080
8080
8080
8080
8080
8080
8080
4100
3E00
ENDCHAR
STARTCHAR 016B
ENCODING 363
SWIDTH 660 0
DWIDTH 11 0
BBX 7 11 2 0
BITMAP
7C
00
82
82
82
82
82
82
86
8A
72
ENDCHAR
STARTCHAR 016C
ENCODING 364
SWIDTH 720 0
DWIDTH 12 0
BBX 9 16 1 0
BITMAP
2100
2100
1E00
0000
8080
8080
8080
8080
8080
8080
8080
8080
8080
8080
4100
3E00
ENDCHAR
STARTCHAR 016D
ENCODING 365
SWIDTH 660 0
DWIDTH 11 0
BBX 7 13 2 0
BITMAP
42
42
3C
00
82
82
82
82
82
82
86
8A
72
ENDCHAR
STARTCHAR 016E
ENCODING 366
SWIDTH 720 0
DWIDTH 12 0
BBX 9 17 1 0
BITMAP
0C00
1200
1200
0C00
0000
8080
8080
8080
8080
8080
8080
8080
8080
8080
8080
4100
3E00
ENDCHAR
STARTCHAR 016F
ENCODING 367
SWIDTH 660 0
DWIDTH 11 0
BBX 7 14 2 0
BITMAP
18
24
24
18
00
82
82
82
82
82
82
86
8A
72
ENDCHAR
STARTCHAR 0170
ENCODING 368
SWIDTH 720 0
DWIDTH 12 0
BBX 9 16 1 0
BITMAP
0480
0900
1200
0000
8080
8080
8080
8080
8080
8080
8080
8080
8080
8080
4100
3E00
ENDCHAR
STARTCHAR 0171
ENCODING 369
SWIDTH 660 0
DWIDTH 11 0
BBX 7 13 2 0
BITMAP
12
24
48
00
82
82
82
82
82
82
86
8A
72
ENDCHAR
STARTCHAR 0172
ENCODING 370
SWIDTH 720 0
DWIDTH 12 0
BBX 9 15 1 -3
BITMAP
8080
8080
8080
8080
8080
8080
8080
8080
8080
8080
4100
3E00
0400
0800
0600
ENDCHAR
STARTCHAR 0173
ENCODING 371
SWIDTH 660 0
DWIDTH 11 0
BBX 8 12 2 -3
BITMAP
82
82
82
82
82
82
86
8A
72
02
04
03
ENDCHAR
STARTCHAR 0174
ENCODING 372
SWIDTH 900 0
DWIDTH 15 0
BBX 13 16 1 0
BITMAP
0200
0500
0880
0000
8208
4208
4510
4510
2510
2510
24A0
14A0
14A0
18A0
0840
0840
ENDCHAR
STARTCHAR 0175
ENCODING 373
SWIDTH 780 0
DWIDTH 13 0
BBX 13 13 0 0
BITMAP
0200
0500
0880
0000
8208
4210
4510
4510
28A0
28A0
28A0
1040
1040
ENDCHAR
STARTCHAR 0176
ENCODING 374
SWIDTH 660 0
DWIDTH 11 0
BBX 9 16 1 0
BITMAP
0800
1400
2200
0000
8080
4100
2200
2200
1400
0800
0800
0800
0800
0800
0800
0800
ENDCHAR
STARTCHAR 0177
ENCODING 375
SWIDTH 540 0
DWIDTH 9 0
BBX 9 16 0 -3
BITMAP
0800
1400
2200
0000
8080
8080
4100
4100
2200
2200
1400
1400
0800
0800
0800
1000
ENDCHAR
STARTCHAR 0178
ENCODING 376
SWIDTH 660 0
DWIDTH 11 0
BBX 9 14 1 0
BITMAP
1200
0000
8080
4100
2200
2200
1400
0800
0800
0800
0800
0800
0800
0800
ENDCHAR
STARTCHAR 0179
ENCODING 377
SWIDTH 600 0
DWIDTH 10 0
BBX 7 16 1 0
BITMAP
06
0C
18
00
FE
02
04
04
08
10
10
20
20
40
80
FE
ENDCHAR
STARTCHAR 017A
ENCODING 378
SWIDTH 600 0
DWIDTH 10 0
BBX 7 13 1 0
BITMAP
0C
18
30
00
FE
02
04
08
10
20
40
80
FE
ENDCHAR
STARTCHAR 017B
ENCODING 379
SWIDTH 600 0
DWIDTH 10 0
BBX 7 15 1 0
BITMAP
18
18
00
FE
02
04
04
08
10
10
20
20
40
80
FE
ENDCHAR
STARTCHAR 017C
ENCODING 380
SWIDTH 600 0
DWIDTH 10 0
BBX 7 12 1 0
BITMAP
18
18
00
FE
02
04
08
10
20
40
80
FE
ENDCHAR
STARTCHAR 017D
ENCODING 381
SWIDTH 600 0
DWIDTH 10 0
BBX 7 16 1 0
BITMAP
22
14
08
00
FE
02
04
04
08
10
10
20
20
40
80
FE
ENDCHAR
STARTCHAR 017E
ENCODING 382
SWIDTH 600 0
DWIDTH 10 0
BBX 7 13 1 0
BITMAP
44
28
10
00
FE
02
04
08
10
20
40
80
FE
ENDCHAR
STARTCHAR 017F
ENCODING 383
SWIDTH 360 0
DWIDTH 6 0
BBX 6 12 1 0
BITMAP
3C
40
40
C0
40
40
40
40
40
40
40
40
ENDCHAR
STARTCHAR 0192
ENCODING 402
SWIDTH 660 0
DWIDTH 11 0
BBX 8 14 2 -2
BITMAP
0F
10
10
20
20
FC
20
40
40
40
40
40
80
80
ENDCHAR
STARTCHAR 01FA
ENCODING 506
SWIDTH 720 0
DWIDTH 12 0
BBX 11 21 0 0
BITMAP
0180
0300
0600
0000
0000
0600
0900
0900
0600
0400
0400
0A00
0A00
1100
1100
1100
2080
3F80
4040
4040
8020
ENDCHAR
STARTCHAR 01FB
ENCODING 507
SWIDTH 540 0
DWIDTH 9 0
BBX 7 18 1 0
BITMAP
0C
18
30
00
18
24
24
18
00
38
44
04
04
7C
84
84
8C
76
ENDCHAR
STARTCHAR 01FC
ENCODING 508
SWIDTH 900 0
DWIDTH 15 0
BBX 14 16 0 0
BITMAP
0020
0040
0080
0000
01FC
0300
0500
0500
0900
09F8
1100
2100
3F00
4100
4100
81FC
ENDCHAR
STARTCHAR 01FD
ENCODING 509
SWIDTH 840 0
DWIDTH 14 0
BBX 12 13 1 0
BITMAP
0080
0100
0200
0000
39C0
4620
0410
0410
7FF0
8400
8400
8A10
71E0
ENDCHAR
STARTCHAR 01FE
ENCODING 510
SWIDTH 780 0
DWIDTH 13 0
BBX 10 16 1 0
BITMAP
0200
0400
0800
0000
1E40
6180
4180
8340
8240
8440
8840
9040
B040
6080
6180
9E00
ENDCHAR
STARTCHAR 01FF
ENCODING 511
SWIDTH 600 0
DWIDTH 10 0
BBX 8 13 1 0
BITMAP
04
08
10
00
3D
42
85
89
91
91
A1
42
BC
ENDCHAR
STARTCHAR 0218
ENCODING 536
SWIDTH 540 0
DWIDTH 9 0
BBX 7 18 1 -6
BITMAP
78
84
80
80
40
30
0C
02
02
02
84
78
00
00
18
18
08
10
ENDCHAR
STARTCHAR 0219
ENCODING 537
SWIDTH 540 0
DWIDTH 9 0
BBX 5 15 2 -6
BITMAP
78
80
80
40
30
08
08
08
F0
00
00
30
30
10
20
ENDCHAR
STARTCHAR 021A
ENCODING 538
SWIDTH 660 0
DWIDTH 11 0
BBX 9 18 1 -6
BITMAP
FF80
0800
0800
0800
0800
0800
0800
0800
0800
0800
0800
0800
0000
0000
0C00
0C00
0400
0800
ENDCHAR
STARTCHAR 021B
ENCODING 539
SWIDTH 360 0
DWIDTH 6 0
BBX 4 17 1 -6
BITMAP
40
40
F0
40
40
40
40
40
40
40
30
00
00
30
30
10
20
ENDCHAR
STARTCHAR 0250
ENCODING 592
SWIDTH 540 0
DWIDTH 9 0
BBX 7 9 1 0
BITMAP
DC
62
42
42
7C
40
40
44
38
ENDCHAR
STARTCHAR 0251
ENCODING 593
SWIDTH 660 0
DWIDTH 11 0
BBX 8 9 1 0
BITMAP
1F
21
41
81
81
81
83
85
79
ENDCHAR
STARTCHAR 0252
ENCODING 594
SWIDTH 660 0
DWIDTH 11 0
BBX 8 9 2 0
BITMAP
9E
A1
C1
81
81
81
82
84
F8
ENDCHAR
STARTCHAR 0253
ENCODING 595
SWIDTH 660 0
DWIDTH 11 0
BBX 8 12 2 0
BITMAP
38
44
80
BC
C2
81
81
81
81
81
C2
BC
ENDCHAR
STARTCHAR 0254
ENCODING 596
SWIDTH 540 0
DWIDTH 9 0
BBX 7 9 1 0
BITMAP
78
84
02
02
02
02
02
84
78
ENDCHAR
STARTCHAR 0255
ENCODING 597
SWIDTH 540 0
DWIDTH 9 0
BBX 7 10 1 -1
BITMAP
38
44
80
80
80
8C
52
22
5C
40
ENDCHAR
STARTCHAR 0256
ENCODING 598
SWIDTH 660 0
DWIDTH 11 0
BBX 10 15 1 -3
BITMAP
0100
0100
0100
3D00
4300
8100
8100
8100
8100
8100
4300
3D00
0100
0100
00C0
ENDCHAR
STARTCHAR 0257
ENCODING 599
SWIDTH 660 0
DWIDTH 11 0
BBX 10 12 1 0
BITMAP
00C0
0100
0100
3D00
4300
8100
8100
8100
8100
8100
4300
3D00
ENDCHAR
STARTCHAR 0258
ENCODING 600
SWIDTH 540 0
DWIDTH 9 0
BBX 7 9 1 0
BITMAP
38
44
82
82
FE
02
02
84
78
ENDCHAR
STARTCHAR 0259
ENCODING 601
SWIDTH 540 0
DWIDTH 9 0
BBX 7 9 1 0
BITMAP
78
84
02
02
FE
82
82
44
38
ENDCHAR
STARTCHAR 025A
ENCODING 602
SWIDTH 780 0
DWIDTH 13 0
BBX 12 9 1 0
BITMAP
7800
8400
0240
07C0
7A40
8240
8230
4400
3800
ENDCHAR
STARTCHAR 025B
ENCODING 603
SWIDTH 480 0
DWIDTH 8 0
BBX 6 9 1 0
BITMAP
78
84
80
80
78
80
80
84
78
ENDCHAR
STARTCHAR 025C
ENCODING 604
SWIDTH 480 0
DWIDTH 8 0
BBX 6 9 1 0
BITMAP
78
84
04
04
78
04
04
84
78
ENDCHAR
STARTCHAR 025D
ENCODING 605
SWIDTH 660 0
DWIDTH 11 0
BBX 10 9 1 0
BITMAP
7B00
8500
0500
0500
78C0
0400
0400
8400
7800
ENDCHAR
STARTCHAR 025E
ENCODING 606
SWIDTH 600 0
DWIDTH 10 0
BBX 8 9 1 0
BITMAP
3E
41
81
81
9E
81
81
41
3E
ENDCHAR
STARTCHAR 025F
ENCODING 607
SWIDTH 420 0
DWIDTH 7 0
BBX 6 12 0 -3
BITMAP
10
10
10
10
10
10
7C
10
10
10
10
E0
ENDCHAR
STARTCHAR 0260
ENCODING 608
SWIDTH 660 0
DWIDTH 11 0
BBX 10 15 1 -3
BITMAP
00C0
0100
0100
3D00
4300
8100
8100
8100
8100
8100
4300
3D00
0100
4200
3C00
ENDCHAR
STARTCHAR 0261
ENCODING 609
SWIDTH 660 0
DWIDTH 11 0
BBX 8 12 1 -3
BITMAP
1F
21
41
81
81
81
83
85
79
01
42
3C
ENDCHAR
STARTCHAR 0262
ENCODING 610
SWIDTH 600 0
DWIDTH 10 0
BBX 8 9 1 0
BITMAP
3E
41
80
80
80
81
81
41
3F
ENDCHAR
STARTCHAR 0263
ENCODING 611
SWIDTH 540 0
DWIDTH 9 0
BBX 9 12 0 -3
BITMAP
8080
4080
2100
3100
1200
0C00
0800
1400
2200
2200
2200
1C00
ENDCHAR
STARTCHAR 0264
ENCODING 612
SWIDTH 600 0
DWIDTH 10 0
BBX 9 9 0 0
BITMAP
C180
2200
1400
0800
0800
1400
2200
2200
1C00
ENDCHAR
STARTCHAR 0265
ENCODING 613
SWIDTH 660 0
DWIDTH 11 0
BBX 7 12 2 -3
BITMAP
82
82
82
82
82
82
86
8A
72
02
02
02
ENDCHAR
STARTCHAR 0266
ENCODING 614
SWIDTH 660 0
DWIDTH 11 0
BBX 7 12 2 0
BITMAP
38
44
80
9C
A2
C2
82
82
82
82
82
82
ENDCHAR
STARTCHAR 0267
ENCODING 615
SWIDTH 660 0
DWIDTH 11 0
BBX 7 15 2 -3
BITMAP
38
44
80
9C
A2
C2
82
82
82
82
82
82
02
02
1C
ENDCHAR
STARTCHAR 0268
ENCODING 616
SWIDTH 420 0
DWIDTH 7 0
BBX 5 12 1 0
BITMAP
20
20
00
20
20
20
F8
20
20
20
20
20
ENDCHAR
STARTCHAR 0269
ENCODING 617
SWIDTH 360 0
DWIDTH 6 0
BBX 3 9 2 0
BITMAP
80
80
80
80
80
80
80
80
60
ENDCHAR
STARTCHAR 026A
ENCODING 618
SWIDTH 420 0
DWIDTH 7 0
BBX 5 9 1 0
BITMAP
F8
20
20
20
20
20
20
20
F8
ENDCHAR
STARTCHAR 026B
ENCODING 619
SWIDTH 540 0
DWIDTH 9 0
BBX 7 12 1 0
BITMAP
10
10
10
10
12
72
9C
90
10
10
10
10
ENDCHAR
STARTCHAR 026C
ENCODING 620
SWIDTH 480 0
DWIDTH 8 0
BBX 7 12 0 0
BITMAP
08
08
08
78
88
88
8A
7C
08
08
08
08
ENDCHAR
STARTCHAR 026D
ENCODING 621
SWIDTH 300 0
DWIDTH 5 0
BBX 3 15 2 -3
BITMAP
80
80
80
80
80
80
80
80
80
80
80
80
80
80
60
ENDCHAR
STARTCHAR 026E
ENCODING 622
SWIDTH 660 0
DWIDTH 11 0
BBX 8 15 2 -3
BITMAP
80
80
80
FF
82
84
88
90
9C
82
81
81
01
42
3C
ENDCHAR
STARTCHAR 026F
ENCODING 623
SWIDTH 960 0
DWIDTH 16 0
BBX 11 9 2 0
BITMAP
8420
8420
8420
8420
8420
8420
8420
8C60
73A0
ENDCHAR
STARTCHAR 0270
ENCODING 624
SWIDTH 960 0
DWIDTH 16 0
BBX 11 12 2 -3
BITMAP
8420
8420
8420
8420
8420
8420
8420
8C60
73A0
0020
0020
0020
ENDCHAR
STARTCHAR 0271
ENCODING 625
SWIDTH 960 0
DWIDTH 16 0
BBX 11 12 2 -3
BITMAP
B9C0
C620
8420
8420
8420
8420
8420
8420
8420
0020
0020
01C0
ENDCHAR
STARTCHAR 0272
ENCODING 626
SWIDTH 660 0
DWIDTH 11 0
BBX 9 12 0 -3
BITMAP
2700
2880
3080
2080
2080
2080
2080
2080
2080
2000
2000
C000
ENDCHAR
STARTCHAR 0273
ENCODING 627
SWIDTH 660 0
DWIDTH 11 0
BBX 9 12 2 -3
BITMAP
9C00
A200
C200
8200
8200
8200
8200
8200
8200
0200
0200
0180
ENDCHAR
STARTCHAR 0274
ENCODING 628
SWIDTH 660 0
DWIDTH 11 0
BBX 7 9 2 0
BITMAP
82
C2
A2
A2
92
8A
8A
86
82
ENDCHAR
STARTCHAR 0275
ENCODING 629
SWIDTH 600 0
DWIDTH 10 0
BBX 8 9 1 0
BITMAP
3C
42
81
81
FF
81
81
42
3C
ENDCHAR
STARTCHAR 0276
ENCODING 630
SWIDTH 840 0
DWIDTH 14 0
BBX 12 9 1 0
BITMAP
3BF0
4600
8200
8200
83E0
8200
8200
4600
3BF0
ENDCHAR
STARTCHAR 0277
ENCODING 631
SWIDTH 840 0
DWIDTH 14 0
BBX 11 9 1 0
BITMAP
1F00
60C0
4040
8420
8420
8420
8420
4440
3B80
ENDCHAR
STARTCHAR 0278
ENCODING 632
SWIDTH 780 0
DWIDTH 13 0
BBX 11 15 1 -3
BITMAP
0400
0400
0400
3F80
4440
8420
8420
8420
8420
8420
4440
3F80
0400
0400
0400
ENDCHAR
STARTCHAR 0279
ENCODING 633
SWIDTH 420 0
DWIDTH 7 0
BBX 5 9 0 0
BITMAP
08
08
08
08
08
08
08
18
E8
ENDCHAR
STARTCHAR 027A
ENCODING 634
SWIDTH 420 0
DWIDTH 7 0
BBX 5 12 0 0
BITMAP
08
08
08
08
08
08
08
08
08
08
18
E8
ENDCHAR
STARTCHAR 027B
ENCODING 635
SWIDTH 420 0
DWIDTH 7 0
BBX 7 12 0 -3
BITMAP
08
08
08
08
08
08
08
18
E8
08
08
06
ENDCHAR
STARTCHAR 027C
ENCODING 636
SWIDTH 420 0
DWIDTH 7 0
BBX 5 12 2 -3
BITMAP
B8
C0
80
80
80
80
80
80
80
80
80
80
ENDCHAR
STARTCHAR 027D
ENCODING 637
SWIDTH 420 0
DWIDTH 7 0
BBX 5 12 2 -3
BITMAP
B8
C0
80
80
80
80
80
80
80
80
80
70
ENDCHAR
STARTCHAR 027E
ENCODING 638
SWIDTH 420 0
DWIDTH 7 0
BBX 4 9 2 0
BITMAP
70
80
80
80
80
80
80
80
80
ENDCHAR
STARTCHAR 027F
ENCODING 639
SWIDTH 420 0
DWIDTH 7 0
BBX 4 9 1 0
BITMAP
E0
10
10
10
10
10
10
10
10
ENDCHAR
STARTCHAR 0280
ENCODING 640
SWIDTH 540 0
DWIDTH 9 0
BBX 7 9 2 0
BITMAP
F8
84
84
88
F0
88
88
84
82
ENDCHAR
STARTCHAR 0281
ENCODING 641
SWIDTH 540 0
DWIDTH 9 0
BBX 7 9 2 0
BITMAP
82
84
88
88
F0
88
84
84
F8
ENDCHAR
STARTCHAR 0282
ENCODING 642
SWIDTH 540 0
DWIDTH 9 0
BBX 5 12 2 -3
BITMAP
78
80
80
40
30
08
08
08
F0
80
80
60
ENDCHAR
STARTCHAR 0283
ENCODING 643
SWIDTH 420 0
DWIDTH 7 0
BBX 7 15 0 -3
BITMAP
0E
10
10
10
10
10
10
10
10
10
10
10
10
10
E0
ENDCHAR
STARTCHAR 0284
ENCODING 644
SWIDTH 420 0
DWIDTH 7 0
BBX 6 15 0 -3
BITMAP
0C
10
10
10
10
10
10
10
10
10
7C
10
10
10
E0
ENDCHAR
STARTCHAR 0285
ENCODING 645
SWIDTH 480 0
DWIDTH 8 0
BBX 7 12 1 -3
BITMAP
E0
10
10
10
10
10
10
10
10
10
10
0E
ENDCHAR
STARTCHAR 0286
ENCODING 646
SWIDTH 540 0
DWIDTH 9 0
BBX 9 15 0 -3
BITMAP
0700
0880
0800
0800
0800
0800
0800
0800
0800
0800
7E00
8900
8800
8800
7000
ENDCHAR
STARTCHAR 0287
ENCODING 647
SWIDTH 360 0
DWIDTH 6 0
BBX 4 11 1 -2
BITMAP
C0
20
20
20
20
20
20
20
F0
20
20
ENDCHAR
STARTCHAR 0288
ENCODING 648
SWIDTH 360 0
DWIDTH 6 0
BBX 4 14 1 -3
BITMAP
40
40
F0
40
40
40
40
40
40
40
40
40
40
30
ENDCHAR
STARTCHAR 0289
ENCODING 649
SWIDTH 660 0
DWIDTH 11 0
BBX 11 9 0 0
BITMAP
2080
2080
2080
FFE0
2080
2080
2180
2280
1C80
ENDCHAR
STARTCHAR 028A
ENCODING 650
SWIDTH 660 0
DWIDTH 11 0
BBX 9 9 1 0
BITMAP
E380
2200
4100
8080
8080
8080
8080
4100
3E00
ENDCHAR
STARTCHAR 028B
ENCODING 651
SWIDTH 600 0
DWIDTH 10 0
BBX 8 9 0 0
BITMAP
81
41
41
41
21
22
22
14
18
ENDCHAR
STARTCHAR 028C
ENCODING 652
SWIDTH 540 0
DWIDTH 9 0
BBX 9 9 0 0
BITMAP
0800
0800
1400
1400
2200
2200
4100
4100
8080
ENDCHAR
STARTCHAR 028D
ENCODING 653
SWIDTH 780 0
DWIDTH 13 0
BBX 13 9 0 0
BITMAP
1040
1040
28A0
28A0
28A0
4510
4510
4210
8208
ENDCHAR
STARTCHAR 028E
ENCODING 654
SWIDTH 540 0
DWIDTH 9 0
BBX 9 12 0 0
BITMAP
0400
0400
0800
0800
1400
1400
2200
2200
4100
4100
8080
8080
ENDCHAR
STARTCHAR 028F
ENCODING 655
SWIDTH 480 0
DWIDTH 8 0
BBX 7 9 0 0
BITMAP
82
44
44
28
10
10
10
10
10
ENDCHAR
STARTCHAR 0290
ENCODING 656
SWIDTH 600 0
DWIDTH 10 0
BBX 10 12 1 -3
BITMAP
FE00
0200
0400
0800
1000
2000
4000
8000
FE00
0200
0200
01C0
ENDCHAR
STARTCHAR 0291
ENCODING 657
SWIDTH 720 0
DWIDTH 12 0
BBX 10 11 1 -2
BITMAP
FE00
0200
0400
0800
1180
2240
4440
8880
FF00
1000
1000
ENDCHAR
STARTCHAR 0292
ENCODING 658
SWIDTH 540 0
DWIDTH 9 0
BBX 7 12 1 -3
BITMAP
FE
04
08
10
20
78
04
02
02
02
84
78
ENDCHAR
STARTCHAR 0293
ENCODING 659
SWIDTH 540 0
DWIDTH 9 0
BBX 8 13 0 -4
BITMAP
7F
02
04
08
10
3C
02
01
71
89
86
7A
02
ENDCHAR
STARTCHAR 0294
ENCODING 660
SWIDTH 480 0
DWIDTH 8 0
BBX 6 12 1 0
BITMAP
70
88
04
04
04
08
70
40
40
40
40
40
ENDCHAR
STARTCHAR 0295
ENCODING 661
SWIDTH 480 0
DWIDTH 8 0
BBX 6 12 1 0
BITMAP
38
44
80
80
80
40
38
08
08
08
08
08
ENDCHAR
STARTCHAR 0296
ENCODING 662
SWIDTH 480 0
DWIDTH 8 0
BBX 6 12 1 0
BITMAP
40
40
40
40
40
70
08
04
04
04
88
70
ENDCHAR
STARTCHAR 0297
ENCODING 663
SWIDTH 480 0
DWIDTH 8 0
BBX 6 12 1 -3
BITMAP
38
44
80
80
80
80
80
80
80
80
44
38
ENDCHAR
STARTCHAR 0298
ENCODING 664
SWIDTH 660 0
DWIDTH 11 0
BBX 9 9 1 0
BITMAP
3E00
4100
8080
8080
8880
8080
8080
4100
3E00
ENDCHAR
STARTCHAR 0299
ENCODING 665
SWIDTH 540 0
DWIDTH 9 0
BBX 6 9 2 0
BITMAP
F8
84
84
84
F8
84
84
84
F8
ENDCHAR
STARTCHAR 029A
ENCODING 666
SWIDTH 600 0
DWIDTH 10 0
BBX 8 9 1 0
BITMAP
7C
82
81
81
79
81
81
82
7C
ENDCHAR
STARTCHAR 029B
ENCODING 667
SWIDTH 600 0
DWIDTH 10 0
BBX 11 12 1 0
BITMAP
00E0
0100
0100
3F00
4100
8000
8000
8000
8100
8100
4100
3F00
ENDCHAR
STARTCHAR 029C
ENCODING 668
SWIDTH 660 0
DWIDTH 11 0
BBX 7 9 2 0
BITMAP
82
82
82
82
FE
82
82
82
82
ENDCHAR
STARTCHAR 029D
ENCODING 669
SWIDTH 480 0
DWIDTH 8 0
BBX 7 15 0 -3
BITMAP
08
08
00
08
08
08
08
08
08
08
7C
8A
88
88
70
ENDCHAR
STARTCHAR 029E
ENCODING 670
SWIDTH 600 0
DWIDTH 10 0
BBX 7 12 1 -3
BITMAP
82
42
22
12
0A
06
0A
12
22
02
02
02
ENDCHAR
STARTCHAR 029F
ENCODING 671
SWIDTH 480 0
DWIDTH 8 0
BBX 5 9 2 0
BITMAP
80
80
80
80
80
80
80
80
F8
ENDCHAR
STARTCHAR 02A0
ENCODING 672
SWIDTH 660 0
DWIDTH 11 0
BBX 10 15 1 -3
BITMAP
00C0
0100
0100
3D00
4300
8100
8100
8100
8100
8100
4300
3D00
0100
0100
0100
ENDCHAR
STARTCHAR 02A1
ENCODING 673
SWIDTH 480 0
DWIDTH 8 0
BBX 6 12 1 0
BITMAP
70
88
04
04
04
08
70
40
40
F8
40
40
ENDCHAR
STARTCHAR 02A2
ENCODING 674
SWIDTH 480 0
DWIDTH 8 0
BBX 6 12 1 0
BITMAP
38
44
80
80
80
40
38
08
08
7C
08
08
ENDCHAR
STARTCHAR 02A3
ENCODING 675
SWIDTH 1080 0
DWIDTH 18 0
BBX 15 12 1 0
BITMAP
0100
0100
0100
3DFE
4302
8104
8108
8110
8110
8120
4340
3D7E
ENDCHAR
STARTCHAR 02A4
ENCODING 676
SWIDTH 1020 0
DWIDTH 17 0
BBX 15 15 1 -3
BITMAP
0100
0100
0100
3DFE
4304
8108
8110
8120
8138
8104
4302
3D02
0002
0084
0078
ENDCHAR
STARTCHAR 02A5
ENCODING 677
SWIDTH 1260 0
DWIDTH 21 0
BBX 19 14 1 -2
BITMAP
010000
010000
010000
3DFF00
430100
810200
810400
8108C0
811120
812220
434440
3D7F80
000800
000800
ENDCHAR
STARTCHAR 02A6
ENCODING 678
SWIDTH 840 0
DWIDTH 14 0
BBX 11 11 1 0
BITMAP
4000
4000
FFE0
4200
4200
4100
40C0
4020
4020
4020
3BC0
ENDCHAR
STARTCHAR 02A7
ENCODING 679
SWIDTH 720 0
DWIDTH 12 0
BBX 11 15 1 -3
BITMAP
00E0
4100
4100
FF00
4100
4100
4100
4100
4100
4100
4100
3900
0100
0100
0E00
ENDCHAR
STARTCHAR 02A8
ENCODING 680
SWIDTH 900 0
DWIDTH 15 0
BBX 13 12 1 -1
BITMAP
4000
4000
FFE0
4110
4200
4200
4200
4230
4148
4088
3970
0100
ENDCHAR
STARTCHAR 02B0
ENCODING 688
SWIDTH 420 0
DWIDTH 7 0
BBX 5 8 1 8
BITMAP
80
80
80
B0
C8
88
88
88
ENDCHAR
STARTCHAR 02B1
ENCODING 689
SWIDTH 420 0
DWIDTH 7 0
BBX 5 8 1 8
BITMAP
70
80
80
B0
C8
88
88
88
ENDCHAR
STARTCHAR 02B2
ENCODING 690
SWIDTH 240 0
DWIDTH 4 0
BBX 3 9 0 6
BITMAP
20
00
20
20
20
20
20
20
C0
ENDCHAR
STARTCHAR 02B3
ENCODING 691
SWIDTH 240 0
DWIDTH 4 0
BBX 3 5 1 8
BITMAP
A0
C0
80
80
80
ENDCHAR
STARTCHAR 02B4
ENCODING 692
SWIDTH 300 0
DWIDTH 5 0
BBX 3 5 0 8
BITMAP
20
20
20
60
A0
ENDCHAR
STARTCHAR 02B5
ENCODING 693
SWIDTH 300 0
DWIDTH 5 0
BBX 5 7 0 6
BITMAP
20
20
20
60
A0
20
18
ENDCHAR
STARTCHAR 02B6
ENCODING 694
SWIDTH 360 0
DWIDTH 6 0
BBX 5 5 1 8
BITMAP
88
90
E0
90
E0
ENDCHAR
STARTCHAR 02B7
ENCODING 695
SWIDTH 480 0
DWIDTH 8 0
BBX 9 5 -1 8
BITMAP
8880
5500
5500
5500
2200
ENDCHAR
STARTCHAR 02B8
ENCODING 696
SWIDTH 360 0
DWIDTH 6 0
BBX 5 7 0 6
BITMAP
88
50
50
50
20
20
40
ENDCHAR
STARTCHAR 02B9
ENCODING 697
SWIDTH 300 0
DWIDTH 5 0
BBX 3 5 1 8
BITMAP
60
40
C0
80
80
ENDCHAR
STARTCHAR 02BA
ENCODING 698
SWIDTH 540 0
DWIDTH 9 0
BBX 7 5 1 8
BITMAP
66
44
CC
88
88
ENDCHAR
STARTCHAR 02BB
ENCODING 699
SWIDTH 300 0
DWIDTH 5 0
BBX 2 5 1 7
BITMAP
40
80
80
C0
C0
ENDCHAR
STARTCHAR 02BC
ENCODING 700
SWIDTH 300 0
DWIDTH 5 0
BBX 2 5 1 7
BITMAP
C0
C0
40
40
80
ENDCHAR
STARTCHAR 02BD
ENCODING 701
SWIDTH 300 0
DWIDTH 5 0
BBX 2 5 1 7
BITMAP
C0
C0
80
80
40
ENDCHAR
STARTCHAR 02BE
ENCODING 702
SWIDTH 300 0
DWIDTH 5 0
BBX 3 5 1 7
BITMAP
C0
20
20
20
C0
ENDCHAR
STARTCHAR 02BF
ENCODING 703
SWIDTH 300 0
DWIDTH 5 0
BBX 3 5 1 7
BITMAP
60
80
80
80
60
ENDCHAR
STARTCHAR 02C0
ENCODING 704
SWIDTH 360 0
DWIDTH 6 0
BBX 4 4 1 8
BITMAP
E0
10
20
40
ENDCHAR
STARTCHAR 02C1
ENCODING 705
SWIDTH 360 0
DWIDTH 6 0
BBX 4 4 1 8
BITMAP
70
80
40
20
ENDCHAR
STARTCHAR 02C2
ENCODING 706
SWIDTH 420 0
DWIDTH 7 0
BBX 6 5 0 8
BITMAP
0C
30
C0
30
0C
ENDCHAR
STARTCHAR 02C3
ENCODING 707
SWIDTH 420 0
DWIDTH 7 0
BBX 6 5 1 8
BITMAP
C0
30
0C
30
C0
ENDCHAR
STARTCHAR 02C4
ENCODING 708
SWIDTH 420 0
DWIDTH 7 0
BBX 5 5 1 8
BITMAP
20
20
50
50
88
ENDCHAR
STARTCHAR 02C5
ENCODING 709
SWIDTH 420 0
DWIDTH 7 0
BBX 5 5 1 8
BITMAP
88
50
50
20
20
ENDCHAR
STARTCHAR 02C6
ENCODING 710
SWIDTH 600 0
DWIDTH 10 0
BBX 5 3 2 11
BITMAP
20
50
88
ENDCHAR
STARTCHAR 02C7
ENCODING 711
SWIDTH 600 0
DWIDTH 10 0
BBX 5 3 2 11
BITMAP
88
50
20
ENDCHAR
STARTCHAR 02C8
ENCODING 712
SWIDTH 240 0
DWIDTH 4 0
BBX 1 5 1 8
BITMAP
80
80
80
80
80
ENDCHAR
STARTCHAR 02C9
ENCODING 713
SWIDTH 600 0
DWIDTH 10 0
BBX 5 1 2 11
BITMAP
F8
ENDCHAR
STARTCHAR 02CA
ENCODING 714
SWIDTH 600 0
DWIDTH 10 0
BBX 3 3 3 11
BITMAP
20
40
80
ENDCHAR
STARTCHAR 02CB
ENCODING 715
SWIDTH 600 0
DWIDTH 10 0
BBX 3 3 4 11
BITMAP
80
40
20
ENDCHAR
STARTCHAR 02CC
ENCODING 716
SWIDTH 240 0
DWIDTH 4 0
BBX 1 4 1 -3
BITMAP
80
80
80
80
ENDCHAR
STARTCHAR 02CD
ENCODING 717
SWIDTH 600 0
DWIDTH 10 0
BBX 5 1 2 -3
BITMAP
F8
ENDCHAR
STARTCHAR 02CE
ENCODING 718
SWIDTH 600 0
DWIDTH 10 0
BBX 4 3 3 -5
BITMAP
C0
60
30
ENDCHAR
STARTCHAR 02CF
ENCODING 719
SWIDTH 600 0
DWIDTH 10 0
BBX 4 3 3 -5
BITMAP
30
60
C0
ENDCHAR
STARTCHAR 02D0
ENCODING 720
SWIDTH 420 0
DWIDTH 7 0
BBX 3 9 2 0
BITMAP
E0
40
40
00
00
00
40
40
E0
ENDCHAR
STARTCHAR 02D1
ENCODING 721
SWIDTH 420 0
DWIDTH 7 0
BBX 3 3 2 6
BITMAP
E0
40
40
ENDCHAR
STARTCHAR 02D2
ENCODING 722
SWIDTH 300 0
DWIDTH 5 0
BBX 3 5 1 2
BITMAP
C0
20
20
20
C0
ENDCHAR
STARTCHAR 02D3
ENCODING 723
SWIDTH 300 0
DWIDTH 5 0
BBX 3 5 1 2
BITMAP
60
80
80
80
60
ENDCHAR
STARTCHAR 02D4
ENCODING 724
SWIDTH 480 0
DWIDTH 8 0
BBX 5 3 1 4
BITMAP
20
20
F8
ENDCHAR
STARTCHAR 02D5
ENCODING 725
SWIDTH 480 0
DWIDTH 8 0
BBX 5 3 1 4
BITMAP
F8
20
20
ENDCHAR
STARTCHAR 02D6
ENCODING 726
SWIDTH 480 0
DWIDTH 8 0
BBX 5 5 1 2
BITMAP
20
20
F8
20
20
ENDCHAR
STARTCHAR 02D7
ENCODING 727
SWIDTH 480 0
DWIDTH 8 0
BBX 6 3 1 3
BITMAP
84
FC
84
ENDCHAR
STARTCHAR 02D8
ENCODING 728
SWIDTH 600 0
DWIDTH 10 0
BBX 6 3 2 11
BITMAP
84
84
78
ENDCHAR
STARTCHAR 02D9
ENCODING 729
SWIDTH 600 0
DWIDTH 10 0
BBX 2 2 4 11
BITMAP
C0
C0
ENDCHAR
STARTCHAR 02DA
ENCODING 730
SWIDTH 600 0
DWIDTH 10 0
BBX 4 4 3 11
BITMAP
60
90
90
60
ENDCHAR
STARTCHAR 02DB
ENCODING 731
SWIDTH 600 0
DWIDTH 10 0
BBX 3 3 4 -3
BITMAP
40
80
60
ENDCHAR
STARTCHAR 02DC
ENCODING 732
SWIDTH 600 0
DWIDTH 10 0
BBX 6 2 2 11
BITMAP
64
98
ENDCHAR
STARTCHAR 02DD
ENCODING 733
SWIDTH 600 0
DWIDTH 10 0
BBX 6 3 2 11
BITMAP
24
48
90
ENDCHAR
STARTCHAR 02DE
ENCODING 734
SWIDTH 240 0
DWIDTH 4 0
BBX 5 5 -2 2
BITMAP
60
A0
20
20
18
ENDCHAR
STARTCHAR 02E0
ENCODING 736
SWIDTH 360 0
DWIDTH 6 0
BBX 6 8 -1 5
BITMAP
C4
24
28
10
10
28
28
10
ENDCHAR
STARTCHAR 02E1
ENCODING 737
SWIDTH 180 0
DWIDTH 3 0
BBX 1 8 1 8
BITMAP
80
80
80
80
80
80
80
80
ENDCHAR
STARTCHAR 02E2
ENCODING 738
SWIDTH 360 0
DWIDTH 6 0
BBX 4 5 1 8
BITMAP
70
80
60
10
E0
ENDCHAR
STARTCHAR 02E3
ENCODING 739
SWIDTH 420 0
DWIDTH 7 0
BBX 5 5 1 8
BITMAP
88
50
20
50
88
ENDCHAR
STARTCHAR 02E4
ENCODING 740
SWIDTH 360 0
DWIDTH 6 0
BBX 4 7 0 8
BITMAP
70
80
80
40
20
20
20
ENDCHAR
STARTCHAR 02E5
ENCODING 741
SWIDTH 420 0
DWIDTH 7 0
BBX 5 12 0 0
BITMAP
F8
08
08
08
08
08
08
08
08
08
08
08
ENDCHAR
STARTCHAR 02E6
ENCODING 742
SWIDTH 420 0
DWIDTH 7 0
BBX 5 12 0 0
BITMAP
08
08
08
F8
08
08
08
08
08
08
08
08
ENDCHAR
STARTCHAR 02E7
ENCODING 743
SWIDTH 420 0
DWIDTH 7 0
BBX 5 12 0 0
BITMAP
08
08
08
08
08
F8
08
08
08
08
08
08
ENDCHAR
STARTCHAR 02E8
ENCODING 744
SWIDTH 420 0
DWIDTH 7 0
BBX 5 12 0 0
BITMAP
08
08
08
08
08
08
08
08
F8
08
08
08
ENDCHAR
STARTCHAR 02E9
ENCODING 745
SWIDTH 420 0
DWIDTH 7 0
BBX 5 12 0 0
BITMAP
08
08
08
08
08
08
08
08
08
08
08
F8
ENDCHAR
STARTCHAR 0300
ENCODING 768
SWIDTH 0 0
DWIDTH 0 0
BBX 4 3 -8 11
BITMAP
C0
60
30
ENDCHAR
STARTCHAR 0301
ENCODING 769
SWIDTH 0 0
DWIDTH 0 0
BBX 4 3 -6 11
BITMAP
30
60
C0
ENDCHAR
STARTCHAR 0302
ENCODING 770
SWIDTH 0 0
DWIDTH 0 0
BBX 5 3 -7 11
BITMAP
20
50
88
ENDCHAR
STARTCHAR 0303
ENCODING 771
SWIDTH 0 0
DWIDTH 0 0
BBX 6 2 -8 11
BITMAP
64
98
ENDCHAR
STARTCHAR 0304
ENCODING 772
SWIDTH 0 0
DWIDTH 0 0
BBX 5 1 -8 11
BITMAP
F8
ENDCHAR
STARTCHAR 0305
ENCODING 773
SWIDTH 0 0
DWIDTH 0 0
BBX 10 1 -10 13
BITMAP
FFC0
ENDCHAR
STARTCHAR 0306
ENCODING 774
SWIDTH 0 0
DWIDTH 0 0
BBX 6 3 -8 11
BITMAP
84
84
78
ENDCHAR
STARTCHAR 0307
ENCODING 775
SWIDTH 0 0
DWIDTH 0 0
BBX 2 2 -6 11
BITMAP
C0
C0
ENDCHAR
STARTCHAR 0308
ENCODING 776
SWIDTH 0 0
DWIDTH 0 0
BBX 4 1 -7 11
BITMAP
90
ENDCHAR
STARTCHAR 0309
ENCODING 777
SWIDTH 0 0
DWIDTH 0 0
BBX 4 3 -7 11
BITMAP
E0
30
40
ENDCHAR
STARTCHAR 030A
ENCODING 778
SWIDTH 0 0
DWIDTH 0 0
BBX 4 4 -7 11
BITMAP
60
90
90
60
ENDCHAR
STARTCHAR 030B
ENCODING 779
SWIDTH 0 0
DWIDTH 0 0
BBX 7 3 -8 11
BITMAP
36
6C
D8
ENDCHAR
STARTCHAR 030C
ENCODING 780
SWIDTH 0 0
DWIDTH 0 0
BBX 5 3 -7 10
BITMAP
88
50
20
ENDCHAR
STARTCHAR 030D
ENCODING 781
SWIDTH 0 0
DWIDTH 0 0
BBX 1 3 -6 11
BITMAP
80
80
80
ENDCHAR
STARTCHAR 030E
ENCODING 782
SWIDTH 0 0
DWIDTH 0 0
BBX 4 3 -7 11
BITMAP
90
90
90
ENDCHAR
STARTCHAR 030F
ENCODING 783
SWIDTH 0 0
DWIDTH 0 0
BBX 7 3 -10 11
BITMAP
D8
6C
36
ENDCHAR
STARTCHAR 0310
ENCODING 784
SWIDTH 0 0
DWIDTH 0 0
BBX 6 5 -8 11
BITMAP
30
30
00
84
78
ENDCHAR
STARTCHAR 0311
ENCODING 785
SWIDTH 0 0
DWIDTH 0 0
BBX 6 3 -8 10
BITMAP
78
84
84
ENDCHAR
STARTCHAR 0312
ENCODING 786
SWIDTH 0 0
DWIDTH 0 0
BBX 2 4 -6 11
BITMAP
40
80
C0
C0
ENDCHAR
STARTCHAR 0313
ENCODING 787
SWIDTH 0 0
DWIDTH 0 0
BBX 2 4 -6 10
BITMAP
C0
C0
40
80
ENDCHAR
STARTCHAR 0314
ENCODING 788
SWIDTH 0 0
DWIDTH 0 0
BBX 2 4 -6 10
BITMAP
C0
C0
80
40
ENDCHAR
STARTCHAR 0315
ENCODING 789
SWIDTH 0 0
DWIDTH 0 0
BBX 2 4 -2 10
BITMAP
C0
C0
40
80
ENDCHAR
STARTCHAR 0316
ENCODING 790
SWIDTH 0 0
DWIDTH 0 0
BBX 4 3 -7 -5
BITMAP
C0
60
30
ENDCHAR
STARTCHAR 0317
ENCODING 791
SWIDTH 0 0
DWIDTH 0 0
BBX 4 3 -7 -5
BITMAP
30
60
C0
ENDCHAR
STARTCHAR 0318
ENCODING 792
SWIDTH 0 0
DWIDTH 0 0
BBX 3 5 -7 -6
BITMAP
20
20
E0
20
20
ENDCHAR
STARTCHAR 0319
ENCODING 793
SWIDTH 0 0
DWIDTH 0 0
BBX 3 5 -7 -6
BITMAP
80
80
E0
80
80
ENDCHAR
STARTCHAR 031A
ENCODING 794
SWIDTH 0 0
DWIDTH 0 0
BBX 4 4 -4 9
BITMAP
F0
10
10
10
ENDCHAR
STARTCHAR 031B
ENCODING 795
SWIDTH 60 0
DWIDTH 1 0
BBX 2 3 -1 6
BITMAP
40
40
80
ENDCHAR
STARTCHAR 031C
ENCODING 796
SWIDTH 0 0
DWIDTH 0 0
BBX 2 4 -6 -6
BITMAP
40
80
80
40
ENDCHAR
STARTCHAR 031D
ENCODING 797
SWIDTH 0 0
DWIDTH 0 0
BBX 5 3 -8 -5
BITMAP
20
20
F8
ENDCHAR
STARTCHAR 031E
ENCODING 798
SWIDTH 0 0
DWIDTH 0 0
BBX 5 3 -8 -5
BITMAP
F8
20
20
ENDCHAR
STARTCHAR 031F
ENCODING 799
SWIDTH 0 0
DWIDTH 0 0
BBX 5 5 -8 -6
BITMAP
20
20
F8
20
20
ENDCHAR
STARTCHAR 0320
ENCODING 800
SWIDTH 0 0
DWIDTH 0 0
BBX 5 3 -8 -5
BITMAP
88
F8
88
ENDCHAR
STARTCHAR 0321
ENCODING 801
SWIDTH 0 0
DWIDTH 0 0
BBX 4 3 -4 -3
BITMAP
30
30
E0
ENDCHAR
STARTCHAR 0322
ENCODING 802
SWIDTH 0 0
DWIDTH 0 0
BBX 4 3 -4 -3
BITMAP
C0
C0
70
ENDCHAR
STARTCHAR 0323
ENCODING 803
SWIDTH 0 0
DWIDTH 0 0
BBX 2 2 -6 -4
BITMAP
C0
C0
ENDCHAR
STARTCHAR 0324
ENCODING 804
SWIDTH 0 0
DWIDTH 0 0
BBX 4 1 -7 -3
BITMAP
90
ENDCHAR
STARTCHAR 0325
ENCODING 805
SWIDTH 0 0
DWIDTH 0 0
BBX 4 4 -7 -6
BITMAP
60
90
90
60
ENDCHAR
STARTCHAR 0326
ENCODING 806
SWIDTH 600 0
DWIDTH 10 0
BBX 2 4 4 -6
BITMAP
C0
C0
40
80
ENDCHAR
STARTCHAR 0327
ENCODING 807
SWIDTH 0 0
DWIDTH 0 0
BBX 3 3 -6 -4
BITMAP
C0
20
C0
ENDCHAR
STARTCHAR 0328
ENCODING 808
SWIDTH 0 0
DWIDTH 0 0
BBX 3 3 -6 -3
BITMAP
40
80
60
ENDCHAR
STARTCHAR 0329
ENCODING 809
SWIDTH 0 0
DWIDTH 0 0
BBX 1 3 -6 -5
BITMAP
80
80
80
ENDCHAR
STARTCHAR 032A
ENCODING 810
SWIDTH 0 0
DWIDTH 0 0
BBX 5 3 -8 -5
BITMAP
F8
88
88
ENDCHAR
STARTCHAR 032B
ENCODING 811
SWIDTH 0 0
DWIDTH 0 0
BBX 7 2 -9 -4
BITMAP
92
6C
ENDCHAR
STARTCHAR 032C
ENCODING 812
SWIDTH 0 0
DWIDTH 0 0
BBX 5 3 -7 -5
BITMAP
88
50
20
ENDCHAR
STARTCHAR 032D
ENCODING 813
SWIDTH 0 0
DWIDTH 0 0
BBX 5 3 -7 -5
BITMAP
20
50
88
ENDCHAR
STARTCHAR 032E
ENCODING 814
SWIDTH 0 0
DWIDTH 0 0
BBX 6 2 -8 -4
BITMAP
84
78
ENDCHAR
STARTCHAR 032F
ENCODING 815
SWIDTH 0 0
DWIDTH 0 0
BBX 6 2 -8 -4
BITMAP
78
84
ENDCHAR
STARTCHAR 0330
ENCODING 816
SWIDTH 0 0
DWIDTH 0 0
BBX 6 2 -8 -4
BITMAP
64
98
ENDCHAR
STARTCHAR 0331
ENCODING 817
SWIDTH 0 0
DWIDTH 0 0
BBX 5 1 -8 -3
BITMAP
F8
ENDCHAR
STARTCHAR 0332
ENCODING 818
SWIDTH 0 0
DWIDTH 0 0
BBX 10 1 -10 -5
BITMAP
FFC0
ENDCHAR
STARTCHAR 0333
ENCODING 819
SWIDTH 0 0
DWIDTH 0 0
BBX 10 4 -10 -8
BITMAP
FFC0
0000
0000
FFC0
ENDCHAR
STARTCHAR 0334
ENCODING 820
SWIDTH 0 0
DWIDTH 0 0
BBX 8 3 -9 3
BITMAP
61
99
86
ENDCHAR
STARTCHAR 0335
ENCODING 821
SWIDTH 0 0
DWIDTH 0 0
BBX 9 1 -10 4
BITMAP
FF80
ENDCHAR
STARTCHAR 0336
ENCODING 822
SWIDTH 0 0
DWIDTH 0 0
BBX 10 1 -10 4
BITMAP
FFC0
ENDCHAR
STARTCHAR 0337
ENCODING 823
SWIDTH 0 0
DWIDTH 0 0
BBX 10 9 -10 0
BITMAP
0040
0080
0100
0200
0C00
1000
2000
4000
8000
ENDCHAR
STARTCHAR 0338
ENCODING 824
SWIDTH 0 0
DWIDTH 0 0
BBX 9 16 -10 -2
BITMAP
0080
0100
0100
0200
0200
0400
0400
0800
0800
1000
1000
2000
2000
4000
4000
8000
ENDCHAR
STARTCHAR 0339
ENCODING 825
SWIDTH 0 0
DWIDTH 0 0
BBX 2 4 -6 -6
BITMAP
80
40
40
80
ENDCHAR
STARTCHAR 033A
ENCODING 826
SWIDTH 0 0
DWIDTH 0 0
BBX 5 3 -7 -5
BITMAP
88
88
F8
ENDCHAR
STARTCHAR 033B
ENCODING 827
SWIDTH 0 0
DWIDTH 0 0
BBX 5 3 -8 -5
BITMAP
F8
88
F8
ENDCHAR
STARTCHAR 033C
ENCODING 828
SWIDTH 0 0
DWIDTH 0 0
BBX 7 2 -9 -4
BITMAP
6C
92
ENDCHAR
STARTCHAR 033D
ENCODING 829
SWIDTH 0 0
DWIDTH 0 0
BBX 4 3 -7 11
BITMAP
90
60
90
ENDCHAR
STARTCHAR 033E
ENCODING 830
SWIDTH 0 0
DWIDTH 0 0
BBX 2 3 -6 11
BITMAP
80
C0
40
ENDCHAR
STARTCHAR 033F
ENCODING 831
SWIDTH 0 0
DWIDTH 0 0
BBX 10 3 -10 14
BITMAP
FFC0
0000
FFC0
ENDCHAR
STARTCHAR 0340
ENCODING 832
SWIDTH 0 0
DWIDTH 0 0
BBX 4 3 -11 13
BITMAP
C0
60
30
ENDCHAR
STARTCHAR 0341
ENCODING 833
SWIDTH 0 0
DWIDTH 0 0
BBX 4 3 -4 13
BITMAP
30
60
C0
ENDCHAR
STARTCHAR 0342
ENCODING 834
SWIDTH 0 0
DWIDTH 0 0
BBX 6 2 -8 11
BITMAP
64
98
ENDCHAR
STARTCHAR 0343
ENCODING 835
SWIDTH 0 0
DWIDTH 0 0
BBX 2 4 -6 10
BITMAP
C0
C0
40
80
ENDCHAR
STARTCHAR 0344
ENCODING 836
SWIDTH 0 0
DWIDTH 0 0
BBX 5 3 -7 11
BITMAP
20
20
A8
ENDCHAR
STARTCHAR 0345
ENCODING 837
SWIDTH 0 0
DWIDTH 0 0
BBX 2 2 -5 -3
BITMAP
80
C0
ENDCHAR
STARTCHAR 0374
ENCODING 884
SWIDTH 300 0
DWIDTH 5 0
BBX 3 5 1 7
BITMAP
20
40
40
40
80
ENDCHAR
STARTCHAR 0375
ENCODING 885
SWIDTH 300 0
DWIDTH 5 0
BBX 3 5 1 -3
BITMAP
20
40
40
40
80
ENDCHAR
STARTCHAR 037A
ENCODING 890
SWIDTH 600 0
DWIDTH 10 0
BBX 2 3 4 -4
BITMAP
80
80
40
ENDCHAR
STARTCHAR 037E
ENCODING 894
SWIDTH 300 0
DWIDTH 5 0
BBX 2 12 1 -3
BITMAP
40
40
00
00
00
00
00
40
40
40
40
80
ENDCHAR
STARTCHAR 0384
ENCODING 900
SWIDTH 600 0
DWIDTH 10 0
BBX 1 3 4 9
BITMAP
80
80
80
ENDCHAR
STARTCHAR 0385
ENCODING 901
SWIDTH 600 0
DWIDTH 10 0
BBX 5 3 2 9
BITMAP
20
20
A8
ENDCHAR
STARTCHAR 0386
ENCODING 902
SWIDTH 720 0
DWIDTH 12 0
BBX 11 12 0 0
BITMAP
8400
8400
8A00
0A00
1100
1100
1100
2080
3F80
4040
4040
8020
ENDCHAR
STARTCHAR 0387
ENCODING 903
SWIDTH 300 0
DWIDTH 5 0
BBX 2 2 1 4
BITMAP
C0
C0
ENDCHAR
STARTCHAR 0388
ENCODING 904
SWIDTH 660 0
DWIDTH 11 0
BBX 10 12 0 0
BITMAP
9FC0
9000
9000
1000
1000
1F80
1000
1000
1000
1000
1000
1FC0
ENDCHAR
STARTCHAR 0389
ENCODING 905
SWIDTH 840 0
DWIDTH 14 0
BBX 13 12 0 0
BITMAP
9008
9008
9008
1008
1008
1FF8
1008
1008
1008
1008
1008
1008
ENDCHAR
STARTCHAR 038A
ENCODING 906
SWIDTH 420 0
DWIDTH 7 0
BBX 4 12 1 0
BITMAP
90
90
90
10
10
10
10
10
10
10
10
10
ENDCHAR
STARTCHAR 038C
ENCODING 908
SWIDTH 900 0
DWIDTH 15 0
BBX 12 12 0 0
BITMAP
8780
9860
9020
2010
2010
2010
2010
2010
2010
1020
1860
0780
ENDCHAR
STARTCHAR 038E
ENCODING 910
SWIDTH 840 0
DWIDTH 14 0
BBX 12 12 2 0
BITMAP
E030
9040
8880
0500
0500
0200
0200
0200
0200
0200
0200
0200
ENDCHAR
STARTCHAR 038F
ENCODING 911
SWIDTH 900 0
DWIDTH 15 0
BBX 14 12 0 0
BITMAP
87E0
8810
9008
2004
2004
2004
2004
2004
1008
1008
0810
3C3C
ENDCHAR
STARTCHAR 0390
ENCODING 912
SWIDTH 360 0
DWIDTH 6 0
BBX 6 13 0 0
BITMAP
20
20
A8
00
20
20
20
20
20
20
20
20
1C
ENDCHAR
STARTCHAR 0391
ENCODING 913
SWIDTH 720 0
DWIDTH 12 0
BBX 11 12 0 0
BITMAP
0400
0400
0A00
0A00
1100
1100
1100
2080
3F80
4040
4040
8020
ENDCHAR
STARTCHAR 0392
ENCODING 914
SWIDTH 600 0
DWIDTH 10 0
BBX 7 12 1 0
BITMAP
F8
84
84
84
88
F0
8C
82
82
82
82
FC
ENDCHAR
STARTCHAR 0393
ENCODING 915
SWIDTH 540 0
DWIDTH 9 0
BBX 8 12 1 0
BITMAP
FF
80
80
80
80
80
80
80
80
80
80
80
ENDCHAR
STARTCHAR 0394
ENCODING 916
SWIDTH 720 0
DWIDTH 12 0
BBX 11 12 0 0
BITMAP
0400
0400
0A00
0A00
1100
1100
2080
2080
4040
4040
8020
FFE0
ENDCHAR
STARTCHAR 0395
ENCODING 917
SWIDTH 540 0
DWIDTH 9 0
BBX 7 12 1 0
BITMAP
FE
80
80
80
80
FC
80
80
80
80
80
FE
ENDCHAR
STARTCHAR 0396
ENCODING 918
SWIDTH 600 0
DWIDTH 10 0
BBX 7 12 1 0
BITMAP
FE
02
04
04
08
10
10
20
20
40
80
FE
ENDCHAR
STARTCHAR 0397
ENCODING 919
SWIDTH 780 0
DWIDTH 13 0
BBX 10 12 1 0
BITMAP
8040
8040
8040
8040
8040
FFC0
8040
8040
8040
8040
8040
8040
ENDCHAR
STARTCHAR 0398
ENCODING 920
SWIDTH 780 0
DWIDTH 13 0
BBX 10 12 1 0
BITMAP
1E00
2100
4080
8040
8040
9E40
8040
8040
8040
4080
2100
1E00
ENDCHAR
STARTCHAR 0399
ENCODING 921
SWIDTH 300 0
DWIDTH 5 0
BBX 1 12 2 0
BITMAP
80
80
80
80
80
80
80
80
80
80
80
80
ENDCHAR
STARTCHAR 039A
ENCODING 922
SWIDTH 660 0
DWIDTH 11 0
BBX 9 12 1 0
BITMAP
8200
8400
8800
9000
A000
E000
9000
8800
8400
8200
8100
8080
ENDCHAR
STARTCHAR 039B
ENCODING 923
SWIDTH 660 0
DWIDTH 11 0
BBX 11 12 0 0
BITMAP
0400
0400
0A00
0A00
1100
1100
2080
2080
2080
4040
4040
8020
ENDCHAR
STARTCHAR 039C
ENCODING 924
SWIDTH 900 0
DWIDTH 15 0
BBX 11 12 2 0
BITMAP
8020
C060
C060
A0A0
A0A0
9120
9120
8A20
8A20
8420
8420
8020
ENDCHAR
STARTCHAR 039D
ENCODING 925
SWIDTH 780 0
DWIDTH 13 0
BBX 10 12 1 0
BITMAP
C040
C040
A040
9040
9040
8840
8440
8240
8240
8140
80C0
80C0
ENDCHAR
STARTCHAR 039E
ENCODING 926
SWIDTH 660 0
DWIDTH 11 0
BBX 10 12 0 0
BITMAP
FFC0
0000
0000
0000
0000
7F80
0000
0000
0000
0000
0000
FFC0
ENDCHAR
STARTCHAR 039F
ENCODING 927
SWIDTH 780 0
DWIDTH 13 0
BBX 10 12 1 0
BITMAP
1E00
6180
4080
8040
8040
8040
8040
8040
8040
4080
6180
1E00
ENDCHAR
STARTCHAR 03A0
ENCODING 928
SWIDTH 780 0
DWIDTH 13 0
BBX 10 12 1 0
BITMAP
FFC0
8040
8040
8040
8040
8040
8040
8040
8040
8040
8040
8040
ENDCHAR
STARTCHAR 03A1
ENCODING 929
SWIDTH 540 0
DWIDTH 9 0
BBX 7 12 1 0
BITMAP
F8
84
82
82
82
84
F8
80
80
80
80
80
ENDCHAR
STARTCHAR 03A3
ENCODING 931
SWIDTH 600 0
DWIDTH 10 0
BBX 8 12 1 0
BITMAP
FF
40
20
10
08
04
08
10
20
40
80
FF
ENDCHAR
STARTCHAR 03A4
ENCODING 932
SWIDTH 660 0
DWIDTH 11 0
BBX 9 12 1 0
BITMAP
FF80
0800
0800
0800
0800
0800
0800
0800
0800
0800
0800
0800
ENDCHAR
STARTCHAR 03A5
ENCODING 933
SWIDTH 660 0
DWIDTH 11 0
BBX 11 12 0 0
BITMAP
C060
2080
1100
0A00
0A00
0400
0400
0400
0400
0400
0400
0400
ENDCHAR
STARTCHAR 03A6
ENCODING 934
SWIDTH 720 0
DWIDTH 12 0
BBX 11 12 0 0
BITMAP
0400
0400
3F80
4440
8420
8420
8420
8420
4440
3F80
0400
0400
ENDCHAR
STARTCHAR 03A7
ENCODING 935
SWIDTH 660 0
DWIDTH 11 0
BBX 10 12 0 0
BITMAP
8040
4080
2100
2100
1200
0C00
0C00
1200
1200
2100
4080
8040
ENDCHAR
STARTCHAR 03A8
ENCODING 936
SWIDTH 720 0
DWIDTH 12 0
BBX 11 12 0 0
BITMAP
8420
4440
2480
2480
2480
2480
1F00
0400
0400
0400
0400
0400
ENDCHAR
STARTCHAR 03A9
ENCODING 937
SWIDTH 840 0
DWIDTH 14 0
BBX 12 12 1 0
BITMAP
1F80
2040
4020
8010
8010
8010
8010
8010
4020
4020
2040
F0F0
ENDCHAR
STARTCHAR 03AA
ENCODING 938
SWIDTH 300 0
DWIDTH 5 0
BBX 4 14 1 0
BITMAP
90
00
40
40
40
40
40
40
40
40
40
40
40
40
ENDCHAR
STARTCHAR 03AB
ENCODING 939
SWIDTH 660 0
DWIDTH 11 0
BBX 11 14 0 0
BITMAP
0900
0000
C060
2080
1100
0A00
0A00
0400
0400
0400
0400
0400
0400
0400
ENDCHAR
STARTCHAR 03AC
ENCODING 940
SWIDTH 720 0
DWIDTH 12 0
BBX 10 13 1 0
BITMAP
0800
0800
0800
0000
3840
4480
8280
8100
8100
8100
8280
4480
38C0
ENDCHAR
STARTCHAR 03AD
ENCODING 941
SWIDTH 540 0
DWIDTH 9 0
BBX 7 13 1 0
BITMAP
08
08
08
00
3C
42
80
80
FC
80
80
42
3C
ENDCHAR
STARTCHAR 03AE
ENCODING 942
SWIDTH 660 0
DWIDTH 11 0
BBX 8 16 1 -3
BITMAP
08
08
08
00
8E
51
61
41
41
41
41
41
41
01
01
01
ENDCHAR
STARTCHAR 03AF
ENCODING 943
SWIDTH 360 0
DWIDTH 6 0
BBX 4 13 2 0
BITMAP
80
80
80
00
80
80
80
80
80
80
80
80
70
ENDCHAR
STARTCHAR 03B0
ENCODING 944
SWIDTH 600 0
DWIDTH 10 0
BBX 7 13 2 0
BITMAP
10
10
54
00
84
82
82
82
82
82
82
84
78
ENDCHAR
STARTCHAR 03B1
ENCODING 945
SWIDTH 720 0
DWIDTH 12 0
BBX 10 9 1 0
BITMAP
3840
4480
8280
8100
8100
8100
8280
4480
38C0
ENDCHAR
STARTCHAR 03B2
ENCODING 946
SWIDTH 600 0
DWIDTH 10 0
BBX 7 15 2 -3
BITMAP
78
44
84
84
88
B8
84
82
82
82
C4
B8
80
80
80
ENDCHAR
STARTCHAR 03B3
ENCODING 947
SWIDTH 600 0
DWIDTH 10 0
BBX 9 12 1 -3
BITMAP
8080
4100
2200
2200
1400
1400
0800
0800
0800
0800
0800
0800
ENDCHAR
STARTCHAR 03B4
ENCODING 948
SWIDTH 600 0
DWIDTH 10 0
BBX 8 12 1 0
BITMAP
7F
80
80
40
3C
62
81
81
81
81
42
3C
ENDCHAR
STARTCHAR 03B5
ENCODING 949
SWIDTH 540 0
DWIDTH 9 0
BBX 7 9 1 0
BITMAP
3C
42
80
80
FC
80
80
42
3C
ENDCHAR
STARTCHAR 03B6
ENCODING 950
SWIDTH 660 0
DWIDTH 11 0
BBX 10 15 1 -3
BITMAP
0040
8380
7C00
1000
2000
2000
4000
4000
4000
4000
2000
1F80
0040
0040
0780
ENDCHAR
STARTCHAR 03B7
ENCODING 951
SWIDTH 660 0
DWIDTH 11 0
BBX 8 12 1 -3
BITMAP
8E
51
61
41
41
41
41
41
41
01
01
01
ENDCHAR
STARTCHAR 03B8
ENCODING 952
SWIDTH 600 0
DWIDTH 10 0
BBX 8 12 1 0
BITMAP
3C
42
82
81
81
FF
81
81
81
42
42
3C
ENDCHAR
STARTCHAR 03B9
ENCODING 953
SWIDTH 360 0
DWIDTH 6 0
BBX 4 9 2 0
BITMAP
80
80
80
80
80
80
80
80
70
ENDCHAR
STARTCHAR 03BA
ENCODING 954
SWIDTH 540 0
DWIDTH 9 0
BBX 6 9 2 0
BITMAP
84
88
90
A0
C0
A0
90
88
84
ENDCHAR
STARTCHAR 03BB
ENCODING 955
SWIDTH 600 0
DWIDTH 10 0
BBX 9 12 0 0
BITMAP
4000
2000
1000
1000
0800
0800
1400
2200
2200
4100
4100
8080
ENDCHAR
STARTCHAR 03BC
ENCODING 956
SWIDTH 660 0
DWIDTH 11 0
BBX 7 12 2 -3
BITMAP
82
82
82
82
82
82
86
8A
F2
80
80
80
ENDCHAR
STARTCHAR 03BD
ENCODING 957
SWIDTH 540 0
DWIDTH 9 0
BBX 8 9 0 0
BITMAP
81
41
41
22
22
14
14
08
08
ENDCHAR
STARTCHAR 03BE
ENCODING 958
SWIDTH 600 0
DWIDTH 10 0
BBX 10 15 0 -3
BITMAP
8180
7F00
2000
2000
3000
1F80
2000
4000
4000
4000
2000
1F80
0040
0040
0780
ENDCHAR
STARTCHAR 03BF
ENCODING 959
SWIDTH 600 0
DWIDTH 10 0
BBX 8 9 1 0
BITMAP
3C
42
81
81
81
81
81
42
3C
ENDCHAR
STARTCHAR 03C0
ENCODING 960
SWIDTH 780 0
DWIDTH 13 0
BBX 12 9 0 0
BITMAP
7FF0
9040
1040
1040
1040
1040
1040
1040
1020
ENDCHAR
STARTCHAR 03C1
ENCODING 961
SWIDTH 600 0
DWIDTH 10 0
BBX 7 12 2 -3
BITMAP
38
44
82
82
82
82
82
84
F8
80
80
80
ENDCHAR
STARTCHAR 03C2
ENCODING 962
SWIDTH 600 0
DWIDTH 10 0
BBX 9 12 1 -3
BITMAP
1F00
2000
4000
8000
8000
8000
8000
4000
3F00
0080
0080
0F00
ENDCHAR
STARTCHAR 03C3
ENCODING 963
SWIDTH 720 0
DWIDTH 12 0
BBX 11 9 1 0
BITMAP
3FE0
4100
8080
8080
8080
8080
8080
4100
3E00
ENDCHAR
STARTCHAR 03C4
ENCODING 964
SWIDTH 540 0
DWIDTH 9 0
BBX 7 9 1 0
BITMAP
FE
10
10
10
10
10
10
10
08
ENDCHAR
STARTCHAR 03C5
ENCODING 965
SWIDTH 600 0
DWIDTH 10 0
BBX 7 9 2 0
BITMAP
84
82
82
82
82
82
82
84
78
ENDCHAR
STARTCHAR 03C6
ENCODING 966
SWIDTH 840 0
DWIDTH 14 0
BBX 11 12 1 -3
BITMAP
2380
4440
8420
8420
8420
8420
4440
2480
1F00
0400
0400
0400
ENDCHAR
STARTCHAR 03C7
ENCODING 967
SWIDTH 540 0
DWIDTH 9 0
BBX 9 12 0 -3
BITMAP
8100
4200
2200
2400
1800
0800
1800
1400
2200
4200
4100
8080
ENDCHAR
STARTCHAR 03C8
ENCODING 968
SWIDTH 780 0
DWIDTH 13 0
BBX 9 14 2 -3
BITMAP
0800
0800
8900
8880
8880
8880
8880
8880
8880
4900
3E00
0800
0800
0800
ENDCHAR
STARTCHAR 03C9
ENCODING 969
SWIDTH 900 0
DWIDTH 15 0
BBX 13 9 1 0
BITMAP
2020
4210
8208
8208
8208
8208
8208
4510
38E0
ENDCHAR
STARTCHAR 03CA
ENCODING 970
SWIDTH 360 0
DWIDTH 6 0
BBX 5 11 1 0
BITMAP
90
00
40
40
40
40
40
40
40
40
38
ENDCHAR
STARTCHAR 03CB
ENCODING 971
SWIDTH 600 0
DWIDTH 10 0
BBX 7 11 2 0
BITMAP
48
00
84
82
82
82
82
82
82
84
78
ENDCHAR
STARTCHAR 03CC
ENCODING 972
SWIDTH 600 0
DWIDTH 10 0
BBX 8 13 1 0
BITMAP
08
08
08
00
3C
42
81
81
81
81
81
42
3C
ENDCHAR
STARTCHAR 03CD
ENCODING 973
SWIDTH 600 0
DWIDTH 10 0
BBX 7 13 2 0
BITMAP
10
10
10
00
84
82
82
82
82
82
82
84
78
ENDCHAR
STARTCHAR 03CE
ENCODING 974
SWIDTH 900 0
DWIDTH 15 0
BBX 13 13 1 0
BITMAP
0200
0200
0200
0000
2020
4210
8208
8208
8208
8208
8208
4510
38E0
ENDCHAR
STARTCHAR 03D0
ENCODING 976
SWIDTH 540 0
DWIDTH 9 0
BBX 7 12 1 0
BITMAP
1C
22
42
82
C4
B8
BC
C2
82
82
44
38
ENDCHAR
STARTCHAR 03D1
ENCODING 977
SWIDTH 660 0
DWIDTH 11 0
BBX 10 12 1 0
BITMAP
3C00
4200
8200
8100
4100
3FC0
0100
0100
8100
4200
4400
3800
ENDCHAR
STARTCHAR 03D2
ENCODING 978
SWIDTH 660 0
DWIDTH 11 0
BBX 10 12 1 0
BITMAP
81C0
4200
2400
1400
1800
0800
0800
0800
0800
0800
0800
0800
ENDCHAR
STARTCHAR 03D3
ENCODING 979
SWIDTH 780 0
DWIDTH 13 0
BBX 13 12 0 0
BITMAP
9038
8840
8480
0280
0300
0100
0100
0100
0100
0100
0100
0100
ENDCHAR
STARTCHAR 03D4
ENCODING 980
SWIDTH 660 0
DWIDTH 11 0
BBX 10 14 1 0
BITMAP
1200
0000
81C0
4200
2400
1400
1800
0800
0800
0800
0800
0800
0800
0800
ENDCHAR
STARTCHAR 03D5
ENCODING 981
SWIDTH 780 0
DWIDTH 13 0
BBX 11 15 1 -3
BITMAP
0400
0400
0400
3F80
4440
8420
8420
8420
8420
8420
4440
3F80
0400
0400
0400
ENDCHAR
STARTCHAR 03D6
ENCODING 982
SWIDTH 900 0
DWIDTH 15 0
BBX 13 9 1 0
BITMAP
FFF8
2020
4210
4210
4210
4210
4210
2520
18C0
ENDCHAR
STARTCHAR 03DA
ENCODING 986
SWIDTH 660 0
DWIDTH 11 0
BBX 9 15 1 -3
BITMAP
0F80
1000
2000
4000
8000
8000
8000
8000
8000
8000
4000
3F00
0080
0080
0F00
ENDCHAR
STARTCHAR 03DC
ENCODING 988
SWIDTH 540 0
DWIDTH 9 0
BBX 7 12 1 0
BITMAP
FE
80
80
80
80
FC
80
80
80
80
80
80
ENDCHAR
STARTCHAR 03DE
ENCODING 990
SWIDTH 540 0
DWIDTH 9 0
BBX 7 12 1 0
BITMAP
20
20
40
40
40
80
FE
02
04
04
04
08
ENDCHAR
STARTCHAR 03E0
ENCODING 992
SWIDTH 660 0
DWIDTH 11 0
BBX 10 12 0 0
BITMAP
E000
1800
0600
0900
3080
4080
0340
0440
1840
0040
0040
0040
ENDCHAR
STARTCHAR 03E2
ENCODING 994
SWIDTH 900 0
DWIDTH 15 0
BBX 14 15 1 -3
BITMAP
4008
4208
8204
8204
8204
8204
8204
8204
8204
830C
470C
38F4
0008
0008
01F0
ENDCHAR
STARTCHAR 03E3
ENCODING 995
SWIDTH 900 0
DWIDTH 15 0
BBX 13 12 1 -3
BITMAP
2020
4210
8208
8208
8208
8208
8208
4518
38E8
0008
0010
03E0
ENDCHAR
STARTCHAR 03E4
ENCODING 996
SWIDTH 660 0
DWIDTH 11 0
BBX 8 12 1 0
BITMAP
41
81
81
81
81
81
43
3D
01
01
01
01
ENDCHAR
STARTCHAR 03E5
ENCODING 997
SWIDTH 600 0
DWIDTH 10 0
BBX 7 12 1 -3
BITMAP
42
82
82
82
82
82
82
46
3A
02
02
02
ENDCHAR
STARTCHAR 03E6
ENCODING 998
SWIDTH 660 0
DWIDTH 11 0
BBX 8 15 1 -3
BITMAP
80
80
BC
C2
81
81
81
81
81
81
81
81
02
04
78
ENDCHAR
STARTCHAR 03E7
ENCODING 999
SWIDTH 600 0
DWIDTH 10 0
BBX 7 12 2 -3
BITMAP
80
80
B8
C4
82
82
82
82
82
04
08
70
ENDCHAR
STARTCHAR 03E8
ENCODING 1000
SWIDTH 600 0
DWIDTH 10 0
BBX 8 12 1 0
BITMAP
7E
01
01
01
01
02
0C
30
C0
20
10
0F
ENDCHAR
STARTCHAR 03E9
ENCODING 1001
SWIDTH 480 0
DWIDTH 8 0
BBX 7 12 0 -3
BITMAP
7C
02
02
02
04
08
10
60
80
40
20
1E
ENDCHAR
STARTCHAR 03EA
ENCODING 1002
SWIDTH 660 0
DWIDTH 11 0
BBX 9 12 1 0
BITMAP
C100
2200
2400
1400
0800
1800
1400
2200
2200
4100
8080
FF80
ENDCHAR
STARTCHAR 03EB
ENCODING 1003
SWIDTH 600 0
DWIDTH 10 0
BBX 8 9 1 0
BITMAP
C1
22
24
18
18
24
42
81
FF
ENDCHAR
STARTCHAR 03EC
ENCODING 1004
SWIDTH 720 0
DWIDTH 12 0
BBX 9 12 1 0
BITMAP
1E00
2100
4000
9E00
A100
C080
8080
8080
8080
4080
2100
1E00
ENDCHAR
STARTCHAR 03ED
ENCODING 1005
SWIDTH 600 0
DWIDTH 10 0
BBX 8 12 1 0
BITMAP
1E
21
40
BC
C2
81
81
81
81
81
42
3C
ENDCHAR
STARTCHAR 03EE
ENCODING 1006
SWIDTH 660 0
DWIDTH 11 0
BBX 9 12 1 0
BITMAP
0800
0800
FF80
0800
0800
0800
0800
0800
0800
0800
0800
0800
ENDCHAR
STARTCHAR 03EF
ENCODING 1007
SWIDTH 540 0
DWIDTH 9 0
BBX 7 15 1 -3
BITMAP
10
10
10
FE
10
10
10
10
10
10
10
10
10
10
10
ENDCHAR
STARTCHAR 03F0
ENCODING 1008
SWIDTH 540 0
DWIDTH 9 0
BBX 9 9 0 0
BITMAP
C080
2180
2100
2200
3E00
2200
4200
C200
8180
ENDCHAR
STARTCHAR 03F1
ENCODING 1009
SWIDTH 600 0
DWIDTH 10 0
BBX 8 12 1 -3
BITMAP
3C
42
81
81
81
81
82
FC
80
40
40
3F
ENDCHAR
STARTCHAR 03F2
ENCODING 1010
SWIDTH 540 0
DWIDTH 9 0
BBX 7 9 1 0
BITMAP
3E
40
80
80
80
80
80
40
3E
ENDCHAR
STARTCHAR 03F3
ENCODING 1011
SWIDTH 300 0
DWIDTH 5 0
BBX 4 15 -1 -3
BITMAP
10
10
00
10
10
10
10
10
10
10
10
10
10
10
E0
ENDCHAR
STARTCHAR 0401
ENCODING 1025
SWIDTH 540 0
DWIDTH 9 0
BBX 7 14 1 0
BITMAP
24
00
FE
80
80
80
80
FC
80
80
80
80
80
FE
ENDCHAR
STARTCHAR 0402
ENCODING 1026
SWIDTH 780 0
DWIDTH 13 0
BBX 12 12 0 0
BITMAP
FF80
0800
0800
0800
0BC0
0C20
0810
0810
0810
0810
0820
09C0
ENDCHAR
STARTCHAR 0403
ENCODING 1027
SWIDTH 540 0
DWIDTH 9 0
BBX 8 16 1 0
BITMAP
04
08
10
00
FF
80
80
80
80
80
80
80
80
80
80
80
ENDCHAR
STARTCHAR 0404
ENCODING 1028
SWIDTH 720 0
DWIDTH 12 0
BBX 10 12 1 0
BITMAP
1F80
2040
4000
8000
8000
FF00
8000
8000
8000
4000
2040
1F80
ENDCHAR
STARTCHAR 0405
ENCODING 1029
SWIDTH 540 0
DWIDTH 9 0
BBX 7 12 1 0
BITMAP
78
84
80
80
40
30
0C
02
02
02
84
78
ENDCHAR
STARTCHAR 0406
ENCODING 1030
SWIDTH 300 0
DWIDTH 5 0
BBX 1 12 2 0
BITMAP
80
80
80
80
80
80
80
80
80
80
80
80
ENDCHAR
STARTCHAR 0407
ENCODING 1031
SWIDTH 300 0
DWIDTH 5 0
BBX 4 15 0 0
BITMAP
90
00
00
20
20
20
20
20
20
20
20
20
20
20
20
ENDCHAR
STARTCHAR 0408
ENCODING 1032
SWIDTH 300 0
DWIDTH 5 0
BBX 3 14 0 -2
BITMAP
20
20
20
20
20
20
20
20
20
20
20
20
20
C0
ENDCHAR
STARTCHAR 0409
ENCODING 1033
SWIDTH 960 0
DWIDTH 16 0
BBX 15 12 0 0
BITMAP
1F80
1080
1080
1080
1080
10F8
1084
1082
1082
2082
2084
C0F8
ENDCHAR
STARTCHAR 040A
ENCODING 1034
SWIDTH 960 0
DWIDTH 16 0
BBX 13 12 1 0
BITMAP
8200
8200
8200
8200
8200
FFE0
8210
8208
8208
8208
8210
83E0
ENDCHAR
STARTCHAR 040B
ENCODING 1035
SWIDTH 780 0
DWIDTH 13 0
BBX 12 12 0 0
BITMAP
FF80
0800
0800
0800
0BC0
0C20
0810
0810
0810
0810
0810
0810
ENDCHAR
STARTCHAR 040C
ENCODING 1036
SWIDTH 660 0
DWIDTH 11 0
BBX 9 17 1 0
BITMAP
0400
0800
1000
0000
0000
8100
8200
8400
8400
8800
F000
9800
8C00
8400
8200
8100
8080
ENDCHAR
STARTCHAR 040E
ENCODING 1038
SWIDTH 660 0
DWIDTH 11 0
BBX 10 16 1 0
BITMAP
2100
2100
1E00
0000
8040
4080
2080
2100
1100
0A00
0600
0400
0800
0800
1000
6000
ENDCHAR
STARTCHAR 040F
ENCODING 1039
SWIDTH 780 0
DWIDTH 13 0
BBX 9 14 1 -2
BITMAP
8080
8080
8080
8080
8080
8080
8080
8080
8080
8080
8080
FF80
0800
0800
ENDCHAR
STARTCHAR 0410
ENCODING 1040
SWIDTH 720 0
DWIDTH 12 0
BBX 11 12 0 0
BITMAP
0400
0400
0A00
0A00
1100
1100
1100
2080
3F80
4040
4040
8020
ENDCHAR
STARTCHAR 0411
ENCODING 1041
SWIDTH 600 0
DWIDTH 10 0
BBX 7 12 1 0
BITMAP
FC
80
80
80
80
F8
84
82
82
82
84
F8
ENDCHAR
STARTCHAR 0412
ENCODING 1042
SWIDTH 600 0
DWIDTH 10 0
BBX 7 12 1 0
BITMAP
F8
84
84
84
88
F0
8C
82
82
82
82
FC
ENDCHAR
STARTCHAR 0413
ENCODING 1043
SWIDTH 540 0
DWIDTH 9 0
BBX 8 12 1 0
BITMAP
FF
80
80
80
80
80
80
80
80
80
80
80
ENDCHAR
STARTCHAR 0414
ENCODING 1044
SWIDTH 780 0
DWIDTH 13 0
BBX 11 14 1 -2
BITMAP
0FC0
0840
0840
0840
0840
0840
1040
1040
2040
2040
4040
FFE0
8020
8020
ENDCHAR
STARTCHAR 0415
ENCODING 1045
SWIDTH 540 0
DWIDTH 9 0
BBX 7 12 1 0
BITMAP
FE
80
80
80
80
FC
80
80
80
80
80
FE
ENDCHAR
STARTCHAR 0416
ENCODING 1046
SWIDTH 840 0
DWIDTH 14 0
BBX 13 12 0 0
BITMAP
4210
2220
1240
1240
0A80
0F80
1240
2220
2220
4210
4210
8208
ENDCHAR
STARTCHAR 0417
ENCODING 1047
SWIDTH 540 0
DWIDTH 9 0
BBX 7 12 1 0
BITMAP
78
84
02
02
04
38
0C
02
02
02
84
78
ENDCHAR
STARTCHAR 0418
ENCODING 1048
SWIDTH 780 0
DWIDTH 13 0
BBX 10 12 1 0
BITMAP
8040
80C0
8140
8240
8240
8440
8840
9040
9040
A040
C040
8040
ENDCHAR
STARTCHAR 0419
ENCODING 1049
SWIDTH 780 0
DWIDTH 13 0
BBX 10 17 1 0
BITMAP
2100
2100
1E00
0000
0000
8040
80C0
8140
8240
8240
8440
8840
9040
9040
A040
C040
8040
ENDCHAR
STARTCHAR 041A
ENCODING 1050
SWIDTH 660 0
DWIDTH 11 0
BBX 9 12 1 0
BITMAP
8100
8200
8400
8400
8800
F000
9800
8C00
8400
8200
8100
8080
ENDCHAR
STARTCHAR 041B
ENCODING 1051
SWIDTH 720 0
DWIDTH 12 0
BBX 10 12 0 0
BITMAP
1FC0
1040
1040
1040
1040
1040
1040
1040
1040
2040
2040
C040
ENDCHAR
STARTCHAR 041C
ENCODING 1052
SWIDTH 900 0
DWIDTH 15 0
BBX 11 12 2 0
BITMAP
8020
C060
C060
A0A0
A0A0
9120
9120
8A20
8A20
8420
8420
8020
ENDCHAR
STARTCHAR 041D
ENCODING 1053
SWIDTH 780 0
DWIDTH 13 0
BBX 10 12 1 0
BITMAP
8040
8040
8040
8040
8040
FFC0
8040
8040
8040
8040
8040
8040
ENDCHAR
STARTCHAR 041E
ENCODING 1054
SWIDTH 780 0
DWIDTH 13 0
BBX 10 12 1 0
BITMAP
1E00
6180
4080
8040
8040
8040
8040
8040
8040
4080
6180
1E00
ENDCHAR
STARTCHAR 041F
ENCODING 1055
SWIDTH 780 0
DWIDTH 13 0
BBX 10 12 1 0
BITMAP
FFC0
8040
8040
8040
8040
8040
8040
8040
8040
8040
8040
8040
ENDCHAR
STARTCHAR 0420
ENCODING 1056
SWIDTH 540 0
DWIDTH 9 0
BBX 7 12 1 0
BITMAP
F8
84
82
82
82
84
F8
80
80
80
80
80
ENDCHAR
STARTCHAR 0421
ENCODING 1057
SWIDTH 720 0
DWIDTH 12 0
BBX 9 12 1 0
BITMAP
1F00
6080
4000
8000
8000
8000
8000
8000
8000
4000
6080
1F00
ENDCHAR
STARTCHAR 0422
ENCODING 1058
SWIDTH 660 0
DWIDTH 11 0
BBX 9 12 1 0
BITMAP
FF80
0800
0800
0800
0800
0800
0800
0800
0800
0800
0800
0800
ENDCHAR
STARTCHAR 0423
ENCODING 1059
SWIDTH 660 0
DWIDTH 11 0
BBX 10 12 1 0
BITMAP
8040
4080
2080
2100
1100
0A00
0600
0400
0800
0800
1000
6000
ENDCHAR
STARTCHAR 0424
ENCODING 1060
SWIDTH 720 0
DWIDTH 12 0
BBX 9 12 1 0
BITMAP
0800
0800
3E00
4900
8880
8880
8880
8880
4900
3E00
0800
0800
ENDCHAR
STARTCHAR 0425
ENCODING 1061
SWIDTH 660 0
DWIDTH 11 0
BBX 10 12 0 0
BITMAP
8040
4080
2100
2100
1200
0C00
0C00
1200
1200
2100
4080
8040
ENDCHAR
STARTCHAR 0426
ENCODING 1062
SWIDTH 780 0
DWIDTH 13 0
BBX 10 14 2 -2
BITMAP
8080
8080
8080
8080
8080
8080
8080
8080
8080
8080
8080
FFC0
0040
0040
ENDCHAR
STARTCHAR 0427
ENCODING 1063
SWIDTH 660 0
DWIDTH 11 0
BBX 8 12 1 0
BITMAP
81
81
81
81
81
43
3D
01
01
01
01
01
ENDCHAR
STARTCHAR 0428
ENCODING 1064
SWIDTH 960 0
DWIDTH 16 0
BBX 13 12 1 0
BITMAP
8208
8208
8208
8208
8208
8208
8208
8208
8208
8208
8208
FFF8
ENDCHAR
STARTCHAR 0429
ENCODING 1065
SWIDTH 1020 0
DWIDTH 17 0
BBX 14 14 1 -2
BITMAP
8208
8208
8208
8208
8208
8208
8208
8208
8208
8208
8208
FFFC
0004
0004
ENDCHAR
STARTCHAR 042A
ENCODING 1066
SWIDTH 720 0
DWIDTH 12 0
BBX 10 12 0 0
BITMAP
F000
1000
1000
1000
1000
1F00
1080
1040
1040
1040
1080
1F00
ENDCHAR
STARTCHAR 042B
ENCODING 1067
SWIDTH 840 0
DWIDTH 14 0
BBX 10 12 2 0
BITMAP
8040
8040
8040
8040
8040
F840
8440
8240
8240
8240
8440
F840
ENDCHAR
STARTCHAR 042C
ENCODING 1068
SWIDTH 600 0
DWIDTH 10 0
BBX 7 12 1 0
BITMAP
80
80
80
80
80
F8
84
82
82
82
84
F8
ENDCHAR
STARTCHAR 042D
ENCODING 1069
SWIDTH 720 0
DWIDTH 12 0
BBX 9 12 1 0
BITMAP
7C00
8200
0100
0080
0080
3F80
0080
0080
0080
0100
8200
7C00
ENDCHAR
STARTCHAR 042E
ENCODING 1070
SWIDTH 960 0
DWIDTH 16 0
BBX 13 12 1 0
BITMAP
83C0
8420
8810
9008
9008
F008
9008
9008
9008
8810
8420
83C0
ENDCHAR
STARTCHAR 042F
ENCODING 1071
SWIDTH 660 0
DWIDTH 11 0
BBX 8 12 1 0
BITMAP
1F
21
41
41
21
1F
09
11
21
21
41
81
ENDCHAR
STARTCHAR 0430
ENCODING 1072
SWIDTH 540 0
DWIDTH 9 0
BBX 7 9 1 0
BITMAP
38
44
04
04
7C
84
84
8C
76
ENDCHAR
STARTCHAR 0431
ENCODING 1073
SWIDTH 600 0
DWIDTH 10 0
BBX 8 12 1 0
BITMAP
3E
40
80
9C
A2
C1
81
81
81
81
42
3C
ENDCHAR
STARTCHAR 0432
ENCODING 1074
SWIDTH 540 0
DWIDTH 9 0
BBX 6 9 2 0
BITMAP
F8
84
84
84
F8
84
84
84
F8
ENDCHAR
STARTCHAR 0433
ENCODING 1075
SWIDTH 480 0
DWIDTH 8 0
BBX 5 9 2 0
BITMAP
F8
80
80
80
80
80
80
80
80
ENDCHAR
STARTCHAR 0434
ENCODING 1076
SWIDTH 660 0
DWIDTH 11 0
BBX 9 11 1 -2
BITMAP
1F00
1100
1100
1100
1100
2100
2100
4100
FF80
8080
8080
ENDCHAR
STARTCHAR 0435
ENCODING 1077
SWIDTH 540 0
DWIDTH 9 0
BBX 7 9 1 0
BITMAP
38
44
82
82
FE
80
80
42
3C
ENDCHAR
STARTCHAR 0436
ENCODING 1078
SWIDTH 720 0
DWIDTH 12 0
BBX 11 9 0 0
BITMAP
4440
2480
2480
1500
1F00
2480
4440
4440
8420
ENDCHAR
STARTCHAR 0437
ENCODING 1079
SWIDTH 480 0
DWIDTH 8 0
BBX 6 9 1 0
BITMAP
78
84
04
04
38
04
04
84
78
ENDCHAR
STARTCHAR 0438
ENCODING 1080
SWIDTH 660 0
DWIDTH 11 0
BBX 7 9 2 0
BITMAP
82
86
8A
8A
92
A2
A2
C2
82
ENDCHAR
STARTCHAR 0439
ENCODING 1081
SWIDTH 660 0
DWIDTH 11 0
BBX 7 14 2 0
BITMAP
84
84
78
00
00
82
86
8A
8A
92
A2
A2
C2
82
ENDCHAR
STARTCHAR 043A
ENCODING 1082
SWIDTH 600 0
DWIDTH 10 0
BBX 7 9 2 0
BITMAP
82
84
88
88
F0
90
88
84
86
ENDCHAR
STARTCHAR 043B
ENCODING 1083
SWIDTH 600 0
DWIDTH 10 0
BBX 7 9 1 0
BITMAP
3E
22
22
22
22
22
42
42
82
ENDCHAR
STARTCHAR 043C
ENCODING 1084
SWIDTH 720 0
DWIDTH 12 0
BBX 9 9 1 0
BITMAP
8080
C180
C180
A280
A280
9480
9480
8880
8080
ENDCHAR
STARTCHAR 043D
ENCODING 1085
SWIDTH 660 0
DWIDTH 11 0
BBX 7 9 2 0
BITMAP
82
82
82
82
FE
82
82
82
82
ENDCHAR
STARTCHAR 043E
ENCODING 1086
SWIDTH 600 0
DWIDTH 10 0
BBX 8 9 1 0
BITMAP
3C
42
81
81
81
81
81
42
3C
ENDCHAR
STARTCHAR 043F
ENCODING 1087
SWIDTH 660 0
DWIDTH 11 0
BBX 7 9 2 0
BITMAP
FE
82
82
82
82
82
82
82
82
ENDCHAR
STARTCHAR 0440
ENCODING 1088
SWIDTH 660 0
DWIDTH 11 0
BBX 8 12 2 -3
BITMAP
BC
C2
81
81
81
81
81
C2
BC
80
80
80
ENDCHAR
STARTCHAR 0441
ENCODING 1089
SWIDTH 540 0
DWIDTH 9 0
BBX 7 9 1 0
BITMAP
3C
42
80
80
80
80
80
42
3C
ENDCHAR
STARTCHAR 0442
ENCODING 1090
SWIDTH 480 0
DWIDTH 8 0
BBX 7 9 0 0
BITMAP
FE
10
10
10
10
10
10
10
10
ENDCHAR
STARTCHAR 0443
ENCODING 1091
SWIDTH 540 0
DWIDTH 9 0
BBX 9 12 0 -3
BITMAP
8080
4100
4100
2200
2200
1400
1400
0800
0800
1000
1000
6000
ENDCHAR
STARTCHAR 0444
ENCODING 1092
SWIDTH 780 0
DWIDTH 13 0
BBX 11 15 1 -3
BITMAP
0400
0400
0400
3F80
4440
8420
8420
8420
8420
8420
4440
3F80
0400
0400
0400
ENDCHAR
STARTCHAR 0445
ENCODING 1093
SWIDTH 600 0
DWIDTH 10 0
BBX 8 9 1 0
BITMAP
81
42
24
18
18
18
24
42
81
ENDCHAR
STARTCHAR 0446
ENCODING 1094
SWIDTH 660 0
DWIDTH 11 0
BBX 8 11 2 -2
BITMAP
82
82
82
82
82
82
82
82
FF
01
01
ENDCHAR
STARTCHAR 0447
ENCODING 1095
SWIDTH 540 0
DWIDTH 9 0
BBX 5 9 2 0
BITMAP
88
88
88
88
98
68
08
08
08
ENDCHAR
STARTCHAR 0448
ENCODING 1096
SWIDTH 840 0
DWIDTH 14 0
BBX 11 9 2 0
BITMAP
8420
8420
8420
8420
8420
8420
8420
8420
FFE0
ENDCHAR
STARTCHAR 0449
ENCODING 1097
SWIDTH 900 0
DWIDTH 15 0
BBX 12 11 2 -2
BITMAP
8420
8420
8420
8420
8420
8420
8420
8420
FFF0
0010
0010
ENDCHAR
STARTCHAR 044A
ENCODING 1098
SWIDTH 600 0
DWIDTH 10 0
BBX 9 9 0 0
BITMAP
F000
1000
1000
1000
1E00
1100
1080
1100
1E00
ENDCHAR
STARTCHAR 044B
ENCODING 1099
SWIDTH 720 0
DWIDTH 12 0
BBX 9 9 1 0
BITMAP
8080
8080
8080
8080
F080
8880
8480
8880
F080
ENDCHAR
STARTCHAR 044C
ENCODING 1100
SWIDTH 540 0
DWIDTH 9 0
BBX 6 9 2 0
BITMAP
80
80
80
80
F0
88
84
88
F0
ENDCHAR
STARTCHAR 044D
ENCODING 1101
SWIDTH 540 0
DWIDTH 9 0
BBX 7 9 1 0
BITMAP
78
84
02
02
3E
02
02
84
78
ENDCHAR
STARTCHAR 044E
ENCODING 1102
SWIDTH 840 0
DWIDTH 14 0
BBX 11 9 2 0
BITMAP
8780
8840
9020
9020
F020
9020
9020
8840
8780
ENDCHAR
STARTCHAR 044F
ENCODING 1103
SWIDTH 540 0
DWIDTH 9 0
BBX 7 9 0 0
BITMAP
1E
22
42
62
1E
12
22
42
82
ENDCHAR
STARTCHAR 0451
ENCODING 1105
SWIDTH 540 0
DWIDTH 9 0
BBX 7 12 1 0
BITMAP
24
00
00
38
44
82
82
FE
80
80
42
3C
ENDCHAR
STARTCHAR 0452
ENCODING 1106
SWIDTH 660 0
DWIDTH 11 0
BBX 9 15 0 -3
BITMAP
2000
2000
FC00
2000
2000
2F00
3080
2080
2080
2080
2080
2080
0080
0080
0700
ENDCHAR
STARTCHAR 0453
ENCODING 1107
SWIDTH 480 0
DWIDTH 8 0
BBX 5 14 2 0
BITMAP
10
20
40
00
00
F8
80
80
80
80
80
80
80
80
ENDCHAR
STARTCHAR 0454
ENCODING 1108
SWIDTH 540 0
DWIDTH 9 0
BBX 7 9 1 0
BITMAP
3C
42
80
80
F8
80
80
42
3C
ENDCHAR
STARTCHAR 0455
ENCODING 1109
SWIDTH 540 0
DWIDTH 9 0
BBX 5 9 2 0
BITMAP
78
80
80
40
30
08
08
08
F0
ENDCHAR
STARTCHAR 0456
ENCODING 1110
SWIDTH 300 0
DWIDTH 5 0
BBX 1 12 2 0
BITMAP
80
80
00
80
80
80
80
80
80
80
80
80
ENDCHAR
STARTCHAR 0457
ENCODING 1111
SWIDTH 300 0
DWIDTH 5 0
BBX 4 12 0 0
BITMAP
90
00
00
20
20
20
20
20
20
20
20
20
ENDCHAR
STARTCHAR 0458
ENCODING 1112
SWIDTH 300 0
DWIDTH 5 0
BBX 3 15 0 -3
BITMAP
20
20
00
20
20
20
20
20
20
20
20
20
20
20
C0
ENDCHAR
STARTCHAR 0459
ENCODING 1113
SWIDTH 780 0
DWIDTH 13 0
BBX 12 9 0 0
BITMAP
3E00
2200
2200
2200
23C0
2220
4210
4220
83C0
ENDCHAR
STARTCHAR 045A
ENCODING 1114
SWIDTH 840 0
DWIDTH 14 0
BBX 11 9 2 0
BITMAP
8200
8200
8200
8200
FFC0
8220
8220
8220
83C0
ENDCHAR
STARTCHAR 045B
ENCODING 1115
SWIDTH 660 0
DWIDTH 11 0
BBX 9 12 0 0
BITMAP
2000
2000
FC00
2000
2000
2F00
3080
2080
2080
2080
2080
2080
ENDCHAR
STARTCHAR 045C
ENCODING 1116
SWIDTH 600 0
DWIDTH 10 0
BBX 7 14 2 0
BITMAP
0C
18
30
00
00
82
84
88
88
F0
90
88
84
86
ENDCHAR
STARTCHAR 045E
ENCODING 1118
SWIDTH 540 0
DWIDTH 9 0
BBX 9 17 0 -3
BITMAP
2100
2100
1E00
0000
0000
8080
4100
4100
2200
2200
1400
1400
0800
0800
1000
1000
6000
ENDCHAR
STARTCHAR 045F
ENCODING 1119
SWIDTH 660 0
DWIDTH 11 0
BBX 7 11 2 -2
BITMAP
82
82
82
82
82
82
82
82
FE
10
10
ENDCHAR
STARTCHAR 0460
ENCODING 1120
SWIDTH 900 0
DWIDTH 15 0
BBX 13 12 1 0
BITMAP
4010
4210
8208
8208
8208
8208
8208
8208
8208
8508
4510
38E0
ENDCHAR
STARTCHAR 0461
ENCODING 1121
SWIDTH 720 0
DWIDTH 12 0
BBX 11 9 0 0
BITMAP
8420
8420
8420
8420
8420
8420
4A40
5140
2080
ENDCHAR
STARTCHAR 0462
ENCODING 1122
SWIDTH 660 0
DWIDTH 11 0
BBX 10 12 0 0
BITMAP
1000
1000
FE00
1000
1000
1F00
1080
1040
1040
1040
1080
1F00
ENDCHAR
STARTCHAR 0463
ENCODING 1123
SWIDTH 540 0
DWIDTH 9 0
BBX 8 12 0 0
BITMAP
20
20
20
F8
20
20
20
3C
22
21
22
3C
ENDCHAR
STARTCHAR 0464
ENCODING 1124
SWIDTH 780 0
DWIDTH 13 0
BBX 11 12 1 0
BITMAP
87C0
8820
9000
A000
A000
FF80
A000
A000
A000
9000
9820
87C0
ENDCHAR
STARTCHAR 0465
ENCODING 1125
SWIDTH 720 0
DWIDTH 12 0
BBX 9 9 2 0
BITMAP
8F00
9080
A000
A000
FE00
A000
A000
9080
8F00
ENDCHAR
STARTCHAR 0466
ENCODING 1126
SWIDTH 660 0
DWIDTH 11 0
BBX 9 12 0 0
BITMAP
0800
0800
1400
1400
1400
2200
2200
7F00
4900
8880
8880
8880
ENDCHAR
STARTCHAR 0467
ENCODING 1127
SWIDTH 600 0
DWIDTH 10 0
BBX 7 9 1 0
BITMAP
10
10
28
28
64
44
FE
92
92
ENDCHAR
STARTCHAR 0468
ENCODING 1128
SWIDTH 900 0
DWIDTH 15 0
BBX 13 12 1 0
BITMAP
8080
8080
8140
8140
8140
8220
8220
FFF0
8490
8888
8888
8888
ENDCHAR
STARTCHAR 0469
ENCODING 1129
SWIDTH 840 0
DWIDTH 14 0
BBX 11 9 2 0
BITMAP
8100
8100
8280
8280
8280
8440
FFC0
8920
8920
ENDCHAR
STARTCHAR 046A
ENCODING 1130
SWIDTH 840 0
DWIDTH 14 0
BBX 11 12 1 0
BITMAP
7FC0
2080
2080
1100
1100
0E00
1500
2480
2480
4440
4440
8420
ENDCHAR
STARTCHAR 046B
ENCODING 1131
SWIDTH 720 0
DWIDTH 12 0
BBX 9 9 1 0
BITMAP
FF80
8080
4100
2200
1C00
2A00
4900
4900
8880
ENDCHAR
STARTCHAR 046C
ENCODING 1132
SWIDTH 1080 0
DWIDTH 18 0
BBX 14 12 2 0
BITMAP
9FFC
9004
8808
8410
8220
8140
FFC0
82A0
8490
8890
8888
9084
ENDCHAR
STARTCHAR 046D
ENCODING 1133
SWIDTH 960 0
DWIDTH 16 0
BBX 14 9 2 0
BITMAP
8FF8
8410
8220
8140
FFC0
86B0
8888
8888
9084
ENDCHAR
STARTCHAR 046E
ENCODING 1134
SWIDTH 600 0
DWIDTH 10 0
BBX 8 18 0 -3
BITMAP
23
16
0C
7C
02
01
01
02
3C
02
01
01
01
02
7C
80
80
78
ENDCHAR
STARTCHAR 046F
ENCODING 1135
SWIDTH 540 0
DWIDTH 9 0
BBX 7 15 1 -3
BITMAP
44
28
10
7C
02
02
04
38
04
02
02
7C
80
80
78
ENDCHAR
STARTCHAR 0470
ENCODING 1136
SWIDTH 720 0
DWIDTH 12 0
BBX 11 12 0 0
BITMAP
8420
8440
8440
4440
4480
4480
4480
2480
1F00
0400
0400
0400
ENDCHAR
STARTCHAR 0471
ENCODING 1137
SWIDTH 720 0
DWIDTH 12 0
BBX 12 14 0 -3
BITMAP
0400
0400
8410
8420
4420
4420
4420
4440
4440
2440
1F80
0400
0400
0400
ENDCHAR
STARTCHAR 0472
ENCODING 1138
SWIDTH 780 0
DWIDTH 13 0
BBX 10 12 1 0
BITMAP
1E00
2100
4080
8040
8040
F840
87C0
8040
8040
4080
2100
1E00
ENDCHAR
STARTCHAR 0473
ENCODING 1139
SWIDTH 600 0
DWIDTH 10 0
BBX 8 9 1 0
BITMAP
3C
42
83
81
F1
8F
81
42
3C
ENDCHAR
STARTCHAR 0474
ENCODING 1140
SWIDTH 720 0
DWIDTH 12 0
BBX 12 12 0 0
BITMAP
8030
4020
4040
2040
1040
1080
0880
0980
0500
0500
0200
0200
ENDCHAR
STARTCHAR 0475
ENCODING 1141
SWIDTH 600 0
DWIDTH 10 0
BBX 10 9 0 0
BITMAP
8040
4080
4100
2100
2200
1600
1400
0800
0800
ENDCHAR
STARTCHAR 0476
ENCODING 1142
SWIDTH 720 0
DWIDTH 12 0
BBX 12 17 0 0
BITMAP
0900
0900
0480
0000
0000
8030
4020
4040
2040
1040
1080
0880
0980
0500
0500
0200
0200
ENDCHAR
STARTCHAR 0477
ENCODING 1143
SWIDTH 600 0
DWIDTH 10 0
BBX 10 14 0 0
BITMAP
2400
2400
1200
0000
0000
8040
4080
4100
2100
2200
1600
1400
0800
0800
ENDCHAR
STARTCHAR 0478
ENCODING 1144
SWIDTH 1200 0
DWIDTH 20 0
BBX 19 15 1 -3
BITMAP
1E0000
210000
408000
805020
804840
804880
804880
804500
804500
408300
210200
1E0200
000400
000400
000800
ENDCHAR
STARTCHAR 0479
ENCODING 1145
SWIDTH 1080 0
DWIDTH 18 0
BBX 17 12 1 -3
BITMAP
3C4080
422100
812200
812200
811400
811400
810C00
420800
3C0800
001000
001000
002000
ENDCHAR
STARTCHAR 047A
ENCODING 1146
SWIDTH 780 0
DWIDTH 13 0
BBX 11 16 1 -2
BITMAP
0400
0400
1F00
2480
4040
8020
8020
8020
8020
8020
8020
4040
2480
1F00
0400
0400
ENDCHAR
STARTCHAR 047B
ENCODING 1147
SWIDTH 600 0
DWIDTH 10 0
BBX 9 13 0 -2
BITMAP
0800
0800
3E00
4900
8080
8080
8080
8080
8080
4900
3E00
0800
0800
ENDCHAR
STARTCHAR 047C
ENCODING 1148
SWIDTH 900 0
DWIDTH 15 0
BBX 13 19 1 0
BITMAP
0100
0100
1F00
1000
1000
0000
0000
4010
4210
8208
8208
8208
8208
8208
8208
8208
8508
4510
38E0
ENDCHAR
STARTCHAR 047D
ENCODING 1149
SWIDTH 720 0
DWIDTH 12 0
BBX 11 16 0 0
BITMAP
0200
0200
3E00
2000
2000
0000
0000
8420
8420
8420
8420
8420
8420
4A40
5140
2080
ENDCHAR
STARTCHAR 047E
ENCODING 1150
SWIDTH 900 0
DWIDTH 15 0
BBX 13 17 1 0
BITMAP
1FC0
1240
1240
0000
0000
4010
4210
8208
8208
8208
8208
8208
8208
8208
8508
4510
38E0
ENDCHAR
STARTCHAR 047F
ENCODING 1151
SWIDTH 720 0
DWIDTH 12 0
BBX 11 14 0 0
BITMAP
1FC0
1240
1240
0000
0000
8420
8420
8420
8420
8420
8420
4A40
5140
2080
ENDCHAR
STARTCHAR 0480
ENCODING 1152
SWIDTH 660 0
DWIDTH 11 0
BBX 9 12 1 0
BITMAP
1F00
6080
4000
8000
8000
8000
8000
4000
6080
1F80
0080
0080
ENDCHAR
STARTCHAR 0481
ENCODING 1153
SWIDTH 480 0
DWIDTH 8 0
BBX 6 9 1 0
BITMAP
3C
40
80
80
80
44
3C
04
04
ENDCHAR
STARTCHAR 0482
ENCODING 1154
SWIDTH 660 0
DWIDTH 11 0
BBX 9 12 1 0
BITMAP
0080
0100
1900
0E00
0600
0980
C800
3000
3800
4C00
4000
8000
ENDCHAR
STARTCHAR 0483
ENCODING 1155
SWIDTH 600 0
DWIDTH 10 0
BBX 5 5 2 11
BITMAP
08
08
F8
80
80
ENDCHAR
STARTCHAR 0484
ENCODING 1156
SWIDTH 600 0
DWIDTH 10 0
BBX 5 2 2 11
BITMAP
78
88
ENDCHAR
STARTCHAR 0485
ENCODING 1157
SWIDTH 600 0
DWIDTH 10 0
BBX 5 5 2 11
BITMAP
80
80
F8
80
80
ENDCHAR
STARTCHAR 0486
ENCODING 1158
SWIDTH 600 0
DWIDTH 10 0
BBX 5 5 2 11
BITMAP
08
08
F8
08
08
ENDCHAR
STARTCHAR 0490
ENCODING 1168
SWIDTH 540 0
DWIDTH 9 0
BBX 8 14 1 0
BITMAP
01
01
FF
80
80
80
80
80
80
80
80
80
80
80
ENDCHAR
STARTCHAR 0491
ENCODING 1169
SWIDTH 480 0
DWIDTH 8 0
BBX 6 11 2 0
BITMAP
04
04
FC
80
80
80
80
80
80
80
80
ENDCHAR
STARTCHAR 0492
ENCODING 1170
SWIDTH 600 0
DWIDTH 10 0
BBX 8 12 1 0
BITMAP
3F
20
20
20
20
FE
20
20
20
20
20
20
ENDCHAR
STARTCHAR 0493
ENCODING 1171
SWIDTH 480 0
DWIDTH 8 0
BBX 6 9 1 0
BITMAP
7C
40
40
40
F8
40
40
40
40
ENDCHAR
STARTCHAR 0494
ENCODING 1172
SWIDTH 660 0
DWIDTH 11 0
BBX 8 14 1 -2
BITMAP
FE
80
80
80
80
BC
C2
81
81
81
81
81
02
1C
ENDCHAR
STARTCHAR 0495
ENCODING 1173
SWIDTH 540 0
DWIDTH 9 0
BBX 7 11 1 -2
BITMAP
FC
80
80
80
B8
C4
82
82
82
04
18
ENDCHAR
STARTCHAR 0496
ENCODING 1174
SWIDTH 900 0
DWIDTH 15 0
BBX 14 14 0 -2
BITMAP
4210
2220
1240
1240
0A80
0F80
1240
2220
4210
4210
4210
820C
0004
0004
ENDCHAR
STARTCHAR 0497
ENCODING 1175
SWIDTH 780 0
DWIDTH 13 0
BBX 12 11 0 -2
BITMAP
4440
2480
2480
1500
1F00
2480
4440
4440
8430
0010
0010
ENDCHAR
STARTCHAR 0498
ENCODING 1176
SWIDTH 540 0
DWIDTH 9 0
BBX 7 16 1 -4
BITMAP
78
84
02
02
04
38
0C
02
02
02
84
78
00
30
08
30
ENDCHAR
STARTCHAR 0499
ENCODING 1177
SWIDTH 480 0
DWIDTH 8 0
BBX 6 13 1 -4
BITMAP
78
84
04
04
38
04
04
84
78
00
60
10
60
ENDCHAR
STARTCHAR 049A
ENCODING 1178
SWIDTH 720 0
DWIDTH 12 0
BBX 10 14 1 -2
BITMAP
8080
8100
8200
8200
8400
F800
9800
8400
8200
8200
8100
80C0
0040
0040
ENDCHAR
STARTCHAR 049B
ENCODING 1179
SWIDTH 600 0
DWIDTH 10 0
BBX 7 11 2 -2
BITMAP
84
88
90
90
E0
A0
90
88
86
02
02
ENDCHAR
STARTCHAR 049C
ENCODING 1180
SWIDTH 780 0
DWIDTH 13 0
BBX 11 12 1 0
BITMAP
80C0
8100
9100
9200
9400
FC00
9400
9200
9100
8080
8040
8020
ENDCHAR
STARTCHAR 049D
ENCODING 1181
SWIDTH 660 0
DWIDTH 11 0
BBX 8 9 2 0
BITMAP
82
A4
A4
A8
F0
A8
A4
A2
81
ENDCHAR
STARTCHAR 049E
ENCODING 1182
SWIDTH 660 0
DWIDTH 11 0
BBX 10 12 0 0
BITMAP
2180
FA00
2200
2400
2400
3800
2400
2200
2100
2100
2080
2040
ENDCHAR
STARTCHAR 049F
ENCODING 1183
SWIDTH 600 0
DWIDTH 10 0
BBX 10 12 0 0
BITMAP
2000
2000
FC00
2040
2080
2100
2100
3E00
2600
2100
2080
2040
ENDCHAR
STARTCHAR 04A0
ENCODING 1184
SWIDTH 780 0
DWIDTH 13 0
BBX 11 12 0 0
BITMAP
F0C0
1100
1100
1200
1200
1C00
1200
1100
1080
1080
1040
1020
ENDCHAR
STARTCHAR 04A1
ENCODING 1185
SWIDTH 660 0
DWIDTH 11 0
BBX 10 9 0 0
BITMAP
F080
1100
1200
1200
1C00
1200
1100
1080
1040
ENDCHAR
STARTCHAR 04A2
ENCODING 1186
SWIDTH 780 0
DWIDTH 13 0
BBX 10 14 2 -2
BITMAP
8080
8080
8080
8080
8080
FF80
8080
8080
8080
8080
8080
80C0
0040
0040
ENDCHAR
STARTCHAR 04A3
ENCODING 1187
SWIDTH 660 0
DWIDTH 11 0
BBX 8 11 2 -2
BITMAP
82
82
82
82
FE
82
82
82
83
01
01
ENDCHAR
STARTCHAR 04A4
ENCODING 1188
SWIDTH 840 0
DWIDTH 14 0
BBX 11 12 2 0
BITMAP
81E0
8100
8100
8100
8100
FF00
8100
8100
8100
8100
8100
8100
ENDCHAR
STARTCHAR 04A5
ENCODING 1189
SWIDTH 720 0
DWIDTH 12 0
BBX 10 9 1 0
BITMAP
83C0
8200
8200
8200
FE00
8200
8200
8200
8200
ENDCHAR
STARTCHAR 04A6
ENCODING 1190
SWIDTH 1020 0
DWIDTH 17 0
BBX 15 14 1 -2
BITMAP
FF00
8100
8100
8100
8100
8178
8184
8102
8102
8102
8102
8102
0004
0038
ENDCHAR
STARTCHAR 04A7
ENCODING 1191
SWIDTH 900 0
DWIDTH 15 0
BBX 12 11 2 -2
BITMAP
FE00
8200
8200
8200
82E0
8310
8210
8210
8210
0020
00C0
ENDCHAR
STARTCHAR 04A8
ENCODING 1192
SWIDTH 780 0
DWIDTH 13 0
BBX 12 14 1 -2
BITMAP
1F00
2000
4180
8240
8420
8420
8420
8420
8440
4240
2280
1F80
00C0
0030
ENDCHAR
STARTCHAR 04A9
ENCODING 1193
SWIDTH 660 0
DWIDTH 11 0
BBX 10 11 1 -2
BITMAP
3C00
4000
8700
8880
8880
8880
8880
4500
3E00
0300
00C0
ENDCHAR
STARTCHAR 04AA
ENCODING 1194
SWIDTH 720 0
DWIDTH 12 0
BBX 9 16 1 -4
BITMAP
1F00
6080
4000
8000
8000
8000
8000
8000
8000
4000
6080
1F00
0000
0C00
0200
0C00
ENDCHAR
STARTCHAR 04AB
ENCODING 1195
SWIDTH 540 0
DWIDTH 9 0
BBX 7 13 1 -4
BITMAP
3C
42
80
80
80
80
80
42
3C
00
18
04
18
ENDCHAR
STARTCHAR 04AC
ENCODING 1196
SWIDTH 660 0
DWIDTH 11 0
BBX 11 14 0 -2
BITMAP
FFE0
0400
0400
0400
0400
0400
0400
0400
0400
0400
0400
0600
0200
0200
ENDCHAR
STARTCHAR 04AD
ENCODING 1197
SWIDTH 480 0
DWIDTH 8 0
BBX 7 11 0 -2
BITMAP
FE
10
10
10
10
10
10
10
18
08
08
ENDCHAR
STARTCHAR 04AE
ENCODING 1198
SWIDTH 660 0
DWIDTH 11 0
BBX 9 12 1 0
BITMAP
8080
4100
2200
2200
1400
0800
0800
0800
0800
0800
0800
0800
ENDCHAR
STARTCHAR 04AF
ENCODING 1199
SWIDTH 480 0
DWIDTH 8 0
BBX 7 9 0 0
BITMAP
82
44
28
28
10
10
10
10
10
ENDCHAR
STARTCHAR 04B0
ENCODING 1200
SWIDTH 660 0
DWIDTH 11 0
BBX 9 12 1 0
BITMAP
8080
4100
2200
2200
1400
0C00
0800
0800
7F00
0800
0800
0800
ENDCHAR
STARTCHAR 04B1
ENCODING 1201
SWIDTH 480 0
DWIDTH 8 0
BBX 7 9 0 0
BITMAP
82
44
28
28
10
10
7C
10
10
ENDCHAR
STARTCHAR 04B2
ENCODING 1202
SWIDTH 660 0
DWIDTH 11 0
BBX 11 14 0 -2
BITMAP
8020
4040
2080
1100
0A00
0400
0600
0900
1080
2040
4060
8020
0020
0020
ENDCHAR
STARTCHAR 04B3
ENCODING 1203
SWIDTH 660 0
DWIDTH 11 0
BBX 8 11 1 -2
BITMAP
81
42
24
18
10
18
24
42
83
01
01
ENDCHAR
STARTCHAR 04B4
ENCODING 1204
SWIDTH 900 0
DWIDTH 15 0
BBX 14 14 0 -2
BITMAP
FF88
0808
0808
0808
0808
0808
0808
0808
0808
0808
0808
0FFC
0004
0004
ENDCHAR
STARTCHAR 04B5
ENCODING 1205
SWIDTH 720 0
DWIDTH 12 0
BBX 10 11 1 -2
BITMAP
F880
2080
2080
2080
2080
2080
2080
2080
3FC0
0040
0040
ENDCHAR
STARTCHAR 04B6
ENCODING 1206
SWIDTH 660 0
DWIDTH 11 0
BBX 9 14 1 -2
BITMAP
8100
8100
8100
8100
8100
4300
3D00
0100
0100
0100
0100
0180
0080
0080
ENDCHAR
STARTCHAR 04B7
ENCODING 1207
SWIDTH 540 0
DWIDTH 9 0
BBX 7 11 1 -2
BITMAP
84
84
84
84
8C
74
04
04
06
02
02
ENDCHAR
STARTCHAR 04B8
ENCODING 1208
SWIDTH 660 0
DWIDTH 11 0
BBX 8 12 1 0
BITMAP
81
81
81
89
89
CB
7D
09
09
09
01
01
ENDCHAR
STARTCHAR 04B9
ENCODING 1209
SWIDTH 540 0
DWIDTH 9 0
BBX 6 9 1 0
BITMAP
84
84
84
94
94
7C
14
14
04
ENDCHAR
STARTCHAR 04BA
ENCODING 1210
SWIDTH 660 0
DWIDTH 11 0
BBX 8 12 1 0
BITMAP
80
80
80
80
BC
C2
81
81
81
81
81
81
ENDCHAR
STARTCHAR 04BB
ENCODING 1211
SWIDTH 540 0
DWIDTH 9 0
BBX 6 9 2 0
BITMAP
80
80
80
B8
C4
84
84
84
84
ENDCHAR
STARTCHAR 04BC
ENCODING 1212
SWIDTH 840 0
DWIDTH 14 0
BBX 13 12 0 0
BITMAP
03E0
0410
8808
9008
9008
7FF8
1000
1000
1000
0800
0408
03F0
ENDCHAR
STARTCHAR 04BD
ENCODING 1213
SWIDTH 720 0
DWIDTH 12 0
BBX 11 9 0 0
BITMAP
0380
8440
8820
8820
7FE0
0800
0800
0420
03C0
ENDCHAR
STARTCHAR 04BE
ENCODING 1214
SWIDTH 840 0
DWIDTH 14 0
BBX 13 15 0 -3
BITMAP
03E0
0410
8808
9008
9008
7FF8
1000
1000
1000
0800
0408
03F0
0000
0100
01C0
ENDCHAR
STARTCHAR 04BF
ENCODING 1215
SWIDTH 720 0
DWIDTH 12 0
BBX 11 12 0 -3
BITMAP
0380
8440
8820
8820
7FE0
0800
0800
0420
03C0
0000
0200
0380
ENDCHAR
STARTCHAR 04C0
ENCODING 1216
SWIDTH 300 0
DWIDTH 5 0
BBX 1 12 2 0
BITMAP
80
80
80
80
80
80
80
80
80
80
80
80
ENDCHAR
STARTCHAR 04C1
ENCODING 1217
SWIDTH 840 0
DWIDTH 14 0
BBX 13 17 0 0
BITMAP
0840
0840
0780
0000
0000
4210
2220
1240
1240
0A80
0F80
1240
2220
2220
4210
4210
8208
ENDCHAR
STARTCHAR 04C2
ENCODING 1218
SWIDTH 720 0
DWIDTH 12 0
BBX 11 14 0 0
BITMAP
1080
1080
0F00
0000
0000
4440
2480
2480
1500
1F00
2480
4440
4440
8420
ENDCHAR
STARTCHAR 04C3
ENCODING 1219
SWIDTH 660 0
DWIDTH 11 0
BBX 8 14 1 -2
BITMAP
83
84
84
88
88
F0
8C
82
81
81
81
81
02
0C
ENDCHAR
STARTCHAR 04C4
ENCODING 1220
SWIDTH 540 0
DWIDTH 9 0
BBX 6 11 2 -2
BITMAP
84
88
90
90
E0
98
84
84
84
04
18
ENDCHAR
STARTCHAR 04C7
ENCODING 1223
SWIDTH 780 0
DWIDTH 13 0
BBX 10 15 1 -3
BITMAP
8040
8040
8040
8040
8040
FFC0
8040
8040
8040
8040
8040
8040
0040
0040
0380
ENDCHAR
STARTCHAR 04C8
ENCODING 1224
SWIDTH 660 0
DWIDTH 11 0
BBX 7 12 2 -3
BITMAP
82
82
82
82
FE
82
82
82
82
02
02
1C
ENDCHAR
STARTCHAR 04CB
ENCODING 1227
SWIDTH 660 0
DWIDTH 11 0
BBX 8 14 1 -2
BITMAP
81
81
81
81
81
43
3D
01
01
01
01
03
02
02
ENDCHAR
STARTCHAR 04CC
ENCODING 1228
SWIDTH 540 0
DWIDTH 9 0
BBX 5 11 2 -2
BITMAP
88
88
88
88
98
68
08
08
18
10
10
ENDCHAR
STARTCHAR 04D0
ENCODING 1232
SWIDTH 720 0
DWIDTH 12 0
BBX 11 17 0 0
BITMAP
1080
1080
0F00
0000
0000
0400
0400
0A00
0A00
1100
1100
1100
2080
3F80
4040
4040
8020
ENDCHAR
STARTCHAR 04D1
ENCODING 1233
SWIDTH 540 0
DWIDTH 9 0
BBX 7 14 1 0
BITMAP
84
84
78
00
00
38
44
04
04
7C
84
84
8C
76
ENDCHAR
STARTCHAR 04D2
ENCODING 1234
SWIDTH 720 0
DWIDTH 12 0
BBX 11 15 0 0
BITMAP
0900
0000
0000
0400
0400
0A00
0A00
1100
1100
1100
2080
3F80
4040
4040
8020
ENDCHAR
STARTCHAR 04D3
ENCODING 1235
SWIDTH 540 0
DWIDTH 9 0
BBX 7 12 1 0
BITMAP
24
00
00
38
44
04
04
7C
84
84
8C
76
ENDCHAR
STARTCHAR 04D4
ENCODING 1236
SWIDTH 900 0
DWIDTH 15 0
BBX 14 12 0 0
BITMAP
01FC
0300
0500
0500
0900
09F8
1100
2100
3F00
4100
4100
81FC
ENDCHAR
STARTCHAR 04D5
ENCODING 1237
SWIDTH 840 0
DWIDTH 14 0
BBX 12 9 1 0
BITMAP
39C0
4620
0410
0410
7FF0
8400
8400
8A10
71E0
ENDCHAR
STARTCHAR 04D6
ENCODING 1238
SWIDTH 540 0
DWIDTH 9 0
BBX 7 17 1 0
BITMAP
42
42
3C
00
00
FE
80
80
80
80
FC
80
80
80
80
80
FE
ENDCHAR
STARTCHAR 04D7
ENCODING 1239
SWIDTH 540 0
DWIDTH 9 0
BBX 7 14 1 0
BITMAP
42
42
3C
00
00
38
44
82
82
FE
80
80
42
3C
ENDCHAR
STARTCHAR 04D8
ENCODING 1240
SWIDTH 720 0
DWIDTH 12 0
BBX 9 12 1 0
BITMAP
7C00
8200
0100
0080
0080
FF80
8080
8080
8080
4100
4200
3C00
ENDCHAR
STARTCHAR 04D9
ENCODING 1241
SWIDTH 540 0
DWIDTH 9 0
BBX 7 9 1 0
BITMAP
78
84
02
02
FE
82
82
44
38
ENDCHAR
STARTCHAR 04DA
ENCODING 1242
SWIDTH 720 0
DWIDTH 12 0
BBX 9 15 1 0
BITMAP
2400
0000
0000
7C00
8200
0100
0080
0080
FF80
8080
8080
8080
4100
4200
3C00
ENDCHAR
STARTCHAR 04DB
ENCODING 1243
SWIDTH 540 0
DWIDTH 9 0
BBX 7 11 1 0
BITMAP
48
00
78
84
02
02
FE
82
82
44
38
ENDCHAR
STARTCHAR 04DC
ENCODING 1244
SWIDTH 840 0
DWIDTH 14 0
BBX 13 15 0 0
BITMAP
0480
0000
0000
4210
2220
1240
1240
0A80
0F80
1240
2220
2220
4210
4210
8208
ENDCHAR
STARTCHAR 04DD
ENCODING 1245
SWIDTH 720 0
DWIDTH 12 0
BBX 11 12 0 0
BITMAP
0900
0000
0000
4440
2480
2480
1500
1F00
2480
4440
4440
8420
ENDCHAR
STARTCHAR 04DE
ENCODING 1246
SWIDTH 540 0
DWIDTH 9 0
BBX 7 15 1 0
BITMAP
48
00
00
78
84
02
02
04
38
0C
02
02
02
84
78
ENDCHAR
STARTCHAR 04DF
ENCODING 1247
SWIDTH 480 0
DWIDTH 8 0
BBX 6 12 1 0
BITMAP
90
00
00
78
84
04
04
38
04
04
84
78
ENDCHAR
STARTCHAR 04E0
ENCODING 1248
SWIDTH 600 0
DWIDTH 10 0
BBX 7 12 1 0
BITMAP
FE
06
08
10
20
78
04
02
02
02
84
78
ENDCHAR
STARTCHAR 04E1
ENCODING 1249
SWIDTH 540 0
DWIDTH 9 0
BBX 6 12 1 -3
BITMAP
FC
08
10
20
40
70
08
04
04
04
88
70
ENDCHAR
STARTCHAR 04E2
ENCODING 1250
SWIDTH 780 0
DWIDTH 13 0
BBX 10 15 1 0
BITMAP
3E00
0000
0000
8040
80C0
8140
8240
8240
8440
8840
9040
9040
A040
C040
8040
ENDCHAR
STARTCHAR 04E3
ENCODING 1251
SWIDTH 660 0
DWIDTH 11 0
BBX 7 12 2 0
BITMAP
F8
00
00
82
86
8A
8A
92
A2
A2
C2
82
ENDCHAR
STARTCHAR 04E4
ENCODING 1252
SWIDTH 780 0
DWIDTH 13 0
BBX 10 15 1 0
BITMAP
1200
0000
0000
8040
80C0
8140
8240
8240
8440
8840
9040
9040
A040
C040
8040
ENDCHAR
STARTCHAR 04E5
ENCODING 1253
SWIDTH 660 0
DWIDTH 11 0
BBX 7 12 2 0
BITMAP
48
00
00
82
86
8A
8A
92
A2
A2
C2
82
ENDCHAR
STARTCHAR 04E6
ENCODING 1254
SWIDTH 780 0
DWIDTH 13 0
BBX 10 15 1 0
BITMAP
1200
0000
0000
1E00
6180
4080
8040
8040
8040
8040
8040
8040
4080
6180
1E00
ENDCHAR
STARTCHAR 04E7
ENCODING 1255
SWIDTH 600 0
DWIDTH 10 0
BBX 8 12 1 0
BITMAP
24
00
00
3C
42
81
81
81
81
81
42
3C
ENDCHAR
STARTCHAR 04E8
ENCODING 1256
SWIDTH 780 0
DWIDTH 13 0
BBX 10 12 1 0
BITMAP
1E00
6180
4080
8040
8040
FFC0
8040
8040
8040
4080
6180
1E00
ENDCHAR
STARTCHAR 04E9
ENCODING 1257
SWIDTH 600 0
DWIDTH 10 0
BBX 8 9 1 0
BITMAP
3C
42
81
81
FF
81
81
42
3C
ENDCHAR
STARTCHAR 04EA
ENCODING 1258
SWIDTH 780 0
DWIDTH 13 0
BBX 10 15 1 0
BITMAP
1200
0000
0000
1E00
6180
4080
8040
8040
FFC0
8040
8040
8040
4080
6180
1E00
ENDCHAR
STARTCHAR 04EB
ENCODING 1259
SWIDTH 600 0
DWIDTH 10 0
BBX 8 12 1 0
BITMAP
24
00
00
3C
42
81
81
FF
81
81
42
3C
ENDCHAR
STARTCHAR 04EE
ENCODING 1262
SWIDTH 660 0
DWIDTH 11 0
BBX 10 15 1 0
BITMAP
3E00
0000
0000
8040
4080
2080
2100
1100
0A00
0600
0400
0800
0800
1000
6000
ENDCHAR
STARTCHAR 04EF
ENCODING 1263
SWIDTH 540 0
DWIDTH 9 0
BBX 9 15 0 -3
BITMAP
3E00
0000
0000
8080
4100
4100
2200
2200
1400
1400
0800
0800
1000
1000
6000
ENDCHAR
STARTCHAR 04F0
ENCODING 1264
SWIDTH 660 0
DWIDTH 11 0
BBX 10 15 1 0
BITMAP
1200
0000
0000
8040
4080
2080
2100
1100
0A00
0600
0400
0800
0800
1000
6000
ENDCHAR
STARTCHAR 04F1
ENCODING 1265
SWIDTH 540 0
DWIDTH 9 0
BBX 9 15 0 -3
BITMAP
1200
0000
0000
8080
4100
4100
2200
2200
1400
1400
0800
0800
1000
1000
6000
ENDCHAR
STARTCHAR 04F2
ENCODING 1266
SWIDTH 660 0
DWIDTH 11 0
BBX 10 17 1 0
BITMAP
0480
0900
1200
0000
0000
8040
4080
2080
2100
1100
0A00
0600
0400
0800
0800
1000
6000
ENDCHAR
STARTCHAR 04F3
ENCODING 1267
SWIDTH 540 0
DWIDTH 9 0
BBX 9 17 0 -3
BITMAP
0900
1200
2400
0000
0000
8080
4100
4100
2200
2200
1400
1400
0800
0800
1000
1000
6000
ENDCHAR
STARTCHAR 04F4
ENCODING 1268
SWIDTH 660 0
DWIDTH 11 0
BBX 8 15 1 0
BITMAP
24
00
00
81
81
81
81
81
43
3D
01
01
01
01
01
ENDCHAR
STARTCHAR 04F5
ENCODING 1269
SWIDTH 540 0
DWIDTH 9 0
BBX 5 12 2 0
BITMAP
90
00
00
88
88
88
88
98
68
08
08
08
ENDCHAR
STARTCHAR 04F8
ENCODING 1272
SWIDTH 840 0
DWIDTH 14 0
BBX 10 15 2 0
BITMAP
1200
0000
0000
8040
8040
8040
8040
8040
F840
8440
8240
8240
8240
8440
F840
ENDCHAR
STARTCHAR 04F9
ENCODING 1273
SWIDTH 720 0
DWIDTH 12 0
BBX 9 12 1 0
BITMAP
1200
0000
0000
8080
8080
8080
8080
F080
8880
8480
8880
F080
ENDCHAR
STARTCHAR 0591
ENCODING 1425
SWIDTH 0 0
DWIDTH 0 0
BBX 5 3 2 -4
BITMAP
20
70
88
ENDCHAR
STARTCHAR 0592
ENCODING 1426
SWIDTH 0 0
DWIDTH 0 0
BBX 3 3 3 11
BITMAP
40
00
A0
ENDCHAR
STARTCHAR 0593
ENCODING 1427
SWIDTH 0 0
DWIDTH 0 0
BBX 3 5 3 11
BITMAP
60
80
60
C0
60
ENDCHAR
STARTCHAR 0594
ENCODING 1428
SWIDTH 0 0
DWIDTH 0 0
BBX 1 3 4 11
BITMAP
80
00
80
ENDCHAR
STARTCHAR 0595
ENCODING 1429
SWIDTH 0 0
DWIDTH 0 0
BBX 3 3 3 11
BITMAP
A0
80
A0
ENDCHAR
STARTCHAR 0596
ENCODING 1430
SWIDTH 0 0
DWIDTH 0 0
BBX 3 3 4 -4
BITMAP
80
80
60
ENDCHAR
STARTCHAR 0597
ENCODING 1431
SWIDTH 0 0
DWIDTH 0 0
BBX 2 2 4 11
BITMAP
80
C0
ENDCHAR
STARTCHAR 0598
ENCODING 1432
SWIDTH 0 0
DWIDTH 0 0
BBX 4 3 3 11
BITMAP
50
D0
A0
ENDCHAR
STARTCHAR 0599
ENCODING 1433
SWIDTH 0 0
DWIDTH 0 0
BBX 3 4 0 11
BITMAP
C0
20
20
20
ENDCHAR
STARTCHAR 059A
ENCODING 1434
SWIDTH 0 0
DWIDTH 0 0
BBX 4 3 5 -4
BITMAP
10
E0
70
ENDCHAR
STARTCHAR 059B
ENCODING 1435
SWIDTH 0 0
DWIDTH 0 0
BBX 4 3 3 -4
BITMAP
90
10
60
ENDCHAR
STARTCHAR 059C
ENCODING 1436
SWIDTH 0 0
DWIDTH 0 0
BBX 3 4 4 11
BITMAP
60
80
80
80
ENDCHAR
STARTCHAR 059D
ENCODING 1437
SWIDTH 0 0
DWIDTH 0 0
BBX 3 4 7 11
BITMAP
60
80
80
80
ENDCHAR
STARTCHAR 059E
ENCODING 1438
SWIDTH 0 0
DWIDTH 0 0
BBX 4 4 3 11
BITMAP
50
A0
A0
A0
ENDCHAR
STARTCHAR 059F
ENCODING 1439
SWIDTH 0 0
DWIDTH 0 0
BBX 8 4 1 11
BITMAP
E7
A5
E7
18
ENDCHAR
STARTCHAR 05A0
ENCODING 1440
SWIDTH 0 0
DWIDTH 0 0
BBX 4 4 3 11
BITMAP
70
50
70
80
ENDCHAR
STARTCHAR 05A1
ENCODING 1441
SWIDTH 0 0
DWIDTH 0 0
BBX 4 4 1 11
BITMAP
90
90
E0
80
ENDCHAR
STARTCHAR 05A3
ENCODING 1443
SWIDTH 0 0
DWIDTH 0 0
BBX 3 3 3 -4
BITMAP
20
20
E0
ENDCHAR
STARTCHAR 05A4
ENCODING 1444
SWIDTH 0 0
DWIDTH 0 0
BBX 4 3 3 -4
BITMAP
10
E0
70
ENDCHAR
STARTCHAR 05A5
ENCODING 1445
SWIDTH 0 0
DWIDTH 0 0
BBX 3 3 3 -4
BITMAP
20
20
C0
ENDCHAR
STARTCHAR 05A6
ENCODING 1446
SWIDTH 0 0
DWIDTH 0 0
BBX 4 3 2 -4
BITMAP
50
50
A0
ENDCHAR
STARTCHAR 05A7
ENCODING 1447
SWIDTH 0 0
DWIDTH 0 0
BBX 2 3 4 -4
BITMAP
C0
80
C0
ENDCHAR
STARTCHAR 05A8
ENCODING 1448
SWIDTH 0 0
DWIDTH 0 0
BBX 3 4 4 11
BITMAP
C0
20
20
20
ENDCHAR
STARTCHAR 05A9
ENCODING 1449
SWIDTH 0 0
DWIDTH 0 0
BBX 4 4 0 11
BITMAP
E0
A0
E0
10
ENDCHAR
STARTCHAR 05AA
ENCODING 1450
SWIDTH 0 0
DWIDTH 0 0
BBX 5 3 3 -4
BITMAP
88
70
20
ENDCHAR
STARTCHAR 05AB
ENCODING 1451
SWIDTH 0 0
DWIDTH 0 0
BBX 4 3 3 11
BITMAP
10
E0
70
ENDCHAR
STARTCHAR 05AC
ENCODING 1452
SWIDTH 0 0
DWIDTH 0 0
BBX 3 3 3 11
BITMAP
20
20
E0
ENDCHAR
STARTCHAR 05AD
ENCODING 1453
SWIDTH 0 0
DWIDTH 0 0
BBX 3 3 7 -4
BITMAP
80
80
60
ENDCHAR
STARTCHAR 05AE
ENCODING 1454
SWIDTH 0 0
DWIDTH 0 0
BBX 4 3 -2 11
BITMAP
50
D0
A0
ENDCHAR
STARTCHAR 05AF
ENCODING 1455
SWIDTH 0 0
DWIDTH 0 0
BBX 4 4 3 11
BITMAP
60
90
90
60
ENDCHAR
STARTCHAR 05B0
ENCODING 1456
SWIDTH 0 0
DWIDTH 0 0
BBX 1 3 5 -4
BITMAP
80
00
80
ENDCHAR
STARTCHAR 05B1
ENCODING 1457
SWIDTH 0 0
DWIDTH 0 0
BBX 5 3 3 -4
BITMAP
A8
00
48
ENDCHAR
STARTCHAR 05B2
ENCODING 1458
SWIDTH 0 0
DWIDTH 0 0
BBX 7 3 2 -4
BITMAP
FA
00
02
ENDCHAR
STARTCHAR 05B3
ENCODING 1459
SWIDTH 0 0
DWIDTH 0 0
BBX 7 3 2 -4
BITMAP
FA
20
22
ENDCHAR
STARTCHAR 05B4
ENCODING 1460
SWIDTH 0 0
DWIDTH 0 0
BBX 1 1 5 -2
BITMAP
80
ENDCHAR
STARTCHAR 05B5
ENCODING 1461
SWIDTH 0 0
DWIDTH 0 0
BBX 3 1 4 -2
BITMAP
A0
ENDCHAR
STARTCHAR 05B6
ENCODING 1462
SWIDTH 0 0
DWIDTH 0 0
BBX 3 3 4 -4
BITMAP
A0
00
40
ENDCHAR
STARTCHAR 05B7
ENCODING 1463
SWIDTH 0 0
DWIDTH 0 0
BBX 5 1 3 -2
BITMAP
F8
ENDCHAR
STARTCHAR 05B8
ENCODING 1464
SWIDTH 0 0
DWIDTH 0 0
BBX 5 3 3 -4
BITMAP
F8
20
20
ENDCHAR
STARTCHAR 05B9
ENCODING 1465
SWIDTH 0 0
DWIDTH 0 0
BBX 1 1 -1 11
BITMAP
80
ENDCHAR
STARTCHAR 05BB
ENCODING 1467
SWIDTH 0 0
DWIDTH 0 0
BBX 5 3 3 -4
BITMAP
80
20
08
ENDCHAR
STARTCHAR 05BC
ENCODING 1468
SWIDTH 0 0
DWIDTH 0 0
BBX 1 1 4 5
BITMAP
80
ENDCHAR
STARTCHAR 05BD
ENCODING 1469
SWIDTH 0 0
DWIDTH 0 0
BBX 1 3 4 -4
BITMAP
80
80
80
ENDCHAR
STARTCHAR 05BE
ENCODING 1470
SWIDTH 360 0
DWIDTH 6 0
BBX 4 1 1 8
BITMAP
F0
ENDCHAR
STARTCHAR 05BF
ENCODING 1471
SWIDTH 0 0
DWIDTH 0 0
BBX 5 1 2 11
BITMAP
F8
ENDCHAR
STARTCHAR 05C0
ENCODING 1472
SWIDTH 240 0
DWIDTH 4 0
BBX 1 9 1 0
BITMAP
80
80
80
80
80
80
80
80
80
ENDCHAR
STARTCHAR 05C1
ENCODING 1473
SWIDTH 0 0
DWIDTH 0 0
BBX 1 1 10 11
BITMAP
80
ENDCHAR
STARTCHAR 05C2
ENCODING 1474
SWIDTH 0 0
DWIDTH 0 0
BBX 1 1 1 11
BITMAP
80
ENDCHAR
STARTCHAR 05C3
ENCODING 1475
SWIDTH 240 0
DWIDTH 4 0
BBX 1 9 1 0
BITMAP
80
00
00
00
00
00
00
00
80
ENDCHAR
STARTCHAR 05C4
ENCODING 1476
SWIDTH 0 0
DWIDTH 0 0
BBX 1 1 4 11
BITMAP
80
ENDCHAR
STARTCHAR 05D0
ENCODING 1488
SWIDTH 660 0
DWIDTH 11 0
BBX 9 9 1 0
BITMAP
8080
4080
2080
5100
4900
8600
8200
8100
8080
ENDCHAR
STARTCHAR 05D1
ENCODING 1489
SWIDTH 600 0
DWIDTH 10 0
BBX 9 9 0 0
BITMAP
7E00
0100
0100
0100
0100
0100
0100
0100
FF80
ENDCHAR
STARTCHAR 05D2
ENCODING 1490
SWIDTH 420 0
DWIDTH 7 0
BBX 6 9 0 0
BITMAP
60
10
08
08
08
08
08
34
C4
ENDCHAR
STARTCHAR 05D3
ENCODING 1491
SWIDTH 540 0
DWIDTH 9 0
BBX 8 9 0 0
BITMAP
FF
02
02
02
02
02
02
02
02
ENDCHAR
STARTCHAR 05D4
ENCODING 1492
SWIDTH 720 0
DWIDTH 12 0
BBX 9 9 1 0
BITMAP
FF00
0080
0080
4080
4080
4080
4080
4080
4080
ENDCHAR
STARTCHAR 05D5
ENCODING 1493
SWIDTH 300 0
DWIDTH 5 0
BBX 3 9 0 0
BITMAP
C0
20
20
20
20
20
20
20
20
ENDCHAR
STARTCHAR 05D6
ENCODING 1494
SWIDTH 360 0
DWIDTH 6 0
BBX 6 9 0 0
BITMAP
C0
30
4C
40
40
40
40
40
40
ENDCHAR
STARTCHAR 05D7
ENCODING 1495
SWIDTH 720 0
DWIDTH 12 0
BBX 9 9 1 0
BITMAP
FF00
4080
4080
4080
4080
4080
4080
4080
4080
ENDCHAR
STARTCHAR 05D8
ENCODING 1496
SWIDTH 660 0
DWIDTH 11 0
BBX 9 9 1 0
BITMAP
8700
8080
8080
4080
4080
4100
4100
2600
3800
ENDCHAR
STARTCHAR 05D9
ENCODING 1497
SWIDTH 300 0
DWIDTH 5 0
BBX 3 6 0 3
BITMAP
C0
20
20
20
20
20
ENDCHAR
STARTCHAR 05DA
ENCODING 1498
SWIDTH 540 0
DWIDTH 9 0
BBX 7 11 0 -2
BITMAP
FE
02
02
02
02
02
02
02
02
02
02
ENDCHAR
STARTCHAR 05DB
ENCODING 1499
SWIDTH 600 0
DWIDTH 10 0
BBX 8 9 0 0
BITMAP
7C
02
01
01
01
01
02
02
FE
ENDCHAR
STARTCHAR 05DC
ENCODING 1500
SWIDTH 540 0
DWIDTH 9 0
BBX 7 12 1 0
BITMAP
80
80
80
FC
02
02
02
04
04
08
30
C0
ENDCHAR
STARTCHAR 05DD
ENCODING 1501
SWIDTH 720 0
DWIDTH 12 0
BBX 9 9 1 0
BITMAP
FF00
4080
4080
4080
4080
4080
4080
4080
7F80
ENDCHAR
STARTCHAR 05DE
ENCODING 1502
SWIDTH 720 0
DWIDTH 12 0
BBX 9 9 1 0
BITMAP
8E00
5100
6100
4080
4080
4080
8080
8080
8F80
ENDCHAR
STARTCHAR 05DF
ENCODING 1503
SWIDTH 300 0
DWIDTH 5 0
BBX 3 11 0 -2
BITMAP
C0
20
20
20
20
20
20
20
20
20
20
ENDCHAR
STARTCHAR 05E0
ENCODING 1504
SWIDTH 420 0
DWIDTH 7 0
BBX 5 9 0 0
BITMAP
30
08
08
08
08
08
08
08
F8
ENDCHAR
STARTCHAR 05E1
ENCODING 1505
SWIDTH 660 0
DWIDTH 11 0
BBX 10 9 0 0
BITMAP
FF80
4040
4040
2040
2040
2080
2100
1300
1C00
ENDCHAR
STARTCHAR 05E2
ENCODING 1506
SWIDTH 600 0
DWIDTH 10 0
BBX 9 10 0 -1
BITMAP
2080
2080
1080
1080
1100
1100
0A00
0C00
1800
E000
ENDCHAR
STARTCHAR 05E3
ENCODING 1507
SWIDTH 540 0
DWIDTH 9 0
BBX 7 11 0 -2
BITMAP
70
8C
82
82
82
42
02
02
02
02
02
ENDCHAR
STARTCHAR 05E4
ENCODING 1508
SWIDTH 600 0
DWIDTH 10 0
BBX 8 9 0 0
BITMAP
38
46
41
41
41
21
01
01
FF
ENDCHAR
STARTCHAR 05E5
ENCODING 1509
SWIDTH 480 0
DWIDTH 8 0
BBX 8 11 0 -2
BITMAP
81
41
41
22
24
18
10
10
10
10
10
ENDCHAR
STARTCHAR 05E6
ENCODING 1510
SWIDTH 600 0
DWIDTH 10 0
BBX 9 9 0 0
BITMAP
4080
2080
2080
1100
0A00
0400
0200
0100
FF80
ENDCHAR
STARTCHAR 05E7
ENCODING 1511
SWIDTH 660 0
DWIDTH 11 0
BBX 9 11 1 -2
BITMAP
FF00
0080
0080
0080
4080
4100
4200
4400
5800
4000
4000
ENDCHAR
STARTCHAR 05E8
ENCODING 1512
SWIDTH 540 0
DWIDTH 9 0
BBX 7 9 0 0
BITMAP
FC
02
02
02
02
02
02
02
02
ENDCHAR
STARTCHAR 05E9
ENCODING 1513
SWIDTH 720 0
DWIDTH 12 0
BBX 10 9 1 0
BITMAP
8840
8840
8840
8840
8880
D080
6100
4600
7800
ENDCHAR
STARTCHAR 05EA
ENCODING 1514
SWIDTH 720 0
DWIDTH 12 0
BBX 10 9 0 0
BITMAP
7F80
2040
2040
2040
2040
2040
2040
1040
F040
ENDCHAR
STARTCHAR 05F0
ENCODING 1520
SWIDTH 600 0
DWIDTH 10 0
BBX 8 9 0 0
BITMAP
C6
21
21
21
21
21
21
21
21
ENDCHAR
STARTCHAR 05F1
ENCODING 1521
SWIDTH 600 0
DWIDTH 10 0
BBX 8 9 0 0
BITMAP
C6
21
21
21
21
21
01
01
01
ENDCHAR
STARTCHAR 05F2
ENCODING 1522
SWIDTH 600 0
DWIDTH 10 0
BBX 8 6 0 3
BITMAP
C6
21
21
21
21
21
ENDCHAR
STARTCHAR 05F3
ENCODING 1523
SWIDTH 300 0
DWIDTH 5 0
BBX 3 4 1 7
BITMAP
20
40
40
80
ENDCHAR
STARTCHAR 05F4
ENCODING 1524
SWIDTH 480 0
DWIDTH 8 0
BBX 6 4 1 7
BITMAP
24
48
48
90
ENDCHAR
STARTCHAR 060C
ENCODING 1548
SWIDTH 300 0
DWIDTH 5 0
BBX 2 5 1 0
BITMAP
40
80
80
C0
C0
ENDCHAR
STARTCHAR 061B
ENCODING 1563
SWIDTH 300 0
DWIDTH 5 0
BBX 2 10 1 0
BITMAP
40
80
80
C0
00
00
00
00
00
C0
ENDCHAR
STARTCHAR 061F
ENCODING 1567
SWIDTH 420 0
DWIDTH 7 0
BBX 5 12 1 0
BITMAP
78
80
80
80
40
20
10
10
10
10
00
10
ENDCHAR
STARTCHAR 0621
ENCODING 1569
SWIDTH 420 0
DWIDTH 7 0
BBX 5 7 1 0
BITMAP
38
40
80
80
40
38
E0
ENDCHAR
STARTCHAR 0622
ENCODING 1570
SWIDTH 300 0
DWIDTH 5 0
BBX 4 17 1 0
BITMAP
90
60
00
40
40
40
40
40
40
40
40
40
40
40
40
40
40
ENDCHAR
STARTCHAR 0623
ENCODING 1571
SWIDTH 300 0
DWIDTH 5 0
BBX 4 21 1 0
BITMAP
30
40
40
40
30
C0
00
40
40
40
40
40
40
40
40
40
40
40
40
40
40
ENDCHAR
STARTCHAR 0624
ENCODING 1572
SWIDTH 480 0
DWIDTH 8 0
BBX 7 21 0 -7
BITMAP
0C
10
10
10
0C
30
00
00
18
24
42
42
42
3E
04
04
08
10
20
40
80
ENDCHAR
STARTCHAR 0625
ENCODING 1573
SWIDTH 300 0
DWIDTH 5 0
BBX 4 21 1 -7
BITMAP
40
40
40
40
40
40
40
40
40
40
40
40
40
40
00
30
40
40
40
30
C0
ENDCHAR
STARTCHAR 0626
ENCODING 1574
SWIDTH 960 0
DWIDTH 16 0
BBX 14 17 1 -3
BITMAP
3000
4000
4000
4000
3000
C01C
0060
0040
8080
8080
8080
807C
8004
8008
8018
4060
3F80
ENDCHAR
STARTCHAR 0627
ENCODING 1575
SWIDTH 300 0
DWIDTH 5 0
BBX 1 14 2 0
BITMAP
80
80
80
80
80
80
80
80
80
80
80
80
80
80
ENDCHAR
STARTCHAR 0628
ENCODING 1576
SWIDTH 1020 0
DWIDTH 17 0
BBX 15 12 1 -4
BITMAP
0002
0002
8002
8002
8002
8002
400C
3FF0
0000
0000
0000
0200
ENDCHAR
STARTCHAR 0629
ENCODING 1577
SWIDTH 540 0
DWIDTH 9 0
BBX 7 11 1 0
BITMAP
24
00
00
10
28
44
82
82
82
84
78
ENDCHAR
STARTCHAR 062A
ENCODING 1578
SWIDTH 1020 0
DWIDTH 17 0
BBX 15 8 1 0
BITMAP
0482
0002
8002
8002
8002
8002
400C
3FF0
ENDCHAR
STARTCHAR 062B
ENCODING 1579
SWIDTH 1020 0
DWIDTH 17 0
BBX 15 10 1 0
BITMAP
0100
0000
0442
0002
8002
8002
8002
8002
400C
3FF0
ENDCHAR
STARTCHAR 062C
ENCODING 1580
SWIDTH 660 0
DWIDTH 11 0
BBX 9 14 1 -7
BITMAP
FF80
1800
2000
4000
4000
8000
8000
8200
8000
8000
8000
4000
2000
1F80
ENDCHAR
STARTCHAR 062D
ENCODING 1581
SWIDTH 660 0
DWIDTH 11 0
BBX 9 14 1 -7
BITMAP
FF80
1800
2000
4000
4000
8000
8000
8000
8000
8000
8000
4000
2000
1F80
ENDCHAR
STARTCHAR 062E
ENCODING 1582
SWIDTH 660 0
DWIDTH 11 0
BBX 9 16 1 -7
BITMAP
0400
0000
FF80
1800
2000
4000
4000
8000
8000
8000
8000
8000
8000
4000
2000
1F80
ENDCHAR
STARTCHAR 062F
ENCODING 1583
SWIDTH 540 0
DWIDTH 9 0
BBX 8 9 0 0
BITMAP
10
08
04
02
02
01
01
81
7E
ENDCHAR
STARTCHAR 0630
ENCODING 1584
SWIDTH 540 0
DWIDTH 9 0
BBX 8 12 0 0
BITMAP
10
00
00
10
08
04
02
02
01
01
81
7E
ENDCHAR
STARTCHAR 0631
ENCODING 1585
SWIDTH 420 0
DWIDTH 7 0
BBX 6 13 0 -7
BITMAP
10
08
08
04
04
04
04
08
10
10
20
40
80
ENDCHAR
STARTCHAR 0632
ENCODING 1586
SWIDTH 420 0
DWIDTH 7 0
BBX 6 16 0 -7
BITMAP
20
00
00
10
08
08
04
04
04
04
08
10
10
20
40
80
ENDCHAR
STARTCHAR 0633
ENCODING 1587
SWIDTH 1560 0
DWIDTH 26 0
BBX 24 14 1 -6
BITMAP
000001
000001
000041
001041
000841
000841
8008C2
800F3C
800800
800800
801000
401000
606000
1F8000
ENDCHAR
STARTCHAR 0634
ENCODING 1588
SWIDTH 1560 0
DWIDTH 26 0
BBX 24 17 1 -6
BITMAP
000040
000000
000110
000001
000001
000041
001041
000841
000841
8008C2
800F3C
800800
800800
801000
401000
606000
1F8000
ENDCHAR
STARTCHAR 0635
ENCODING 1589
SWIDTH 1620 0
DWIDTH 27 0
BBX 25 13 1 -6
BITMAP
00000700
00001880
00102080
00084080
00088080
800D0300
800BFC00
80080000
80080000
80100000
40100000
60600000
1F800000
ENDCHAR
STARTCHAR 0636
ENCODING 1590
SWIDTH 1620 0
DWIDTH 27 0
BBX 25 16 1 -6
BITMAP
00000100
00000000
00000000
00000700
00001880
00102080
00084080
00088080
800D0300
800BFC00
80080000
80080000
80100000
40100000
60600000
1F800000
ENDCHAR
STARTCHAR 0637
ENCODING 1591
SWIDTH 840 0
DWIDTH 14 0
BBX 13 14 0 0
BITMAP
0800
0800
0800
0800
0800
0800
0800
08F0
0908
0E08
0808
1008
2030
FFC0
ENDCHAR
STARTCHAR 0638
ENCODING 1592
SWIDTH 840 0
DWIDTH 14 0
BBX 13 14 0 0
BITMAP
0800
0800
0800
0800
0820
0800
0800
08F0
0908
0E08
0808
1008
2030
FFC0
ENDCHAR
STARTCHAR 0639
ENCODING 1593
SWIDTH 660 0
DWIDTH 11 0
BBX 10 16 1 -7
BITMAP
0F00
1000
2000
2000
1000
0800
0F00
3000
4000
8000
8000
8000
8000
4000
2000
1FC0
ENDCHAR
STARTCHAR 063A
ENCODING 1594
SWIDTH 660 0
DWIDTH 11 0
BBX 10 19 1 -7
BITMAP
0200
0000
0000
0F00
1000
2000
2000
1000
0800
0F00
3000
4000
8000
8000
8000
8000
4000
2000
1FC0
ENDCHAR
STARTCHAR 0640
ENCODING 1600
SWIDTH 420 0
DWIDTH 7 0
BBX 7 1 0 0
BITMAP
FE
ENDCHAR
STARTCHAR 0641
ENCODING 1601
SWIDTH 1260 0
DWIDTH 21 0
BBX 19 13 1 -1
BITMAP
000080
000000
000000
000180
000240
000420
000420
800420
8003E0
800020
800040
400780
3FF800
ENDCHAR
STARTCHAR 0642
ENCODING 1602
SWIDTH 900 0
DWIDTH 15 0
BBX 13 16 1 -7
BITMAP
0048
0000
0000
0060
0090
0108
0108
8108
80F8
8008
8008
8010
8010
4020
60C0
1F00
ENDCHAR
STARTCHAR 0643
ENCODING 1603
SWIDTH 1140 0
DWIDTH 19 0
BBX 16 14 1 0
BITMAP
0001
0001
0001
00C1
0101
0181
0041
0081
8101
8001
8001
8002
400C
3FF0
ENDCHAR
STARTCHAR 0644
ENCODING 1604
SWIDTH 960 0
DWIDTH 16 0
BBX 13 20 1 -6
BITMAP
0008
0008
0008
0008
0008
0008
0008
0008
0008
0008
0008
0008
0008
8008
8008
8008
8008
8010
4060
3F80
ENDCHAR
STARTCHAR 0645
ENCODING 1605
SWIDTH 600 0
DWIDTH 10 0
BBX 9 14 1 -7
BITMAP
1800
2400
2200
2100
3F80
4000
8000
8000
8000
8000
8000
8000
8000
8000
ENDCHAR
STARTCHAR 0646
ENCODING 1606
SWIDTH 900 0
DWIDTH 15 0
BBX 13 14 1 -6
BITMAP
0100
0000
0000
0000
0000
0008
8008
8008
8008
8008
8010
4010
6060
1F80
ENDCHAR
STARTCHAR 0647
ENCODING 1607
SWIDTH 540 0
DWIDTH 9 0
BBX 7 8 1 0
BITMAP
10
28
44
82
82
82
84
78
ENDCHAR
STARTCHAR 0648
ENCODING 1608
SWIDTH 480 0
DWIDTH 8 0
BBX 7 13 0 -7
BITMAP
18
24
42
42
42
3E
04
04
08
10
20
40
80
ENDCHAR
STARTCHAR 0649
ENCODING 1609
SWIDTH 960 0
DWIDTH 16 0
BBX 14 12 1 -3
BITMAP
001C
0060
0040
8080
8080
8080
807C
8004
8008
8018
4060
3F80
ENDCHAR
STARTCHAR 064A
ENCODING 1610
SWIDTH 960 0
DWIDTH 16 0
BBX 14 16 1 -7
BITMAP
001C
0060
0040
8080
8080
8080
807C
8004
8008
8018
4060
3F80
0000
0000
0000
0900
ENDCHAR
STARTCHAR 064B
ENCODING 1611
SWIDTH 0 0
DWIDTH 0 0
BBX 6 4 2 10
BITMAP
1C
E0
1C
E0
ENDCHAR
STARTCHAR 064C
ENCODING 1612
SWIDTH 0 0
DWIDTH 0 0
BBX 8 5 2 10
BITMAP
06
EA
2A
27
78
ENDCHAR
STARTCHAR 064D
ENCODING 1613
SWIDTH 0 0
DWIDTH 0 0
BBX 6 4 2 -6
BITMAP
1C
E0
1C
E0
ENDCHAR
STARTCHAR 064E
ENCODING 1614
SWIDTH 0 0
DWIDTH 0 0
BBX 6 2 2 10
BITMAP
1C
E0
ENDCHAR
STARTCHAR 064F
ENCODING 1615
SWIDTH 0 0
DWIDTH 0 0
BBX 6 5 2 10
BITMAP
18
28
28
1C
E0
ENDCHAR
STARTCHAR 0650
ENCODING 1616
SWIDTH 0 0
DWIDTH 0 0
BBX 6 2 2 -7
BITMAP
1C
E0
ENDCHAR
STARTCHAR 0651
ENCODING 1617
SWIDTH 0 0
DWIDTH 0 0
BBX 6 5 2 10
BITMAP
24
A4
A4
B8
C0
ENDCHAR
STARTCHAR 0652
ENCODING 1618
SWIDTH 0 0
DWIDTH 0 0
BBX 4 5 2 10
BITMAP
20
50
90
90
E0
ENDCHAR
STARTCHAR 0660
ENCODING 1632
SWIDTH 660 0
DWIDTH 11 0
BBX 3 3 4 5
BITMAP
40
E0
40
ENDCHAR
STARTCHAR 0661
ENCODING 1633
SWIDTH 660 0
DWIDTH 11 0
BBX 1 12 5 0
BITMAP
80
80
80
80
80
80
80
80
80
80
80
80
ENDCHAR
STARTCHAR 0662
ENCODING 1634
SWIDTH 660 0
DWIDTH 11 0
BBX 7 12 3 0
BITMAP
82
82
C4
B8
80
80
80
80
80
80
80
80
ENDCHAR
STARTCHAR 0663
ENCODING 1635
SWIDTH 660 0
DWIDTH 11 0
BBX 9 12 1 0
BITMAP
8880
8880
8880
F700
8000
8000
8000
8000
8000
8000
8000
8000
ENDCHAR
STARTCHAR 0664
ENCODING 1636
SWIDTH 660 0
DWIDTH 11 0
BBX 6 12 2 0
BITMAP
18
60
80
80
60
18
20
40
80
40
30
0C
ENDCHAR
STARTCHAR 0665
ENCODING 1637
SWIDTH 660 0
DWIDTH 11 0
BBX 9 9 1 0
BITMAP
0800
1400
2200
4100
8080
8080
8080
4100
3E00
ENDCHAR
STARTCHAR 0666
ENCODING 1638
SWIDTH 660 0
DWIDTH 11 0
BBX 6 12 2 0
BITMAP
84
7C
04
04
04
04
04
04
04
04
04
04
ENDCHAR
STARTCHAR 0667
ENCODING 1639
SWIDTH 660 0
DWIDTH 11 0
BBX 11 12 0 0
BITMAP
8020
4040
4040
2080
2080
1100
1100
1100
0A00
0A00
0400
0400
ENDCHAR
STARTCHAR 0668
ENCODING 1640
SWIDTH 660 0
DWIDTH 11 0
BBX 11 12 0 0
BITMAP
0400
0400
0A00
0A00
1100
1100
2080
2080
4040
4040
8020
8020
ENDCHAR
STARTCHAR 0669
ENCODING 1641
SWIDTH 660 0
DWIDTH 11 0
BBX 6 12 1 0
BITMAP
38
44
C4
84
44
3C
04
04
04
04
04
04
ENDCHAR
STARTCHAR 066A
ENCODING 1642
SWIDTH 660 0
DWIDTH 11 0
BBX 11 12 0 0
BITMAP
0020
0040
2080
7100
2200
0400
0400
0880
11C0
2080
4000
8000
ENDCHAR
STARTCHAR 066B
ENCODING 1643
SWIDTH 300 0
DWIDTH 5 0
BBX 2 5 1 -3
BITMAP
C0
C0
40
40
80
ENDCHAR
STARTCHAR 066C
ENCODING 1644
SWIDTH 300 0
DWIDTH 5 0
BBX 2 5 1 10
BITMAP
40
80
80
C0
C0
ENDCHAR
STARTCHAR 066D
ENCODING 1645
SWIDTH 480 0
DWIDTH 8 0
BBX 6 6 1 2
BITMAP
10
30
FC
70
78
88
ENDCHAR
STARTCHAR 0670
ENCODING 1648
SWIDTH 0 0
DWIDTH 0 0
BBX 1 4 2 10
BITMAP
80
80
80
80
ENDCHAR
STARTCHAR 0671
ENCODING 1649
SWIDTH 300 0
DWIDTH 5 0
BBX 5 20 0 0
BITMAP
18
28
28
90
60
00
20
20
20
20
20
20
20
20
20
20
20
20
20
20
ENDCHAR
STARTCHAR 0672
ENCODING 1650
SWIDTH 300 0
DWIDTH 5 0
BBX 5 20 0 0
BITMAP
18
20
20
D8
30
00
20
20
20
20
20
20
20
20
20
20
20
20
20
20
ENDCHAR
STARTCHAR 0673
ENCODING 1651
SWIDTH 300 0
DWIDTH 5 0
BBX 5 19 0 -5
BITMAP
20
20
20
20
20
20
20
20
20
20
20
20
20
20
18
20
20
D8
30
ENDCHAR
STARTCHAR 0674
ENCODING 1652
SWIDTH 0 0
DWIDTH 0 0
BBX 4 6 0 13
BITMAP
30
40
40
40
30
C0
ENDCHAR
STARTCHAR 0675
ENCODING 1653
SWIDTH 300 0
DWIDTH 5 0
BBX 6 19 2 0
BITMAP
0C
10
10
10
0C
B0
80
80
80
80
80
80
80
80
80
80
80
80
80
ENDCHAR
STARTCHAR 0676
ENCODING 1654
SWIDTH 480 0
DWIDTH 8 0
BBX 9 21 0 -7
BITMAP
0180
0200
0200
0200
0180
0600
0000
0000
1800
2400
4200
4200
4200
3E00
0400
0400
0800
1000
2000
4000
8000
ENDCHAR
STARTCHAR 0677
ENCODING 1655
SWIDTH 480 0
DWIDTH 8 0
BBX 8 20 0 -7
BITMAP
33
54
54
3A
C3
0C
00
18
24
42
42
42
3E
04
04
08
10
20
40
80
ENDCHAR
STARTCHAR 0678
ENCODING 1656
SWIDTH 960 0
DWIDTH 16 0
BBX 19 20 1 -3
BITMAP
000060
000080
000080
000080
000060
000180
000000
000000
001C00
006000
004000
808000
808000
808000
807C00
800400
800800
801800
406000
3F8000
ENDCHAR
STARTCHAR 0679
ENCODING 1657
SWIDTH 1020 0
DWIDTH 17 0
BBX 15 11 1 0
BITMAP
0200
02C0
0340
07C2
0002
8002
8002
8002
8002
400C
3FF0
ENDCHAR
STARTCHAR 067A
ENCODING 1658
SWIDTH 1020 0
DWIDTH 17 0
BBX 15 11 1 0
BITMAP
0200
0000
0000
0202
0002
8002
8002
8002
8002
400C
3FF0
ENDCHAR
STARTCHAR 067B
ENCODING 1659
SWIDTH 1020 0
DWIDTH 17 0
BBX 15 16 1 -8
BITMAP
0002
0002
8002
8002
8002
8002
400C
3FF0
0000
0000
0000
0000
0200
0000
0000
0200
ENDCHAR
STARTCHAR 067C
ENCODING 1660
SWIDTH 1020 0
DWIDTH 17 0
BBX 15 11 1 -3
BITMAP
0282
0002
8002
8002
8002
8002
400C
3FF0
0480
0480
0300
ENDCHAR
STARTCHAR 067D
ENCODING 1661
SWIDTH 1020 0
DWIDTH 17 0
BBX 15 11 1 0
BITMAP
0440
0000
0100
0002
0002
8002
8002
8002
8002
400C
3FF0
ENDCHAR
STARTCHAR 067E
ENCODING 1662
SWIDTH 1020 0
DWIDTH 17 0
BBX 15 13 1 -5
BITMAP
0002
0002
8002
8002
8002
8002
400C
3FF0
0000
0000
0880
0000
0200
ENDCHAR
STARTCHAR 067F
ENCODING 1663
SWIDTH 1020 0
DWIDTH 17 0
BBX 15 10 1 0
BITMAP
1200
0000
0482
0002
8002
8002
8002
8002
400C
3FF0
ENDCHAR
STARTCHAR 0680
ENCODING 1664
SWIDTH 1020 0
DWIDTH 17 0
BBX 15 15 1 -7
BITMAP
0002
0002
8002
8002
8002
8002
400C
3FF0
0000
0000
0000
0000
0480
0000
0120
ENDCHAR
STARTCHAR 0681
ENCODING 1665
SWIDTH 660 0
DWIDTH 11 0
BBX 9 21 1 -7
BITMAP
0600
0800
0800
0800
0600
1800
0000
FF80
1800
2000
4000
4000
8000
8000
8000
8000
8000
8000
4000
2000
1F80
ENDCHAR
STARTCHAR 0682
ENCODING 1666
SWIDTH 660 0
DWIDTH 11 0
BBX 9 19 1 -7
BITMAP
0400
0000
0000
0400
0000
FF80
1800
2000
4000
4000
8000
8000
8000
8000
8000
8000
4000
2000
1F80
ENDCHAR
STARTCHAR 0683
ENCODING 1667
SWIDTH 660 0
DWIDTH 11 0
BBX 9 14 1 -7
BITMAP
FF80
1800
2000
4000
4000
8000
8000
8900
8000
8000
8000
4000
2000
1F80
ENDCHAR
STARTCHAR 0684
ENCODING 1668
SWIDTH 660 0
DWIDTH 11 0
BBX 9 14 1 -7
BITMAP
FF80
1800
2000
4000
4000
8400
8000
8000
8400
8000
8000
4000
2000
1F80
ENDCHAR
STARTCHAR 0685
ENCODING 1669
SWIDTH 660 0
DWIDTH 11 0
BBX 9 18 1 -7
BITMAP
0400
0000
1100
0000
FF80
1800
2000
4000
4000
8000
8000
8000
8000
8000
8000
4000
2000
1F80
ENDCHAR
STARTCHAR 0686
ENCODING 1670
SWIDTH 660 0
DWIDTH 11 0
BBX 9 14 1 -7
BITMAP
FF80
1800
2000
4000
4000
8880
8000
8200
8000
8000
8000
4000
2000
1F80
ENDCHAR
STARTCHAR 0687
ENCODING 1671
SWIDTH 660 0
DWIDTH 11 0
BBX 10 14 1 -7
BITMAP
FF80
1800
2000
4000
4000
8000
8900
8000
8240
8000
8000
4000
2000
1F80
ENDCHAR
STARTCHAR 0688
ENCODING 1672
SWIDTH 540 0
DWIDTH 9 0
BBX 8 15 0 0
BITMAP
10
16
1A
3E
00
00
10
08
04
02
02
01
01
81
7E
ENDCHAR
STARTCHAR 0689
ENCODING 1673
SWIDTH 540 0
DWIDTH 9 0
BBX 8 12 0 -3
BITMAP
10
08
04
02
02
01
01
81
7E
24
24
18
ENDCHAR
STARTCHAR 068A
ENCODING 1674
SWIDTH 540 0
DWIDTH 9 0
BBX 8 13 0 -4
BITMAP
10
08
04
02
02
01
01
81
7E
00
00
00
10
ENDCHAR
STARTCHAR 068B
ENCODING 1675
SWIDTH 540 0
DWIDTH 9 0
BBX 8 19 0 -4
BITMAP
10
16
1A
3E
00
00
10
08
04
02
02
01
01
81
7E
00
00
00
10
ENDCHAR
STARTCHAR 068C
ENCODING 1676
SWIDTH 540 0
DWIDTH 9 0
BBX 8 12 0 0
BITMAP
12
00
00
10
08
04
02
02
01
01
81
7E
ENDCHAR
STARTCHAR 068D
ENCODING 1677
SWIDTH 540 0
DWIDTH 9 0
BBX 8 13 0 -4
BITMAP
10
08
04
02
02
01
01
81
7E
00
00
00
48
ENDCHAR
STARTCHAR 068E
ENCODING 1678
SWIDTH 540 0
DWIDTH 9 0
BBX 8 14 0 0
BITMAP
08
00
22
00
00
10
08
04
02
02
01
01
81
7E
ENDCHAR
STARTCHAR 068F
ENCODING 1679
SWIDTH 540 0
DWIDTH 9 0
BBX 8 15 0 0
BITMAP
22
00
08
00
00
00
10
08
04
02
02
01
01
81
7E
ENDCHAR
STARTCHAR 0690
ENCODING 1680
SWIDTH 540 0
DWIDTH 9 0
BBX 8 13 0 0
BITMAP
48
00
12
00
10
08
04
02
02
01
01
81
7E
ENDCHAR
STARTCHAR 0691
ENCODING 1681
SWIDTH 420 0
DWIDTH 7 0
BBX 6 19 0 -7
BITMAP
20
2C
34
7C
00
00
10
08
08
04
04
04
04
08
10
10
20
40
80
ENDCHAR
STARTCHAR 0692
ENCODING 1682
SWIDTH 420 0
DWIDTH 7 0
BBX 6 19 0 -7
BITMAP
44
28
10
10
00
00
10
08
08
04
04
04
04
08
10
10
20
40
80
ENDCHAR
STARTCHAR 0693
ENCODING 1683
SWIDTH 420 0
DWIDTH 7 0
BBX 6 13 0 -7
BITMAP
10
08
08
04
04
04
04
08
18
1C
24
64
B8
ENDCHAR
STARTCHAR 0694
ENCODING 1684
SWIDTH 420 0
DWIDTH 7 0
BBX 6 13 0 -7
BITMAP
10
08
08
04
04
04
04
08
10
10
20
40
84
ENDCHAR
STARTCHAR 0695
ENCODING 1685
SWIDTH 420 0
DWIDTH 7 0
BBX 7 17 0 -11
BITMAP
10
08
08
04
04
04
04
08
10
10
20
40
80
22
14
08
08
ENDCHAR
STARTCHAR 0696
ENCODING 1686
SWIDTH 420 0
DWIDTH 7 0
BBX 6 13 0 -7
BITMAP
10
08
08
04
04
84
04
08
10
10
20
40
84
ENDCHAR
STARTCHAR 0697
ENCODING 1687
SWIDTH 420 0
DWIDTH 7 0
BBX 6 16 0 -7
BITMAP
48
00
00
10
08
08
04
04
04
04
08
10
10
20
40
80
ENDCHAR
STARTCHAR 0698
ENCODING 1688
SWIDTH 420 0
DWIDTH 7 0
BBX 6 18 0 -7
BITMAP
10
00
44
00
00
10
08
08
04
04
04
04
08
10
10
20
40
80
ENDCHAR
STARTCHAR 0699
ENCODING 1689
SWIDTH 420 0
DWIDTH 7 0
BBX 6 18 0 -7
BITMAP
90
00
24
00
00
10
08
08
04
04
04
04
08
10
10
20
40
80
ENDCHAR
STARTCHAR 069A
ENCODING 1690
SWIDTH 1560 0
DWIDTH 26 0
BBX 24 16 1 -6
BITMAP
000040
000000
000001
000001
000041
001041
000841
000841
8008C2
800F3C
800800
800800
801000
401008
606000
1F8000
ENDCHAR
STARTCHAR 069B
ENCODING 1691
SWIDTH 1560 0
DWIDTH 26 0
BBX 24 14 1 -6
BITMAP
000001
000001
000041
001041
000841
000841
8008C2
800F3C
800800
800800
801022
401000
606008
1F8000
ENDCHAR
STARTCHAR 069C
ENCODING 1692
SWIDTH 1560 0
DWIDTH 26 0
BBX 24 17 1 -6
BITMAP
000040
000000
000110
000001
000001
000041
001041
000841
000841
8008C2
800F3C
800800
800800
801022
401000
606008
1F8000
ENDCHAR
STARTCHAR 069D
ENCODING 1693
SWIDTH 1620 0
DWIDTH 27 0
BBX 25 13 1 -6
BITMAP
00000700
00001880
00102080
00084080
00088080
800D0300
800BFC00
80080000
80080000
80100000
40109000
60600000
1F800000
ENDCHAR
STARTCHAR 069E
ENCODING 1694
SWIDTH 1620 0
DWIDTH 27 0
BBX 26 18 1 -6
BITMAP
00000100
00000000
00000440
00000000
00000000
00000700
00001880
00102080
00084080
00088080
800D0300
800BFC00
80080000
80080000
80100000
40100000
60600000
1F800000
ENDCHAR
STARTCHAR 069F
ENCODING 1695
SWIDTH 840 0
DWIDTH 14 0
BBX 13 14 0 0
BITMAP
0800
0800
0820
0800
0888
0800
0800
08F0
0908
0E08
0808
1008
2030
FFC0
ENDCHAR
STARTCHAR 06A0
ENCODING 1696
SWIDTH 660 0
DWIDTH 11 0
BBX 10 21 1 -7
BITMAP
0200
0000
0880
0000
0000
0F00
1000
2000
2000
1000
0800
0F00
3000
4000
8000
8000
8000
8000
4000
2000
1FC0
ENDCHAR
STARTCHAR 06A1
ENCODING 1697
SWIDTH 1260 0
DWIDTH 21 0
BBX 19 10 1 -1
BITMAP
000180
000240
000420
000420
800420
8003E0
800020
800040
400780
3FF800
ENDCHAR
STARTCHAR 06A2
ENCODING 1698
SWIDTH 1260 0
DWIDTH 21 0
BBX 19 13 1 -4
BITMAP
000180
000240
000420
000420
800420
8003E0
800020
800040
400780
3FF800
000000
000000
000080
ENDCHAR
STARTCHAR 06A3
ENCODING 1699
SWIDTH 1260 0
DWIDTH 21 0
BBX 19 16 1 -4
BITMAP
000080
000000
000000
000180
000240
000420
000420
800420
8003E0
800020
800040
400780
3FF800
000000
000000
000800
ENDCHAR
STARTCHAR 06A4
ENCODING 1700
SWIDTH 1260 0
DWIDTH 21 0
BBX 19 15 1 -1
BITMAP
000080
000000
000220
000000
000000
000180
000240
000420
000420
800420
8003E0
800020
800040
400780
3FF800
ENDCHAR
STARTCHAR 06A5
ENCODING 1701
SWIDTH 1260 0
DWIDTH 21 0
BBX 19 14 1 -5
BITMAP
000180
000240
000420
000420
800420
8003E0
800020
800040
400780
3FF800
000000
000220
000000
000080
ENDCHAR
STARTCHAR 06A6
ENCODING 1702
SWIDTH 1260 0
DWIDTH 21 0
BBX 19 15 1 -1
BITMAP
000480
000000
000120
000000
000000
000180
000240
000420
000420
800420
8003E0
800020
800040
400780
3FF800
ENDCHAR
STARTCHAR 06A7
ENCODING 1703
SWIDTH 900 0
DWIDTH 15 0
BBX 13 16 1 -7
BITMAP
0020
0000
0000
0060
0090
0108
0108
8108
80F8
8008
8008
8010
8010
4020
60C0
1F00
ENDCHAR
STARTCHAR 06A8
ENCODING 1704
SWIDTH 900 0
DWIDTH 15 0
BBX 13 18 1 -7
BITMAP
0020
0000
0088
0000
0000
0060
0090
0108
0108
8108
80F8
8008
8008
8010
8010
4020
60C0
1F00
ENDCHAR
STARTCHAR 06A9
ENCODING 1705
SWIDTH 1140 0
DWIDTH 19 0
BBX 18 14 1 0
BITMAP
000040
000380
001C00
002000
001000
000800
000400
000200
800200
800100
800100
800100
400600
3FF800
ENDCHAR
STARTCHAR 06AA
ENCODING 1706
SWIDTH 960 0
DWIDTH 16 0
BBX 15 11 0 -4
BITMAP
0200
0C00
1000
1000
2000
2000
1FFC
0002
0002
C002
3FFC
ENDCHAR
STARTCHAR 06AB
ENCODING 1707
SWIDTH 1140 0
DWIDTH 19 0
BBX 18 14 1 0
BITMAP
000040
000380
001E40
002240
001180
000800
000400
000200
800200
800100
800100
800100
400600
3FF800
ENDCHAR
STARTCHAR 06AC
ENCODING 1708
SWIDTH 1140 0
DWIDTH 19 0
BBX 16 16 1 0
BITMAP
0004
0000
0001
0001
0001
00C1
0101
0181
0041
0081
8101
8001
8001
8002
400C
3FF0
ENDCHAR
STARTCHAR 06AD
ENCODING 1709
SWIDTH 1140 0
DWIDTH 19 0
BBX 16 15 1 0
BITMAP
0010
0001
0045
0001
00C1
0101
0181
0041
0081
8101
8001
8001
8002
400C
3FF0
ENDCHAR
STARTCHAR 06AE
ENCODING 1710
SWIDTH 1140 0
DWIDTH 19 0
BBX 16 19 1 -5
BITMAP
0001
0001
0001
00C1
0101
0181
0041
0081
8101
8001
8001
8002
400C
3FF0
0000
0000
1100
0000
0400
ENDCHAR
STARTCHAR 06AF
ENCODING 1711
SWIDTH 1140 0
DWIDTH 19 0
BBX 18 16 1 0
BITMAP
000040
000380
001C40
002380
001C00
002000
001000
000800
000400
000200
800200
800100
800100
800100
400600
3FF800
ENDCHAR
STARTCHAR 06B0
ENCODING 1712
SWIDTH 1140 0
DWIDTH 19 0
BBX 18 16 1 0
BITMAP
000040
000380
001C40
002380
001E40
002240
001180
000800
000400
000200
800200
800100
800100
800100
400600
3FF800
ENDCHAR
STARTCHAR 06B1
ENCODING 1713
SWIDTH 1140 0
DWIDTH 19 0
BBX 18 17 1 0
BITMAP
002400
000040
000380
001C40
002380
001C00
002000
001000
000800
000400
000200
800200
800100
800100
800100
400600
3FF800
ENDCHAR
STARTCHAR 06B2
ENCODING 1714
SWIDTH 1140 0
DWIDTH 19 0
BBX 18 20 1 -4
BITMAP
000040
000380
001C40
002380
001C00
002000
001000
000800
000400
000200
800200
800100
800100
800100
400600
3FF800
000000
000000
000000
090000
ENDCHAR
STARTCHAR 06B3
ENCODING 1715
SWIDTH 1140 0
DWIDTH 19 0
BBX 18 24 1 -8
BITMAP
000040
000380
001C40
002380
001C00
002000
001000
000800
000400
000200
800200
800100
800100
800100
400600
3FF800
000000
000000
000000
000000
040000
000000
000000
040000
ENDCHAR
STARTCHAR 06B4
ENCODING 1716
SWIDTH 1140 0
DWIDTH 19 0
BBX 18 19 1 0
BITMAP
000800
000000
002200
000040
000380
001C40
002380
001C00
002000
001000
000800
000400
000200
800200
800100
800100
800100
400600
3FF800
ENDCHAR
STARTCHAR 06B5
ENCODING 1717
SWIDTH 960 0
DWIDTH 16 0
BBX 15 25 1 -6
BITMAP
0022
0014
0008
0008
0000
0008
0008
0008
0008
0008
0008
0008
0008
0008
0008
0008
0008
0008
8008
8008
8008
8008
8010
4060
3F80
ENDCHAR
STARTCHAR 06B6
ENCODING 1718
SWIDTH 960 0
DWIDTH 16 0
BBX 13 23 1 -6
BITMAP
0008
0000
0000
0008
0008
0008
0008
0008
0008
0008
0008
0008
0008
0008
0008
0008
8008
8008
8008
8008
8010
4060
3F80
ENDCHAR
STARTCHAR 06B7
ENCODING 1719
SWIDTH 960 0
DWIDTH 16 0
BBX 15 24 1 -6
BITMAP
0008
0000
0022
0000
0008
0008
0008
0008
0008
0008
0008
0008
0008
0008
0008
0008
0008
8008
8008
8008
8008
8010
4060
3F80
ENDCHAR
STARTCHAR 06BA
ENCODING 1722
SWIDTH 900 0
DWIDTH 15 0
BBX 13 9 1 -6
BITMAP
0008
8008
8008
8008
8008
8010
4010
6060
1F80
ENDCHAR
STARTCHAR 06BB
ENCODING 1723
SWIDTH 900 0
DWIDTH 15 0
BBX 13 15 1 -6
BITMAP
0200
02C0
0340
07C0
0000
0000
0008
8008
8008
8008
8008
8010
4010
6060
1F80
ENDCHAR
STARTCHAR 06BC
ENCODING 1724
SWIDTH 900 0
DWIDTH 15 0
BBX 13 16 1 -9
BITMAP
0200
0000
0000
0000
0008
8008
8008
8008
8008
8010
4010
6060
1F80
0900
0900
0600
ENDCHAR
STARTCHAR 06BD
ENCODING 1725
SWIDTH 900 0
DWIDTH 15 0
BBX 13 15 1 -6
BITMAP
0100
0000
0440
0000
0000
0000
0008
8008
8008
8008
8008
8010
4010
6060
1F80
ENDCHAR
STARTCHAR 06BE
ENCODING 1726
SWIDTH 660 0
DWIDTH 11 0
BBX 11 8 -1 0
BITMAP
1C00
0F00
1180
20C0
20A0
1120
1E20
F3C0
ENDCHAR
STARTCHAR 06C0
ENCODING 1728
SWIDTH 540 0
DWIDTH 9 0
BBX 7 16 1 0
BITMAP
0C
10
10
10
0C
30
00
00
10
28
44
82
82
82
84
78
ENDCHAR
STARTCHAR 06C1
ENCODING 1729
SWIDTH 780 0
DWIDTH 13 0
BBX 13 5 0 0
BITMAP
0380
0440
0820
1010
E008
ENDCHAR
STARTCHAR 06C2
ENCODING 1730
SWIDTH 780 0
DWIDTH 13 0
BBX 13 13 0 0
BITMAP
00C0
0100
0100
0100
00C0
0300
0000
0000
0380
0440
0820
1010
E008
ENDCHAR
STARTCHAR 06C3
ENCODING 1731
SWIDTH 780 0
DWIDTH 13 0
BBX 13 8 0 0
BITMAP
0240
0000
0000
0380
0440
0820
1010
E008
ENDCHAR
STARTCHAR 06C4
ENCODING 1732
SWIDTH 480 0
DWIDTH 8 0
BBX 8 13 -1 -7
BITMAP
0C
12
21
21
21
1F
02
02
64
98
90
60
40
ENDCHAR
STARTCHAR 06C5
ENCODING 1733
SWIDTH 480 0
DWIDTH 8 0
BBX 8 13 -1 -7
BITMAP
0C
12
21
21
21
1F
02
02
C4
38
10
20
40
ENDCHAR
STARTCHAR 06C6
ENCODING 1734
SWIDTH 480 0
DWIDTH 8 0
BBX 7 19 0 -7
BITMAP
22
14
08
08
00
00
18
24
42
42
42
3E
04
04
08
10
20
40
80
ENDCHAR
STARTCHAR 06C7
ENCODING 1735
SWIDTH 480 0
DWIDTH 8 0
BBX 8 20 0 -7
BITMAP
06
0A
0A
07
38
00
00
18
24
42
42
42
3E
04
04
08
10
20
40
80
ENDCHAR
STARTCHAR 06C8
ENCODING 1736
SWIDTH 480 0
DWIDTH 8 0
BBX 7 20 0 -7
BITMAP
08
08
08
08
00
00
00
18
24
42
42
42
3E
04
04
08
10
20
40
80
ENDCHAR
STARTCHAR 06C9
ENCODING 1737
SWIDTH 480 0
DWIDTH 8 0
BBX 8 19 0 -7
BITMAP
04
04
0A
11
00
00
18
24
42
42
42
3E
04
04
08
10
20
40
80
ENDCHAR
STARTCHAR 06CA
ENCODING 1738
SWIDTH 480 0
DWIDTH 8 0
BBX 7 16 0 -7
BITMAP
12
00
00
18
24
42
42
42
3E
04
04
08
10
20
40
80
ENDCHAR
STARTCHAR 06CB
ENCODING 1739
SWIDTH 480 0
DWIDTH 8 0
BBX 7 18 0 -7
BITMAP
08
00
22
00
00
18
24
42
42
42
3E
04
04
08
10
20
40
80
ENDCHAR
STARTCHAR 06CC
ENCODING 1740
SWIDTH 960 0
DWIDTH 16 0
BBX 14 12 1 -3
BITMAP
001C
0060
0040
8080
8080
8080
807C
8004
8008
8018
4060
3F80
ENDCHAR
STARTCHAR 06CD
ENCODING 1741
SWIDTH 960 0
DWIDTH 16 0
BBX 17 12 -2 -3
BITMAP
000380
000400
000800
781000
901000
101000
100F80
100080
100100
100300
080C00
07F000
ENDCHAR
STARTCHAR 06CE
ENCODING 1742
SWIDTH 960 0
DWIDTH 16 0
BBX 14 15 1 -3
BITMAP
0440
0280
0100
011C
0060
0040
8080
8080
8080
807C
8004
8008
8018
4060
3F80
ENDCHAR
STARTCHAR 06D0
ENCODING 1744
SWIDTH 960 0
DWIDTH 16 0
BBX 14 19 1 -10
BITMAP
001C
0060
0040
8080
8080
8080
807C
8004
8008
8018
4060
3F80
0000
0000
0000
0400
0000
0000
0400
ENDCHAR
STARTCHAR 06D1
ENCODING 1745
SWIDTH 960 0
DWIDTH 16 0
BBX 14 17 1 -8
BITMAP
001C
0060
0040
8080
8080
8080
807C
8004
8008
8018
4060
3F80
0000
0000
1100
0000
0400
ENDCHAR
STARTCHAR 06D2
ENCODING 1746
SWIDTH 840 0
DWIDTH 14 0
BBX 13 9 1 -1
BITMAP
00E0
0100
0200
0400
0800
1000
6000
8000
FFF8
ENDCHAR
STARTCHAR 06D3
ENCODING 1747
SWIDTH 840 0
DWIDTH 14 0
BBX 13 13 1 -1
BITMAP
0C00
1000
1000
1000
0CE0
3100
0200
0400
0800
1000
6000
8000
FFF8
ENDCHAR
STARTCHAR 06D4
ENCODING 1748
SWIDTH 540 0
DWIDTH 9 0
BBX 7 1 1 5
BITMAP
FE
ENDCHAR
STARTCHAR 06D5
ENCODING 1749
SWIDTH 540 0
DWIDTH 9 0
BBX 7 8 1 0
BITMAP
10
28
44
82
82
82
84
78
ENDCHAR
STARTCHAR 06D6
ENCODING 1750
SWIDTH 0 0
DWIDTH 0 0
BBX 13 7 0 10
BITMAP
0400
0400
0418
04A8
7B70
8000
F000
ENDCHAR
STARTCHAR 06D7
ENCODING 1751
SWIDTH 0 0
DWIDTH 0 0
BBX 9 8 0 10
BITMAP
0180
0400
0580
0580
0580
7B00
8000
F000
ENDCHAR
STARTCHAR 06D8
ENCODING 1752
SWIDTH 0 0
DWIDTH 0 0
BBX 4 3 0 10
BITMAP
20
50
B0
ENDCHAR
STARTCHAR 06D9
ENCODING 1753
SWIDTH 0 0
DWIDTH 0 0
BBX 3 5 0 10
BITMAP
A0
60
60
60
E0
ENDCHAR
STARTCHAR 06DA
ENCODING 1754
SWIDTH 0 0
DWIDTH 0 0
BBX 4 5 0 10
BITMAP
F0
40
90
80
70
ENDCHAR
STARTCHAR 06DB
ENCODING 1755
SWIDTH 0 0
DWIDTH 0 0
BBX 3 2 0 10
BITMAP
40
A0
ENDCHAR
STARTCHAR 06DC
ENCODING 1756
SWIDTH 0 0
DWIDTH 0 0
BBX 9 5 0 10
BITMAP
0080
0A80
8F80
8800
7000
ENDCHAR
STARTCHAR 06DD
ENCODING 1757
SWIDTH 1200 0
DWIDTH 20 0
BBX 17 17 2 -2
BITMAP
008000
014000
03E000
0C1800
11C400
124400
2E3A00
680B00
A80A80
641300
241200
16B400
136400
0C1800
03E000
014000
008000
ENDCHAR
STARTCHAR 06DE
ENCODING 1758
SWIDTH 900 0
DWIDTH 15 0
BBX 13 13 1 0
BITMAP
0200
0500
0D80
3AC0
38E0
6030
9048
6030
38E0
2AC0
1D80
0500
0200
ENDCHAR
STARTCHAR 06DF
ENCODING 1759
SWIDTH 0 0
DWIDTH 0 0
BBX 1 1 0 10
BITMAP
80
ENDCHAR
STARTCHAR 06E0
ENCODING 1760
SWIDTH 0 0
DWIDTH 0 0
BBX 1 1 0 10
BITMAP
80
ENDCHAR
STARTCHAR 06E1
ENCODING 1761
SWIDTH 0 0
DWIDTH 0 0
BBX 4 3 0 10
BITMAP
C0
30
C0
ENDCHAR
STARTCHAR 06E2
ENCODING 1762
SWIDTH 0 0
DWIDTH 0 0
BBX 3 5 0 10
BITMAP
40
60
E0
80
80
ENDCHAR
STARTCHAR 06E3
ENCODING 1763
SWIDTH 0 0
DWIDTH 0 0
BBX 9 5 0 -6
BITMAP
0080
0A80
8F80
8800
7000
ENDCHAR
STARTCHAR 06E4
ENCODING 1764
SWIDTH 240 0
DWIDTH 4 0
BBX 2 1 0 10
BITMAP
C0
ENDCHAR
STARTCHAR 06E5
ENCODING 1765
SWIDTH 420 0
DWIDTH 7 0
BBX 3 5 0 10
BITMAP
60
60
20
40
80
ENDCHAR
STARTCHAR 06E6
ENCODING 1766
SWIDTH 420 0
DWIDTH 7 0
BBX 5 4 1 10
BITMAP
10
60
80
F8
ENDCHAR
STARTCHAR 06E7
ENCODING 1767
SWIDTH 0 0
DWIDTH 0 0
BBX 5 4 0 10
BITMAP
10
60
80
F8
ENDCHAR
STARTCHAR 06E8
ENCODING 1768
SWIDTH 0 0
DWIDTH 0 0
BBX 5 5 0 10
BITMAP
20
00
88
88
70
ENDCHAR
STARTCHAR 06E9
ENCODING 1769
SWIDTH 660 0
DWIDTH 11 0
BBX 9 13 1 0
BITMAP
0800
1400
1400
1400
3600
2200
2200
6300
4100
4100
4100
4100
FF80
ENDCHAR
STARTCHAR 06EA
ENCODING 1770
SWIDTH 0 0
DWIDTH 0 0
BBX 3 3 0 -5
BITMAP
40
A0
40
ENDCHAR
STARTCHAR 06EB
ENCODING 1771
SWIDTH 240 0
DWIDTH 4 0
BBX 3 3 0 10
BITMAP
40
A0
40
ENDCHAR
STARTCHAR 06EC
ENCODING 1772
SWIDTH 240 0
DWIDTH 4 0
BBX 2 2 0 10
BITMAP
C0
C0
ENDCHAR
STARTCHAR 06ED
ENCODING 1773
SWIDTH 0 0
DWIDTH 0 0
BBX 3 5 0 -7
BITMAP
40
60
E0
80
80
ENDCHAR
STARTCHAR 06F0
ENCODING 1776
SWIDTH 660 0
DWIDTH 11 0
BBX 3 3 4 5
BITMAP
40
E0
40
ENDCHAR
STARTCHAR 06F1
ENCODING 1777
SWIDTH 660 0
DWIDTH 11 0
BBX 1 12 5 0
BITMAP
80
80
80
80
80
80
80
80
80
80
80
80
ENDCHAR
STARTCHAR 06F2
ENCODING 1778
SWIDTH 660 0
DWIDTH 11 0
BBX 7 12 3 0
BITMAP
82
82
C4
B8
80
80
80
80
80
80
80
80
ENDCHAR
STARTCHAR 06F3
ENCODING 1779
SWIDTH 660 0
DWIDTH 11 0
BBX 9 12 1 0
BITMAP
8880
8880
8880
F700
8000
8000
8000
8000
8000
8000
8000
8000
ENDCHAR
STARTCHAR 06F4
ENCODING 1780
SWIDTH 660 0
DWIDTH 11 0
BBX 7 12 2 0
BITMAP
06
88
D0
B0
98
86
80
80
80
80
80
80
ENDCHAR
STARTCHAR 06F5
ENCODING 1781
SWIDTH 660 0
DWIDTH 11 0
BBX 9 12 1 0
BITMAP
0400
0C00
1200
2200
2100
4100
4100
8080
8080
8080
8880
7700
ENDCHAR
STARTCHAR 06F6
ENCODING 1782
SWIDTH 660 0
DWIDTH 11 0
BBX 6 12 2 0
BITMAP
0C
30
40
40
80
80
84
78
10
20
40
80
ENDCHAR
STARTCHAR 06F7
ENCODING 1783
SWIDTH 660 0
DWIDTH 11 0
BBX 11 12 0 0
BITMAP
8020
4040
4040
2080
2080
1100
1100
1100
0A00
0A00
0400
0400
ENDCHAR
STARTCHAR 06F8
ENCODING 1784
SWIDTH 660 0
DWIDTH 11 0
BBX 11 12 0 0
BITMAP
0400
0400
0A00
0A00
1100
1100
2080
2080
4040
4040
8020
8020
ENDCHAR
STARTCHAR 06F9
ENCODING 1785
SWIDTH 660 0
DWIDTH 11 0
BBX 6 12 1 0
BITMAP
38
44
C4
84
44
3C
04
04
04
04
04
04
ENDCHAR
STARTCHAR 0901
ENCODING 2305
SWIDTH 0 0
DWIDTH 0 0
BBX 9 4 -7 12
BITMAP
0800
8880
4100
3E00
ENDCHAR
STARTCHAR 0902
ENCODING 2306
SWIDTH 0 0
DWIDTH 0 0
BBX 1 2 -3 13
BITMAP
80
80
ENDCHAR
STARTCHAR 0903
ENCODING 2307
SWIDTH 180 0
DWIDTH 3 0
BBX 1 7 2 1
BITMAP
80
80
00
00
00
80
80
ENDCHAR
STARTCHAR 0905
ENCODING 2309
SWIDTH 780 0
DWIDTH 13 0
BBX 13 11 1 0
BITMAP
1CF8
2240
0240
0240
1C40
84C0
8340
4240
2240
1C40
0040
ENDCHAR
STARTCHAR 0906
ENCODING 2310
SWIDTH 1080 0
DWIDTH 18 0
BBX 18 11 1 0
BITMAP
1CFFC0
224200
024200
024200
1C4200
84C200
834200
424200
224200
1C4200
004200
ENDCHAR
STARTCHAR 0907
ENCODING 2311
SWIDTH 540 0
DWIDTH 9 0
BBX 10 14 0 -3
BITMAP
FFC0
0400
0400
3C00
4000
4000
3E00
0100
0100
2100
3E00
0800
0800
0400
ENDCHAR
STARTCHAR 0908
ENCODING 2312
SWIDTH 540 0
DWIDTH 9 0
BBX 10 19 0 -3
BITMAP
0600
0900
0800
0800
0400
FFC0
0400
0400
3C00
4000
4000
3E00
0100
0100
2100
3E00
0800
0800
0400
ENDCHAR
STARTCHAR 0909
ENCODING 2313
SWIDTH 600 0
DWIDTH 10 0
BBX 11 11 0 0
BITMAP
FFE0
0100
0100
0100
0100
1E00
0200
4100
4100
2100
1E00
ENDCHAR
STARTCHAR 090A
ENCODING 2314
SWIDTH 720 0
DWIDTH 12 0
BBX 13 11 0 0
BITMAP
FFF8
0100
0100
0100
0100
1E00
02C0
4120
4120
2120
1E40
ENDCHAR
STARTCHAR 090B
ENCODING 2315
SWIDTH 900 0
DWIDTH 15 0
BBX 15 12 0 -1
BITMAP
FFFE
0100
0100
3D60
43E0
0120
0320
0D30
3140
4140
0142
003C
ENDCHAR
STARTCHAR 090C
ENCODING 2316
SWIDTH 780 0
DWIDTH 13 0
BBX 14 11 0 0
BITMAP
FFFC
0080
0080
1DC0
2320
4410
4430
4040
2080
1088
0070
ENDCHAR
STARTCHAR 090D
ENCODING 2317
SWIDTH 600 0
DWIDTH 10 0
BBX 11 18 0 -3
BITMAP
0820
0440
0380
0000
FFE0
2100
2100
2100
2100
2100
2100
2200
1000
0800
0600
0300
0100
0100
ENDCHAR
STARTCHAR 090E
ENCODING 2318
SWIDTH 600 0
DWIDTH 10 0
BBX 11 19 0 -3
BITMAP
4000
4600
3900
0100
0100
FFE0
2100
2100
2100
2100
2100
2100
2200
1000
0800
0600
0300
0100
0100
ENDCHAR
STARTCHAR 090F
ENCODING 2319
SWIDTH 600 0
DWIDTH 10 0
BBX 11 14 0 -3
BITMAP
FFE0
2100
2100
2100
2100
2100
2100
2200
1000
0800
0600
0300
0100
0100
ENDCHAR
STARTCHAR 0910
ENCODING 2320
SWIDTH 600 0
DWIDTH 10 0
BBX 11 19 0 -3
BITMAP
7800
0400
0200
0100
0100
FFE0
2100
2100
2100
2100
2100
2100
2200
1000
0800
0600
0300
0100
0100
ENDCHAR
STARTCHAR 0911
ENCODING 2321
SWIDTH 1080 0
DWIDTH 18 0
BBX 18 15 1 0
BITMAP
001040
000880
000700
000000
1CFFC0
224200
024200
024200
1C4200
84C200
834200
424200
224200
1C4200
004200
ENDCHAR
STARTCHAR 0912
ENCODING 2322
SWIDTH 1080 0
DWIDTH 18 0
BBX 18 16 1 0
BITMAP
008000
008C00
007200
000200
000200
1CFFC0
224200
024200
024200
1C4200
84C200
834200
424200
224200
1C4200
004200
ENDCHAR
STARTCHAR 0913
ENCODING 2323
SWIDTH 1080 0
DWIDTH 18 0
BBX 18 16 1 0
BITMAP
00F000
000800
000400
000200
000200
1CFFC0
224200
024200
024200
1C4200
84C200
834200
424200
224200
1C4200
004200
ENDCHAR
STARTCHAR 0914
ENCODING 2324
SWIDTH 1080 0
DWIDTH 18 0
BBX 18 16 1 0
BITMAP
007000
000800
007400
000C00
000600
1CFFC0
224200
024200
024200
1C4200
84C200
834200
424200
224200
1C4200
004200
ENDCHAR
STARTCHAR 0915
ENCODING 2325
SWIDTH 720 0
DWIDTH 12 0
BBX 13 11 0 0
BITMAP
FFF8
0200
0200
3AC0
4320
4220
4220
2620
1A40
0240
0200
ENDCHAR
STARTCHAR 0916
ENCODING 2326
SWIDTH 720 0
DWIDTH 12 0
BBX 13 11 0 0
BITMAP
FFF8
1040
1340
1440
7440
2440
23C0
1040
0840
07C0
0040
ENDCHAR
STARTCHAR 0917
ENCODING 2327
SWIDTH 600 0
DWIDTH 10 0
BBX 11 11 0 0
BITMAP
FFE0
1100
1100
1100
1100
1100
7100
7100
2100
0100
0100
ENDCHAR
STARTCHAR 0918
ENCODING 2328
SWIDTH 660 0
DWIDTH 11 0
BBX 12 11 0 0
BITMAP
FFF0
4080
4080
4080
3C80
1080
2080
2180
2280
1C80
0080
ENDCHAR
STARTCHAR 0919
ENCODING 2329
SWIDTH 660 0
DWIDTH 11 0
BBX 12 11 0 0
BITMAP
FFF0
0200
0200
1E00
2040
2040
1F00
8080
4080
2080
1F00
ENDCHAR
STARTCHAR 091A
ENCODING 2330
SWIDTH 660 0
DWIDTH 11 0
BBX 12 11 0 0
BITMAP
FFF0
0080
0080
FC80
2080
4080
4180
4280
3C80
0080
0080
ENDCHAR
STARTCHAR 091B
ENCODING 2331
SWIDTH 600 0
DWIDTH 10 0
BBX 11 11 0 0
BITMAP
FFE0
0100
3B00
4280
4280
4280
3980
4100
4100
4200
3C00
ENDCHAR
STARTCHAR 091C
ENCODING 2332
SWIDTH 660 0
DWIDTH 11 0
BBX 12 11 0 0
BITMAP
FFF0
0080
0080
0080
8F80
8880
4480
2480
1880
0080
0080
ENDCHAR
STARTCHAR 091D
ENCODING 2333
SWIDTH 780 0
DWIDTH 13 0
BBX 14 14 0 -3
BITMAP
FFFC
0420
0420
3C20
4020
4020
3FE0
0220
0220
2220
3C20
0800
0800
0400
ENDCHAR
STARTCHAR 091E
ENCODING 2334
SWIDTH 720 0
DWIDTH 12 0
BBX 13 11 0 0
BITMAP
FFF8
0040
0040
1840
2440
02C0
8340
4240
2240
1C40
0040
ENDCHAR
STARTCHAR 091F
ENCODING 2335
SWIDTH 540 0
DWIDTH 9 0
BBX 10 11 0 0
BITMAP
FFC0
0400
0400
0400
1C00
2000
4000
4000
4000
2100
1E00
ENDCHAR
STARTCHAR 0920
ENCODING 2336
SWIDTH 600 0
DWIDTH 10 0
BBX 11 11 0 0
BITMAP
FFE0
0400
0400
0E00
3100
4080
4080
4080
4080
2100
1E00
ENDCHAR
STARTCHAR 0921
ENCODING 2337
SWIDTH 600 0
DWIDTH 10 0
BBX 11 11 0 0
BITMAP
FFE0
0200
0200
1E00
2000
2000
1F00
8080
4080
2080
1F00
ENDCHAR
STARTCHAR 0922
ENCODING 2338
SWIDTH 540 0
DWIDTH 9 0
BBX 10 11 0 0
BITMAP
FFC0
0400
0400
1C00
2000
4000
4600
4900
4900
2900
1E00
ENDCHAR
STARTCHAR 0923
ENCODING 2339
SWIDTH 660 0
DWIDTH 11 0
BBX 12 11 0 0
BITMAP
FFF0
4480
4480
4480
4480
4480
4480
4480
3880
0080
0080
ENDCHAR
STARTCHAR 0924
ENCODING 2340
SWIDTH 600 0
DWIDTH 10 0
BBX 11 11 0 0
BITMAP
FFE0
0100
0100
0100
3F00
4100
4100
4100
2100
2100
1100
ENDCHAR
STARTCHAR 0925
ENCODING 2341
SWIDTH 660 0
DWIDTH 11 0
BBX 12 11 0 0
BITMAP
3BF0
4480
4480
2480
0480
1880
E080
4180
3E80
0080
0080
ENDCHAR
STARTCHAR 0926
ENCODING 2342
SWIDTH 540 0
DWIDTH 9 0
BBX 10 14 0 -3
BITMAP
FFC0
0400
0400
1C00
2000
4000
4000
4000
4300
2300
1E00
0100
0080
0080
ENDCHAR
STARTCHAR 0927
ENCODING 2343
SWIDTH 660 0
DWIDTH 11 0
BBX 12 11 0 0
BITMAP
71F0
8880
9880
4080
3C80
2080
4080
4180
4280
3C80
0080
ENDCHAR
STARTCHAR 0928
ENCODING 2344
SWIDTH 600 0
DWIDTH 10 0
BBX 11 11 0 0
BITMAP
FFE0
0100
0100
0100
7F00
7100
3100
0100
0100
0100
0100
ENDCHAR
STARTCHAR 0929
ENCODING 2345
SWIDTH 600 0
DWIDTH 10 0
BBX 11 11 0 0
BITMAP
FFE0
0100
0100
0100
7F00
7100
3100
0100
0100
1100
1100
ENDCHAR
STARTCHAR 092A
ENCODING 2346
SWIDTH 540 0
DWIDTH 9 0
BBX 10 11 0 0
BITMAP
FFC0
4200
4200
4200
4200
4200
4200
4600
3A00
0200
0200
ENDCHAR
STARTCHAR 092B
ENCODING 2347
SWIDTH 720 0
DWIDTH 12 0
BBX 13 11 0 0
BITMAP
FFF8
4200
4200
4200
42C0
4320
4220
4620
3A20
0240
0200
ENDCHAR
STARTCHAR 092C
ENCODING 2348
SWIDTH 600 0
DWIDTH 10 0
BBX 11 11 0 0
BITMAP
FFE0
0100
0100
3D00
6100
5100
4B00
4500
3900
0100
0100
ENDCHAR
STARTCHAR 092D
ENCODING 2349
SWIDTH 660 0
DWIDTH 11 0
BBX 12 11 0 0
BITMAP
67F0
9080
9080
9080
7080
1080
7F80
7080
3080
0080
0080
ENDCHAR
STARTCHAR 092E
ENCODING 2350
SWIDTH 540 0
DWIDTH 9 0
BBX 10 11 0 0
BITMAP
FFC0
2200
2200
2200
2200
2200
7E00
6200
2200
0200
0200
ENDCHAR
STARTCHAR 092F
ENCODING 2351
SWIDTH 660 0
DWIDTH 11 0
BBX 12 11 0 0
BITMAP
FFF0
0880
0880
0880
0880
1080
6080
2180
1E80
0080
0080
ENDCHAR
STARTCHAR 0930
ENCODING 2352
SWIDTH 420 0
DWIDTH 7 0
BBX 8 11 0 0
BITMAP
FF
10
10
10
70
70
60
20
10
08
04
ENDCHAR
STARTCHAR 0931
ENCODING 2353
SWIDTH 420 0
DWIDTH 7 0
BBX 8 13 0 -2
BITMAP
FF
10
10
10
70
70
60
20
10
08
04
20
20
ENDCHAR
STARTCHAR 0932
ENCODING 2354
SWIDTH 660 0
DWIDTH 11 0
BBX 12 11 0 0
BITMAP
FFF0
0080
0080
1980
2680
4480
4880
4880
4080
2080
1080
ENDCHAR
STARTCHAR 0933
ENCODING 2355
SWIDTH 720 0
DWIDTH 12 0
BBX 13 11 0 0
BITMAP
FFF8
0080
0080
38C0
4520
4620
4220
4420
4620
4A40
3180
ENDCHAR
STARTCHAR 0934
ENCODING 2356
SWIDTH 720 0
DWIDTH 12 0
BBX 13 14 0 -3
BITMAP
FFF8
0080
0080
38C0
4520
4620
4220
4420
4620
4A40
3180
0000
0400
0400
ENDCHAR
STARTCHAR 0935
ENCODING 2357
SWIDTH 600 0
DWIDTH 10 0
BBX 11 11 0 0
BITMAP
FFE0
0100
0100
3D00
4100
4300
4500
3900
0100
0100
0100
ENDCHAR
STARTCHAR 0936
ENCODING 2358
SWIDTH 660 0
DWIDTH 11 0
BBX 11 11 1 0
BITMAP
3BE0
4500
4500
4500
2500
1900
D100
E100
1100
0900
0500
ENDCHAR
STARTCHAR 0937
ENCODING 2359
SWIDTH 540 0
DWIDTH 9 0
BBX 10 11 0 0
BITMAP
FFC0
6200
5200
5200
4A00
4600
4200
3E00
0200
0200
0200
ENDCHAR
STARTCHAR 0938
ENCODING 2360
SWIDTH 660 0
DWIDTH 11 0
BBX 12 11 0 0
BITMAP
FFF0
0880
0880
0880
7880
7780
6080
2080
1080
0C80
0280
ENDCHAR
STARTCHAR 0939
ENCODING 2361
SWIDTH 540 0
DWIDTH 9 0
BBX 10 15 0 -4
BITMAP
FFC0
0200
0200
7E00
4000
4000
3E00
2100
4100
4100
4200
4000
2000
1800
0600
ENDCHAR
STARTCHAR 093C
ENCODING 2364
SWIDTH 0 0
DWIDTH 0 0
BBX 1 2 -5 -2
BITMAP
80
80
ENDCHAR
STARTCHAR 093D
ENCODING 2365
SWIDTH 480 0
DWIDTH 8 0
BBX 6 11 1 0
BITMAP
7C
80
80
80
60
10
08
04
84
44
38
ENDCHAR
STARTCHAR 093E
ENCODING 2366
SWIDTH 300 0
DWIDTH 5 0
BBX 6 11 0 0
BITMAP
FC
20
20
20
20
20
20
20
20
20
20
ENDCHAR
STARTCHAR 093F
ENCODING 2367
SWIDTH 300 0
DWIDTH 5 0
BBX 9 16 0 0
BITMAP
3800
4400
4200
4100
2080
FC00
2000
2000
2000
2000
2000
2000
2000
2000
2000
2000
ENDCHAR
STARTCHAR 0940
ENCODING 2368
SWIDTH 300 0
DWIDTH 5 0
BBX 10 16 -4 0
BITMAP
7000
8800
8400
8400
4200
0FC0
0200
0200
0200
0200
0200
0200
0200
0200
0200
0200
ENDCHAR
STARTCHAR 0941
ENCODING 2369
SWIDTH 0 0
DWIDTH 0 0
BBX 7 4 -7 -4
BITMAP
0C
82
62
1C
ENDCHAR
STARTCHAR 0942
ENCODING 2370
SWIDTH 0 0
DWIDTH 0 0
BBX 7 4 -6 -4
BITMAP
70
8C
82
60
ENDCHAR
STARTCHAR 0943
ENCODING 2371
SWIDTH 0 0
DWIDTH 0 0
BBX 5 5 -5 -4
BITMAP
20
40
80
88
70
ENDCHAR
STARTCHAR 0944
ENCODING 2372
SWIDTH 0 0
DWIDTH 0 0
BBX 5 7 -5 -6
BITMAP
60
80
80
70
80
80
78
ENDCHAR
STARTCHAR 0945
ENCODING 2373
SWIDTH 0 0
DWIDTH 0 0
BBX 7 3 -6 12
BITMAP
82
44
38
ENDCHAR
STARTCHAR 0946
ENCODING 2374
SWIDTH 0 0
DWIDTH 0 0
BBX 7 5 -9 11
BITMAP
80
8C
72
02
02
ENDCHAR
STARTCHAR 0947
ENCODING 2375
SWIDTH 0 0
DWIDTH 0 0
BBX 7 5 -9 11
BITMAP
F0
08
04
02
02
ENDCHAR
STARTCHAR 0948
ENCODING 2376
SWIDTH 0 0
DWIDTH 0 0
BBX 6 5 -8 11
BITMAP
E0
10
E8
18
0C
ENDCHAR
STARTCHAR 0949
ENCODING 2377
SWIDTH 300 0
DWIDTH 5 0
BBX 7 15 -1 0
BITMAP
82
44
38
00
7E
10
10
10
10
10
10
10
10
10
10
ENDCHAR
STARTCHAR 094A
ENCODING 2378
SWIDTH 300 0
DWIDTH 5 0
BBX 10 16 -4 0
BITMAP
8000
8C00
7200
0200
0200
0FC0
0200
0200
0200
0200
0200
0200
0200
0200
0200
0200
ENDCHAR
STARTCHAR 094B
ENCODING 2379
SWIDTH 300 0
DWIDTH 5 0
BBX 10 16 -4 0
BITMAP
F000
0800
0400
0200
0200
0FC0
0200
0200
0200
0200
0200
0200
0200
0200
0200
0200
ENDCHAR
STARTCHAR 094C
ENCODING 2380
SWIDTH 300 0
DWIDTH 5 0
BBX 9 16 -3 0
BITMAP
E000
1000
E800
1800
0C00
1F80
0400
0400
0400
0400
0400
0400
0400
0400
0400
0400
ENDCHAR
STARTCHAR 094D
ENCODING 2381
SWIDTH 0 0
DWIDTH 0 0
BBX 5 4 -5 -5
BITMAP
C0
20
10
08
ENDCHAR
STARTCHAR 0950
ENCODING 2384
SWIDTH 960 0
DWIDTH 16 0
BBX 15 14 0 1
BITMAP
0020
0222
0104
00F8
1C00
220C
0212
0222
1C22
8442
838C
4200
2200
1C00
ENDCHAR
STARTCHAR 0951
ENCODING 2385
SWIDTH 0 0
DWIDTH 0 0
BBX 1 4 -3 12
BITMAP
80
80
80
80
ENDCHAR
STARTCHAR 0952
ENCODING 2386
SWIDTH 0 0
DWIDTH 0 0
BBX 6 1 -6 -2
BITMAP
FC
ENDCHAR
STARTCHAR 0953
ENCODING 2387
SWIDTH 0 0
DWIDTH 0 0
BBX 4 3 -7 12
BITMAP
C0
60
30
ENDCHAR
STARTCHAR 0954
ENCODING 2388
SWIDTH 0 0
DWIDTH 0 0
BBX 4 3 -4 12
BITMAP
30
60
C0
ENDCHAR
STARTCHAR 0958
ENCODING 2392
SWIDTH 720 0
DWIDTH 12 0
BBX 13 12 0 -1
BITMAP
FFF8
0200
0200
3AC0
4320
4220
4220
2620
1A40
0240
4200
4000
ENDCHAR
STARTCHAR 0959
ENCODING 2393
SWIDTH 720 0
DWIDTH 12 0
BBX 13 14 0 -3
BITMAP
FFF8
1040
1340
1440
7440
2440
23C0
1040
0840
07C0
0040
0000
0400
0400
ENDCHAR
STARTCHAR 095A
ENCODING 2394
SWIDTH 600 0
DWIDTH 10 0
BBX 11 12 0 -1
BITMAP
FFE0
1100
1100
1100
1100
1100
7100
7100
2100
0100
2100
2000
ENDCHAR
STARTCHAR 095B
ENCODING 2395
SWIDTH 660 0
DWIDTH 11 0
BBX 12 12 0 -1
BITMAP
FFF0
0080
0080
0080
8F80
8880
4480
2480
1880
0080
1080
1000
ENDCHAR
STARTCHAR 095C
ENCODING 2396
SWIDTH 600 0
DWIDTH 10 0
BBX 11 15 0 -4
BITMAP
FFE0
0200
0200
1E00
2000
2000
1F00
8080
4080
2080
1F00
0000
0000
0800
0800
ENDCHAR
STARTCHAR 095D
ENCODING 2397
SWIDTH 540 0
DWIDTH 9 0
BBX 10 15 0 -4
BITMAP
FFC0
0400
0400
1C00
2000
4000
4600
4900
4900
2900
1E00
0000
0000
0800
0800
ENDCHAR
STARTCHAR 095E
ENCODING 2398
SWIDTH 720 0
DWIDTH 12 0
BBX 13 12 0 -1
BITMAP
FFF8
4200
4200
4200
42C0
4320
4220
4620
3A20
0240
2200
2000
ENDCHAR
STARTCHAR 095F
ENCODING 2399
SWIDTH 660 0
DWIDTH 11 0
BBX 12 13 0 -2
BITMAP
FFF0
0880
0880
0880
0880
1080
6080
2180
1E80
0080
0080
0800
0800
ENDCHAR
STARTCHAR 0960
ENCODING 2400
SWIDTH 900 0
DWIDTH 15 0
BBX 16 14 0 -3
BITMAP
FFFF
0100
0100
3D60
43E0
0120
0310
0D30
3140
4148
0138
0010
0012
000C
ENDCHAR
STARTCHAR 0961
ENCODING 2401
SWIDTH 780 0
DWIDTH 13 0
BBX 14 14 0 -3
BITMAP
FFFC
0080
0080
1DE0
2210
4410
4470
4080
2080
1070
0040
0080
0088
0070
ENDCHAR
STARTCHAR 0962
ENCODING 2402
SWIDTH 0 0
DWIDTH 0 0
BBX 7 7 -7 -7
BITMAP
6C
92
92
86
48
08
06
ENDCHAR
STARTCHAR 0963
ENCODING 2403
SWIDTH 0 0
DWIDTH 0 0
BBX 8 7 -7 -7
BITMAP
6C
92
96
84
42
04
03
ENDCHAR
STARTCHAR 0964
ENCODING 2404
SWIDTH 300 0
DWIDTH 5 0
BBX 1 11 2 0
BITMAP
80
80
80
80
80
80
80
80
80
80
80
ENDCHAR
STARTCHAR 0965
ENCODING 2405
SWIDTH 480 0
DWIDTH 8 0
BBX 4 11 2 0
BITMAP
90
90
90
90
90
90
90
90
90
90
90
ENDCHAR
STARTCHAR 0966
ENCODING 2406
SWIDTH 660 0
DWIDTH 11 0
BBX 7 7 2 2
BITMAP
38
44
82
82
82
44
38
ENDCHAR
STARTCHAR 0967
ENCODING 2407
SWIDTH 660 0
DWIDTH 11 0
BBX 4 12 4 -1
BITMAP
60
90
90
90
60
40
80
40
20
10
10
20
ENDCHAR
STARTCHAR 0968
ENCODING 2408
SWIDTH 660 0
DWIDTH 11 0
BBX 7 11 2 0
BITMAP
78
84
02
02
02
64
78
08
04
04
02
ENDCHAR
STARTCHAR 0969
ENCODING 2409
SWIDTH 660 0
DWIDTH 11 0
BBX 5 12 3 -1
BITMAP
70
88
08
08
70
08
08
88
F0
20
10
10
ENDCHAR
STARTCHAR 096A
ENCODING 2410
SWIDTH 660 0
DWIDTH 11 0
BBX 9 10 1 1
BITMAP
8080
4100
2200
1400
0800
0800
1400
2200
2200
1C00
ENDCHAR
STARTCHAR 096B
ENCODING 2411
SWIDTH 660 0
DWIDTH 11 0
BBX 7 11 2 0
BITMAP
40
80
80
8C
8C
8C
78
04
04
02
02
ENDCHAR
STARTCHAR 096C
ENCODING 2412
SWIDTH 660 0
DWIDTH 11 0
BBX 6 12 3 -1
BITMAP
70
88
80
80
70
40
80
8C
8C
78
08
04
ENDCHAR
STARTCHAR 096D
ENCODING 2413
SWIDTH 660 0
DWIDTH 11 0
BBX 9 8 1 1
BITMAP
8600
8900
8880
4780
4080
2080
1100
0E00
ENDCHAR
STARTCHAR 096E
ENCODING 2414
SWIDTH 660 0
DWIDTH 11 0
BBX 7 11 3 0
BITMAP
02
04
08
10
20
40
80
80
80
84
78
ENDCHAR
STARTCHAR 096F
ENCODING 2415
SWIDTH 660 0
DWIDTH 11 0
BBX 6 12 3 -1
BITMAP
70
88
88
88
50
20
10
10
08
04
04
08
ENDCHAR
STARTCHAR 0970
ENCODING 2416
SWIDTH 420 0
DWIDTH 7 0
BBX 3 3 2 1
BITMAP
40
A0
40
ENDCHAR
STARTCHAR 0E01
ENCODING 3585
SWIDTH 660 0
DWIDTH 11 0
BBX 8 9 1 0
BITMAP
3C
42
81
E1
41
41
41
41
41
ENDCHAR
STARTCHAR 0E02
ENCODING 3586
SWIDTH 660 0
DWIDTH 11 0
BBX 8 9 1 0
BITMAP
79
85
C5
05
09
11
21
21
7E
ENDCHAR
STARTCHAR 0E03
ENCODING 3587
SWIDTH 660 0
DWIDTH 11 0
BBX 9 9 0 0
BITMAP
6C80
9280
C280
0280
0480
0880
1080
1080
3F00
ENDCHAR
STARTCHAR 0E04
ENCODING 3588
SWIDTH 660 0
DWIDTH 11 0
BBX 8 9 1 0
BITMAP
3C
42
81
99
A1
A1
41
41
41
ENDCHAR
STARTCHAR 0E05
ENCODING 3589
SWIDTH 660 0
DWIDTH 11 0
BBX 8 9 1 0
BITMAP
34
4A
81
99
A1
A1
41
41
41
ENDCHAR
STARTCHAR 0E06
ENCODING 3590
SWIDTH 720 0
DWIDTH 12 0
BBX 10 9 0 0
BITMAP
6C40
9240
C240
0440
0840
3E40
4940
48C0
3040
ENDCHAR
STARTCHAR 0E07
ENCODING 3591
SWIDTH 480 0
DWIDTH 8 0
BBX 6 9 0 0
BITMAP
0C
04
04
84
44
44
24
24
18
ENDCHAR
STARTCHAR 0E08
ENCODING 3592
SWIDTH 540 0
DWIDTH 9 0
BBX 7 9 0 0
BITMAP
78
84
02
02
62
22
22
22
1C
ENDCHAR
STARTCHAR 0E09
ENCODING 3593
SWIDTH 660 0
DWIDTH 11 0
BBX 9 9 1 0
BITMAP
7800
8400
0200
0200
C700
4A80
5280
6280
4100
ENDCHAR
STARTCHAR 0E0A
ENCODING 3594
SWIDTH 660 0
DWIDTH 11 0
BBX 11 11 1 0
BITMAP
0020
0040
7840
8480
C500
0500
0900
1100
2100
2100
7E00
ENDCHAR
STARTCHAR 0E0B
ENCODING 3595
SWIDTH 660 0
DWIDTH 11 0
BBX 12 11 0 0
BITMAP
0010
0020
6C20
9240
C280
0280
0480
0880
1080
1080
3F00
ENDCHAR
STARTCHAR 0E0C
ENCODING 3596
SWIDTH 900 0
DWIDTH 15 0
BBX 12 9 1 0
BITMAP
3810
4410
8210
E210
4210
4710
4AD0
4A30
6410
ENDCHAR
STARTCHAR 0E0D
ENCODING 3597
SWIDTH 900 0
DWIDTH 15 0
BBX 12 13 1 -4
BITMAP
3C10
4210
8110
E110
4110
4110
4110
4110
63E0
0000
0610
0620
03C0
ENDCHAR
STARTCHAR 0E0E
ENCODING 3598
SWIDTH 660 0
DWIDTH 11 0
BBX 8 13 1 -4
BITMAP
3C
42
81
E1
41
41
41
41
C1
01
79
8D
73
ENDCHAR
STARTCHAR 0E0F
ENCODING 3599
SWIDTH 660 0
DWIDTH 11 0
BBX 8 13 1 -4
BITMAP
3C
42
81
E1
41
41
41
41
C1
11
75
9B
69
ENDCHAR
STARTCHAR 0E10
ENCODING 3600
SWIDTH 540 0
DWIDTH 9 0
BBX 8 13 1 -4
BITMAP
7F
80
FC
02
02
C2
42
42
3C
03
71
95
6B
ENDCHAR
STARTCHAR 0E11
ENCODING 3601
SWIDTH 780 0
DWIDTH 13 0
BBX 11 9 0 0
BITMAP
68E0
9520
C620
0420
0420
0820
0820
0820
0820
ENDCHAR
STARTCHAR 0E12
ENCODING 3602
SWIDTH 960 0
DWIDTH 16 0
BBX 12 9 2 0
BITMAP
3410
4A10
8110
9910
8910
9390
6550
4530
4210
ENDCHAR
STARTCHAR 0E13
ENCODING 3603
SWIDTH 1020 0
DWIDTH 17 0
BBX 15 9 1 0
BITMAP
3C08
4208
8108
E108
411C
412A
414A
418A
6104
ENDCHAR
STARTCHAR 0E14
ENCODING 3604
SWIDTH 660 0
DWIDTH 11 0
BBX 8 9 1 0
BITMAP
3C
42
81
99
89
91
71
41
41
ENDCHAR
STARTCHAR 0E15
ENCODING 3605
SWIDTH 660 0
DWIDTH 11 0
BBX 8 9 1 0
BITMAP
34
4A
81
99
89
91
71
41
41
ENDCHAR
STARTCHAR 0E16
ENCODING 3606
SWIDTH 660 0
DWIDTH 11 0
BBX 8 9 1 0
BITMAP
3C
42
81
E1
41
41
41
41
61
ENDCHAR
STARTCHAR 0E17
ENCODING 3607
SWIDTH 660 0
DWIDTH 11 0
BBX 8 9 1 0
BITMAP
C7
49
51
51
61
61
41
41
41
ENDCHAR
STARTCHAR 0E18
ENCODING 3608
SWIDTH 600 0
DWIDTH 10 0
BBX 8 9 1 0
BITMAP
7F
80
FC
02
42
42
42
42
FC
ENDCHAR
STARTCHAR 0E19
ENCODING 3609
SWIDTH 660 0
DWIDTH 11 0
BBX 9 9 1 0
BITMAP
C200
4200
4200
4200
4700
4A80
5280
6280
4100
ENDCHAR
STARTCHAR 0E1A
ENCODING 3610
SWIDTH 600 0
DWIDTH 10 0
BBX 7 9 1 0
BITMAP
C2
42
42
42
42
42
42
42
FC
ENDCHAR
STARTCHAR 0E1B
ENCODING 3611
SWIDTH 600 0
DWIDTH 10 0
BBX 7 11 1 0
BITMAP
02
02
C2
42
42
42
42
42
42
42
FC
ENDCHAR
STARTCHAR 0E1C
ENCODING 3612
SWIDTH 660 0
DWIDTH 11 0
BBX 7 9 2 0
BITMAP
C2
82
82
82
82
92
AA
C6
82
ENDCHAR
STARTCHAR 0E1D
ENCODING 3613
SWIDTH 660 0
DWIDTH 11 0
BBX 7 11 2 0
BITMAP
02
02
C2
82
82
82
82
92
AA
C6
82
ENDCHAR
STARTCHAR 0E1E
ENCODING 3614
SWIDTH 780 0
DWIDTH 13 0
BBX 10 9 1 0
BITMAP
C440
4440
4A40
4A40
5140
5140
60C0
60C0
4040
ENDCHAR
STARTCHAR 0E1F
ENCODING 3615
SWIDTH 780 0
DWIDTH 13 0
BBX 10 11 1 0
BITMAP
0040
0040
C440
4440
4A40
4A40
5140
5140
60C0
60C0
4040
ENDCHAR
STARTCHAR 0E20
ENCODING 3616
SWIDTH 660 0
DWIDTH 11 0
BBX 8 9 1 0
BITMAP
3C
42
81
E1
41
41
41
41
C1
ENDCHAR
STARTCHAR 0E21
ENCODING 3617
SWIDTH 660 0
DWIDTH 11 0
BBX 8 9 1 0
BITMAP
61
21
21
21
71
A9
A5
A3
41
ENDCHAR
STARTCHAR 0E22
ENCODING 3618
SWIDTH 600 0
DWIDTH 10 0
BBX 7 9 1 0
BITMAP
62
42
42
42
22
42
42
42
FC
ENDCHAR
STARTCHAR 0E23
ENCODING 3619
SWIDTH 540 0
DWIDTH 9 0
BBX 7 9 1 0
BITMAP
7E
80
F8
04
04
04
04
04
0C
ENDCHAR
STARTCHAR 0E24
ENCODING 3620
SWIDTH 660 0
DWIDTH 11 0
BBX 8 11 1 -2
BITMAP
3C
42
81
E1
41
41
41
41
61
01
01
ENDCHAR
STARTCHAR 0E25
ENCODING 3621
SWIDTH 600 0
DWIDTH 10 0
BBX 7 9 1 0
BITMAP
78
84
02
62
92
8A
86
82
C2
ENDCHAR
STARTCHAR 0E26
ENCODING 3622
SWIDTH 660 0
DWIDTH 11 0
BBX 8 11 1 -2
BITMAP
3C
42
81
E1
41
41
41
41
C1
01
01
ENDCHAR
STARTCHAR 0E27
ENCODING 3623
SWIDTH 540 0
DWIDTH 9 0
BBX 7 9 0 0
BITMAP
78
84
02
02
02
02
02
02
06
ENDCHAR
STARTCHAR 0E28
ENCODING 3624
SWIDTH 660 0
DWIDTH 11 0
BBX 10 11 1 0
BITMAP
0040
0180
3E00
4200
8100
9900
A100
A100
4100
4100
4100
ENDCHAR
STARTCHAR 0E29
ENCODING 3625
SWIDTH 660 0
DWIDTH 11 0
BBX 9 9 1 0
BITMAP
C100
4100
4100
5980
4F00
4100
4100
4100
FE00
ENDCHAR
STARTCHAR 0E2A
ENCODING 3626
SWIDTH 600 0
DWIDTH 10 0
BBX 9 11 1 0
BITMAP
0080
0300
7C00
8600
0200
6200
9200
8A00
8600
8200
C200
ENDCHAR
STARTCHAR 0E2B
ENCODING 3627
SWIDTH 660 0
DWIDTH 11 0
BBX 8 9 1 0
BITMAP
C3
42
45
49
51
61
41
41
41
ENDCHAR
STARTCHAR 0E2C
ENCODING 3628
SWIDTH 780 0
DWIDTH 13 0
BBX 12 12 1 0
BITMAP
00D0
00E0
0040
C440
4440
4A40
4A40
5140
5140
60C0
60C0
4040
ENDCHAR
STARTCHAR 0E2D
ENCODING 3629
SWIDTH 660 0
DWIDTH 11 0
BBX 8 9 1 0
BITMAP
7C
82
01
61
41
41
41
41
FE
ENDCHAR
STARTCHAR 0E2E
ENCODING 3630
SWIDTH 660 0
DWIDTH 11 0
BBX 10 11 1 0
BITMAP
0040
0180
7E00
8200
0100
6100
4100
4100
4100
4100
FE00
ENDCHAR
STARTCHAR 0E2F
ENCODING 3631
SWIDTH 540 0
DWIDTH 9 0
BBX 7 9 0 0
BITMAP
C6
7A
02
02
02
02
02
02
02
ENDCHAR
STARTCHAR 0E30
ENCODING 3632
SWIDTH 540 0
DWIDTH 9 0
BBX 7 7 1 1
BITMAP
C2
C4
78
00
C2
C4
78
ENDCHAR
STARTCHAR 0E31
ENCODING 3633
SWIDTH 0 0
DWIDTH 0 0
BBX 6 2 -3 11
BITMAP
C4
78
ENDCHAR
STARTCHAR 0E32
ENCODING 3634
SWIDTH 540 0
DWIDTH 9 0
BBX 7 9 0 0
BITMAP
78
84
02
02
02
02
02
02
02
ENDCHAR
STARTCHAR 0E33
ENCODING 3635
SWIDTH 540 0
DWIDTH 9 0
BBX 10 13 -3 0
BITMAP
C000
C000
0000
0000
0F00
1080
0040
0040
0040
0040
0040
0040
0040
ENDCHAR
STARTCHAR 0E34
ENCODING 3636
SWIDTH 0 0
DWIDTH 0 0
BBX 6 2 -8 11
BITMAP
78
84
ENDCHAR
STARTCHAR 0E35
ENCODING 3637
SWIDTH 0 0
DWIDTH 0 0
BBX 6 3 -8 11
BITMAP
04
7C
84
ENDCHAR
STARTCHAR 0E36
ENCODING 3638
SWIDTH 0 0
DWIDTH 0 0
BBX 7 4 -8 11
BITMAP
04
0A
7C
84
ENDCHAR
STARTCHAR 0E37
ENCODING 3639
SWIDTH 0 0
DWIDTH 0 0
BBX 7 3 -8 11
BITMAP
0A
7C
84
ENDCHAR
STARTCHAR 0E38
ENCODING 3640
SWIDTH 0 0
DWIDTH 0 0
BBX 2 3 -4 -4
BITMAP
C0
40
40
ENDCHAR
STARTCHAR 0E39
ENCODING 3641
SWIDTH 0 0
DWIDTH 0 0
BBX 5 3 -7 -4
BITMAP
C8
48
30
ENDCHAR
STARTCHAR 0E3A
ENCODING 3642
SWIDTH 0 0
DWIDTH 0 0
BBX 1 1 -3 -2
BITMAP
80
ENDCHAR
STARTCHAR 0E3F
ENCODING 3647
SWIDTH 660 0
DWIDTH 11 0
BBX 8 14 2 -1
BITMAP
10
F8
94
92
92
94
F8
96
91
91
91
92
FC
10
ENDCHAR
STARTCHAR 0E40
ENCODING 3648
SWIDTH 360 0
DWIDTH 6 0
BBX 2 9 2 0
BITMAP
80
80
80
80
80
80
80
80
C0
ENDCHAR
STARTCHAR 0E41
ENCODING 3649
SWIDTH 540 0
DWIDTH 9 0
BBX 6 9 2 0
BITMAP
88
88
88
88
88
88
88
88
CC
ENDCHAR
STARTCHAR 0E42
ENCODING 3650
SWIDTH 600 0
DWIDTH 10 0
BBX 9 12 0 0
BITMAP
7F80
8000
8000
FC00
0200
0100
0100
0100
0100
0100
0100
0180
ENDCHAR
STARTCHAR 0E43
ENCODING 3651
SWIDTH 480 0
DWIDTH 8 0
BBX 7 12 0 0
BITMAP
7C
82
C2
02
04
08
08
08
08
08
08
0C
ENDCHAR
STARTCHAR 0E44
ENCODING 3652
SWIDTH 540 0
DWIDTH 9 0
BBX 7 12 1 0
BITMAP
98
A4
A4
A4
44
04
04
04
04
04
04
06
ENDCHAR
STARTCHAR 0E45
ENCODING 3653
SWIDTH 540 0
DWIDTH 9 0
BBX 7 11 0 -2
BITMAP
78
84
02
02
02
02
02
02
02
02
02
ENDCHAR
STARTCHAR 0E46
ENCODING 3654
SWIDTH 600 0
DWIDTH 10 0
BBX 8 11 0 -2
BITMAP
76
89
C1
01
01
01
01
01
01
01
01
ENDCHAR
STARTCHAR 0E47
ENCODING 3655
SWIDTH 0 0
DWIDTH 0 0
BBX 6 4 -8 11
BITMAP
7C
80
BC
6C
ENDCHAR
STARTCHAR 0E48
ENCODING 3656
SWIDTH 0 0
DWIDTH 0 0
BBX 1 3 -3 14
BITMAP
80
80
80
ENDCHAR
STARTCHAR 0E49
ENCODING 3657
SWIDTH 0 0
DWIDTH 0 0
BBX 6 3 -8 14
BITMAP
E4
2C
30
ENDCHAR
STARTCHAR 0E4A
ENCODING 3658
SWIDTH 0 0
DWIDTH 0 0
BBX 8 3 -10 14
BITMAP
7D
A5
46
ENDCHAR
STARTCHAR 0E4B
ENCODING 3659
SWIDTH 0 0
DWIDTH 0 0
BBX 5 3 -7 14
BITMAP
20
F8
20
ENDCHAR
STARTCHAR 0E4C
ENCODING 3660
SWIDTH 0 0
DWIDTH 0 0
BBX 5 3 -7 14
BITMAP
48
B8
40
ENDCHAR
STARTCHAR 0E4D
ENCODING 3661
SWIDTH 0 0
DWIDTH 0 0
BBX 2 2 -4 11
BITMAP
C0
C0
ENDCHAR
STARTCHAR 0E4E
ENCODING 3662
SWIDTH 0 0
DWIDTH 0 0
BBX 4 5 -6 11
BITMAP
F0
80
60
80
E0
ENDCHAR
STARTCHAR 0E4F
ENCODING 3663
SWIDTH 720 0
DWIDTH 12 0
BBX 10 10 1 0
BITMAP
1E00
6180
4080
8C40
9E40
9E40
8C40
4080
6180
1E00
ENDCHAR
STARTCHAR 0E50
ENCODING 3664
SWIDTH 660 0
DWIDTH 11 0
BBX 9 8 1 0
BITMAP
3E00
4100
8080
8080
8080
8080
4100
3E00
ENDCHAR
STARTCHAR 0E51
ENCODING 3665
SWIDTH 660 0
DWIDTH 11 0
BBX 9 8 1 0
BITMAP
3E00
4100
8080
8C80
8480
8480
4880
3100
ENDCHAR
STARTCHAR 0E52
ENCODING 3666
SWIDTH 660 0
DWIDTH 11 0
BBX 9 9 1 0
BITMAP
8000
9B00
A480
B080
8080
8080
8080
8080
FF80
ENDCHAR
STARTCHAR 0E53
ENCODING 3667
SWIDTH 660 0
DWIDTH 11 0
BBX 9 8 1 0
BITMAP
7700
8880
8880
8880
8880
8080
8080
6100
ENDCHAR
STARTCHAR 0E54
ENCODING 3668
SWIDTH 660 0
DWIDTH 11 0
BBX 10 10 1 -1
BITMAP
0040
3840
4780
8000
8180
8200
8200
4200
3F00
0080
ENDCHAR
STARTCHAR 0E55
ENCODING 3669
SWIDTH 660 0
DWIDTH 11 0
BBX 10 10 1 -1
BITMAP
0440
0C40
7380
8000
8180
8200
8200
4200
3F00
0080
ENDCHAR
STARTCHAR 0E56
ENCODING 3670
SWIDTH 660 0
DWIDTH 11 0
BBX 10 9 0 0
BITMAP
8000
5F00
2080
0040
0040
3040
2040
1080
0F00
ENDCHAR
STARTCHAR 0E57
ENCODING 3671
SWIDTH 660 0
DWIDTH 11 0
BBX 11 9 0 0
BITMAP
0020
6E20
9120
9120
9120
8120
8120
8240
6780
ENDCHAR
STARTCHAR 0E58
ENCODING 3672
SWIDTH 660 0
DWIDTH 11 0
BBX 11 9 0 0
BITMAP
0040
3840
4780
8000
8060
8C20
9220
5240
3180
ENDCHAR
STARTCHAR 0E59
ENCODING 3673
SWIDTH 660 0
DWIDTH 11 0
BBX 10 9 1 0
BITMAP
0040
3440
4A40
8940
8880
8400
8400
8400
6200
ENDCHAR
STARTCHAR 0E5A
ENCODING 3674
SWIDTH 780 0
DWIDTH 13 0
BBX 11 9 0 0
BITMAP
CC60
77A0
0420
0420
0420
0420
0420
0420
0420
ENDCHAR
STARTCHAR 0E5B
ENCODING 3675
SWIDTH 900 0
DWIDTH 15 0
BBX 14 8 1 0
BITMAP
3000
4000
849C
8490
84E0
8480
4C80
3300
ENDCHAR
STARTCHAR 1E80
ENCODING 7808
SWIDTH 900 0
DWIDTH 15 0
BBX 13 16 1 0
BITMAP
0400
0200
0100
0000
8208
4208
4510
4510
2510
2510
24A0
14A0
14A0
18A0
0840
0840
ENDCHAR
STARTCHAR 1E81
ENCODING 7809
SWIDTH 780 0
DWIDTH 13 0
BBX 13 13 0 0
BITMAP
0400
0200
0100
0000
8208
4210
4510
4510
28A0
28A0
28A0
1040
1040
ENDCHAR
STARTCHAR 1E82
ENCODING 7810
SWIDTH 900 0
DWIDTH 15 0
BBX 13 16 1 0
BITMAP
0080
0100
0200
0000
8208
4208
4510
4510
2510
2510
24A0
14A0
14A0
18A0
0840
0840
ENDCHAR
STARTCHAR 1E83
ENCODING 7811
SWIDTH 780 0
DWIDTH 13 0
BBX 13 13 0 0
BITMAP
0080
0100
0200
0000
8208
4210
4510
4510
28A0
28A0
28A0
1040
1040
ENDCHAR
STARTCHAR 1E84
ENCODING 7812
SWIDTH 900 0
DWIDTH 15 0
BBX 13 14 1 0
BITMAP
0480
0000
8208
4208
4510
4510
2510
2510
24A0
14A0
14A0
18A0
0840
0840
ENDCHAR
STARTCHAR 1E85
ENCODING 7813
SWIDTH 780 0
DWIDTH 13 0
BBX 13 11 0 0
BITMAP
0480
0000
8208
4210
4510
4510
28A0
28A0
28A0
1040
1040
ENDCHAR
STARTCHAR 1EF2
ENCODING 7922
SWIDTH 660 0
DWIDTH 11 0
BBX 9 16 1 0
BITMAP
1000
0800
0400
0000
8080
4100
2200
2200
1400
0800
0800
0800
0800
0800
0800
0800
ENDCHAR
STARTCHAR 1EF3
ENCODING 7923
SWIDTH 540 0
DWIDTH 9 0
BBX 9 16 0 -3
BITMAP
1000
0800
0400
0000
8080
8080
4100
4100
2200
2200
1400
1400
0800
0800
0800
1000
ENDCHAR
STARTCHAR 2000
ENCODING 8192
SWIDTH 540 0
DWIDTH 9 0
BBX 1 1 0 0
BITMAP
00
ENDCHAR
STARTCHAR 2001
ENCODING 8193
SWIDTH 1020 0
DWIDTH 17 0
BBX 1 1 0 0
BITMAP
00
ENDCHAR
STARTCHAR 2002
ENCODING 8194
SWIDTH 540 0
DWIDTH 9 0
BBX 1 1 0 0
BITMAP
00
ENDCHAR
STARTCHAR 2003
ENCODING 8195
SWIDTH 1020 0
DWIDTH 17 0
BBX 1 1 0 0
BITMAP
00
ENDCHAR
STARTCHAR 2004
ENCODING 8196
SWIDTH 360 0
DWIDTH 6 0
BBX 1 1 0 0
BITMAP
00
ENDCHAR
STARTCHAR 2005
ENCODING 8197
SWIDTH 240 0
DWIDTH 4 0
BBX 1 1 0 0
BITMAP
00
ENDCHAR
STARTCHAR 2006
ENCODING 8198
SWIDTH 180 0
DWIDTH 3 0
BBX 1 1 0 0
BITMAP
00
ENDCHAR
STARTCHAR 2007
ENCODING 8199
SWIDTH 660 0
DWIDTH 11 0
BBX 1 1 0 0
BITMAP
00
ENDCHAR
STARTCHAR 2008
ENCODING 8200
SWIDTH 300 0
DWIDTH 5 0
BBX 1 1 0 0
BITMAP
00
ENDCHAR
STARTCHAR 2009
ENCODING 8201
SWIDTH 120 0
DWIDTH 2 0
BBX 1 1 0 0
BITMAP
00
ENDCHAR
STARTCHAR 200A
ENCODING 8202
SWIDTH 60 0
DWIDTH 1 0
BBX 1 1 0 0
BITMAP
00
ENDCHAR
STARTCHAR 200B
ENCODING 8203
SWIDTH 0 0
DWIDTH 0 0
BBX 1 1 0 0
BITMAP
00
ENDCHAR
STARTCHAR 200C
ENCODING 8204
SWIDTH 0 0
DWIDTH 0 0
BBX 1 1 0 0
BITMAP
00
ENDCHAR
STARTCHAR 200D
ENCODING 8205
SWIDTH 0 0
DWIDTH 0 0
BBX 1 1 0 0
BITMAP
00
ENDCHAR
STARTCHAR 200E
ENCODING 8206
SWIDTH 0 0
DWIDTH 0 0
BBX 1 1 0 0
BITMAP
00
ENDCHAR
STARTCHAR 200F
ENCODING 8207
SWIDTH 0 0
DWIDTH 0 0
BBX 1 1 0 0
BITMAP
00
ENDCHAR
STARTCHAR 2010
ENCODING 8208
SWIDTH 360 0
DWIDTH 6 0
BBX 4 1 1 5
BITMAP
F0
ENDCHAR
STARTCHAR 2011
ENCODING 8209
SWIDTH 360 0
DWIDTH 6 0
BBX 4 1 1 5
BITMAP
F0
ENDCHAR
STARTCHAR 2012
ENCODING 8210
SWIDTH 660 0
DWIDTH 11 0
BBX 7 1 2 5
BITMAP
FE
ENDCHAR
STARTCHAR 2013
ENCODING 8211
SWIDTH 540 0
DWIDTH 9 0
BBX 7 1 1 5
BITMAP
FE
ENDCHAR
STARTCHAR 2014
ENCODING 8212
SWIDTH 1020 0
DWIDTH 17 0
BBX 15 1 1 5
BITMAP
FFFE
ENDCHAR
STARTCHAR 2015
ENCODING 8213
SWIDTH 1020 0
DWIDTH 17 0
BBX 15 1 1 5
BITMAP
FFFE
ENDCHAR
STARTCHAR 2016
ENCODING 8214
SWIDTH 600 0
DWIDTH 10 0
BBX 4 15 3 -3
BITMAP
90
90
90
90
90
90
90
90
90
90
90
90
90
90
90
ENDCHAR
STARTCHAR 2017
ENCODING 8215
SWIDTH 540 0
DWIDTH 9 0
BBX 7 3 1 -3
BITMAP
FE
00
FE
ENDCHAR
STARTCHAR 2018
ENCODING 8216
SWIDTH 300 0
DWIDTH 5 0
BBX 2 5 1 7
BITMAP
40
80
80
C0
C0
ENDCHAR
STARTCHAR 2019
ENCODING 8217
SWIDTH 300 0
DWIDTH 5 0
BBX 2 5 1 7
BITMAP
C0
C0
40
40
80
ENDCHAR
STARTCHAR 201A
ENCODING 8218
SWIDTH 300 0
DWIDTH 5 0
BBX 2 5 1 -3
BITMAP
C0
C0
40
40
80
ENDCHAR
STARTCHAR 201B
ENCODING 8219
SWIDTH 300 0
DWIDTH 5 0
BBX 2 5 2 7
BITMAP
C0
C0
80
80
40
ENDCHAR
STARTCHAR 201C
ENCODING 8220
SWIDTH 420 0
DWIDTH 7 0
BBX 5 5 1 7
BITMAP
48
90
90
D8
D8
ENDCHAR
STARTCHAR 201D
ENCODING 8221
SWIDTH 420 0
DWIDTH 7 0
BBX 5 5 1 7
BITMAP
D8
D8
48
48
90
ENDCHAR
STARTCHAR 201E
ENCODING 8222
SWIDTH 420 0
DWIDTH 7 0
BBX 5 5 1 -3
BITMAP
D8
D8
48
48
90
ENDCHAR
STARTCHAR 201F
ENCODING 8223
SWIDTH 420 0
DWIDTH 7 0
BBX 5 5 1 7
BITMAP
D8
D8
90
90
48
ENDCHAR
STARTCHAR 2020
ENCODING 8224
SWIDTH 660 0
DWIDTH 11 0
BBX 7 14 2 -2
BITMAP
10
10
10
10
FE
10
10
10
10
10
10
10
10
10
ENDCHAR
STARTCHAR 2021
ENCODING 8225
SWIDTH 660 0
DWIDTH 11 0
BBX 7 14 2 -2
BITMAP
10
10
10
10
FE
10
10
10
10
FE
10
10
10
10
ENDCHAR
STARTCHAR 2022
ENCODING 8226
SWIDTH 600 0
DWIDTH 10 0
BBX 7 7 1 2
BITMAP
38
7C
FE
FE
FE
7C
38
ENDCHAR
STARTCHAR 2023
ENCODING 8227
SWIDTH 480 0
DWIDTH 8 0
BBX 4 7 2 2
BITMAP
80
C0
E0
F0
E0
C0
80
ENDCHAR
STARTCHAR 2024
ENCODING 8228
SWIDTH 360 0
DWIDTH 6 0
BBX 2 2 2 0
BITMAP
C0
C0
ENDCHAR
STARTCHAR 2025
ENCODING 8229
SWIDTH 660 0
DWIDTH 11 0
BBX 8 2 2 0
BITMAP
C3
C3
ENDCHAR
STARTCHAR 2026
ENCODING 8230
SWIDTH 1020 0
DWIDTH 17 0
BBX 14 2 2 0
BITMAP
C30C
C30C
ENDCHAR
STARTCHAR 2027
ENCODING 8231
SWIDTH 300 0
DWIDTH 5 0
BBX 2 2 1 5
BITMAP
C0
C0
ENDCHAR
STARTCHAR 2028
ENCODING 8232
SWIDTH 0 0
DWIDTH 0 0
BBX 1 1 0 0
BITMAP
00
ENDCHAR
STARTCHAR 2029
ENCODING 8233
SWIDTH 0 0
DWIDTH 0 0
BBX 1 1 0 0
BITMAP
00
ENDCHAR
STARTCHAR 202A
ENCODING 8234
SWIDTH 0 0
DWIDTH 0 0
BBX 1 1 0 0
BITMAP
00
ENDCHAR
STARTCHAR 202B
ENCODING 8235
SWIDTH 0 0
DWIDTH 0 0
BBX 1 1 0 0
BITMAP
00
ENDCHAR
STARTCHAR 202C
ENCODING 8236
SWIDTH 0 0
DWIDTH 0 0
BBX 1 1 0 0
BITMAP
00
ENDCHAR
STARTCHAR 202D
ENCODING 8237
SWIDTH 0 0
DWIDTH 0 0
BBX 1 1 0 0
BITMAP
00
ENDCHAR
STARTCHAR 202E
ENCODING 8238
SWIDTH 0 0
DWIDTH 0 0
BBX 1 1 0 0
BITMAP
00
ENDCHAR
STARTCHAR 2030
ENCODING 8240
SWIDTH 1020 0
DWIDTH 17 0
BBX 17 12 0 0
BITMAP
702000
884000
888000
890000
8A0000
740000
05C700
0A2880
122880
222880
422880
81C700
ENDCHAR
STARTCHAR 2031
ENCODING 8241
SWIDTH 1380 0
DWIDTH 23 0
BBX 23 12 0 0
BITMAP
702000
884000
888000
890000
8A0000
740000
05C71C
0A28A2
1228A2
2228A2
4228A2
81C71C
ENDCHAR
STARTCHAR 2032
ENCODING 8242
SWIDTH 360 0
DWIDTH 6 0
BBX 3 6 1 6
BITMAP
20
40
40
40
80
80
ENDCHAR
STARTCHAR 2033
ENCODING 8243
SWIDTH 540 0
DWIDTH 9 0
BBX 7 6 1 6
BITMAP
22
44
44
44
88
88
ENDCHAR
STARTCHAR 2034
ENCODING 8244
SWIDTH 780 0
DWIDTH 13 0
BBX 11 6 1 6
BITMAP
2220
4440
4440
4440
8880
8880
ENDCHAR
STARTCHAR 2035
ENCODING 8245
SWIDTH 360 0
DWIDTH 6 0
BBX 3 6 2 6
BITMAP
80
40
40
40
20
20
ENDCHAR
STARTCHAR 2036
ENCODING 8246
SWIDTH 540 0
DWIDTH 9 0
BBX 7 6 1 6
BITMAP
88
44
44
44
22
22
ENDCHAR
STARTCHAR 2037
ENCODING 8247
SWIDTH 780 0
DWIDTH 13 0
BBX 11 6 1 6
BITMAP
8880
4440
4440
4440
2220
2220
ENDCHAR
STARTCHAR 2038
ENCODING 8248
SWIDTH 360 0
DWIDTH 6 0
BBX 5 5 1 -3
BITMAP
20
20
50
50
88
ENDCHAR
STARTCHAR 2039
ENCODING 8249
SWIDTH 360 0
DWIDTH 6 0
BBX 4 7 1 1
BITMAP
10
20
40
80
40
20
10
ENDCHAR
STARTCHAR 203A
ENCODING 8250
SWIDTH 360 0
DWIDTH 6 0
BBX 4 7 1 1
BITMAP
80
40
20
10
20
40
80
ENDCHAR
STARTCHAR 203B
ENCODING 8251
SWIDTH 720 0
DWIDTH 12 0
BBX 9 9 1 1
BITMAP
9880
5900
2200
D580
C980
1400
2200
5900
9880
ENDCHAR
STARTCHAR 203C
ENCODING 8252
SWIDTH 540 0
DWIDTH 9 0
BBX 4 12 2 0
BITMAP
90
90
90
90
90
90
90
90
00
00
90
90
ENDCHAR
STARTCHAR 203D
ENCODING 8253
SWIDTH 420 0
DWIDTH 7 0
BBX 6 12 0 0
BITMAP
78
84
24
24
28
30
20
20
00
00
20
20
ENDCHAR
STARTCHAR 203E
ENCODING 8254
SWIDTH 540 0
DWIDTH 9 0
BBX 7 1 1 12
BITMAP
FE
ENDCHAR
STARTCHAR 203F
ENCODING 8255
SWIDTH 540 0
DWIDTH 9 0
BBX 9 3 0 -4
BITMAP
8080
4100
3E00
ENDCHAR
STARTCHAR 2040
ENCODING 8256
SWIDTH 540 0
DWIDTH 9 0
BBX 9 3 0 14
BITMAP
3E00
4100
8080
ENDCHAR
STARTCHAR 2041
ENCODING 8257
SWIDTH 480 0
DWIDTH 8 0
BBX 7 12 1 -3
BITMAP
02
04
04
08
08
10
10
20
20
50
50
88
ENDCHAR
STARTCHAR 2042
ENCODING 8258
SWIDTH 960 0
DWIDTH 16 0
BBX 13 12 1 0
BITMAP
0200
0200
1AC0
0700
1AC0
1240
1240
D758
38E0
D758
1040
1040
ENDCHAR
STARTCHAR 2043
ENCODING 8259
SWIDTH 360 0
DWIDTH 6 0
BBX 3 2 1 4
BITMAP
E0
E0
ENDCHAR
STARTCHAR 2044
ENCODING 8260
SWIDTH 0 0
DWIDTH 0 0
BBX 10 12 -5 0
BITMAP
0040
0080
0100
0200
0200
0400
0800
1000
1000
2000
4000
8000
ENDCHAR
STARTCHAR 2045
ENCODING 8261
SWIDTH 360 0
DWIDTH 6 0
BBX 3 14 2 -2
BITMAP
E0
80
80
80
80
80
E0
80
80
80
80
80
80
E0
ENDCHAR
STARTCHAR 2046
ENCODING 8262
SWIDTH 360 0
DWIDTH 6 0
BBX 3 14 1 -2
BITMAP
E0
20
20
20
20
20
E0
20
20
20
20
20
20
E0
ENDCHAR
STARTCHAR 206A
ENCODING 8298
SWIDTH 0 0
DWIDTH 0 0
BBX 1 1 0 0
BITMAP
00
ENDCHAR
STARTCHAR 206B
ENCODING 8299
SWIDTH 0 0
DWIDTH 0 0
BBX 1 1 0 0
BITMAP
00
ENDCHAR
STARTCHAR 206C
ENCODING 8300
SWIDTH 0 0
DWIDTH 0 0
BBX 1 1 0 0
BITMAP
00
ENDCHAR
STARTCHAR 206D
ENCODING 8301
SWIDTH 0 0
DWIDTH 0 0
BBX 1 1 0 0
BITMAP
00
ENDCHAR
STARTCHAR 206E
ENCODING 8302
SWIDTH 0 0
DWIDTH 0 0
BBX 1 1 0 0
BITMAP
00
ENDCHAR
STARTCHAR 206F
ENCODING 8303
SWIDTH 0 0
DWIDTH 0 0
BBX 1 1 0 0
BITMAP
00
ENDCHAR
STARTCHAR 2070
ENCODING 8304
SWIDTH 420 0
DWIDTH 7 0
BBX 5 7 1 5
BITMAP
70
88
88
88
88
88
70
ENDCHAR
STARTCHAR 2074
ENCODING 8308
SWIDTH 420 0
DWIDTH 7 0
BBX 5 7 1 5
BITMAP
10
30
50
90
F8
10
10
ENDCHAR
STARTCHAR 2075
ENCODING 8309
SWIDTH 420 0
DWIDTH 7 0
BBX 5 7 1 5
BITMAP
F8
80
80
F0
08
08
F0
ENDCHAR
STARTCHAR 2076
ENCODING 8310
SWIDTH 420 0
DWIDTH 7 0
BBX 5 7 1 5
BITMAP
38
40
80
F0
88
88
70
ENDCHAR
STARTCHAR 2077
ENCODING 8311
SWIDTH 420 0
DWIDTH 7 0
BBX 4 7 2 5
BITMAP
F0
10
20
40
40
80
80
ENDCHAR
STARTCHAR 2078
ENCODING 8312
SWIDTH 420 0
DWIDTH 7 0
BBX 5 7 1 5
BITMAP
70
88
88
70
88
88
70
ENDCHAR
STARTCHAR 2079
ENCODING 8313
SWIDTH 420 0
DWIDTH 7 0
BBX 5 7 1 5
BITMAP
70
88
88
78
08
10
E0
ENDCHAR
STARTCHAR 207A
ENCODING 8314
SWIDTH 420 0
DWIDTH 7 0
BBX 5 5 1 6
BITMAP
20
20
F8
20
20
ENDCHAR
STARTCHAR 207B
ENCODING 8315
SWIDTH 420 0
DWIDTH 7 0
BBX 5 1 1 8
BITMAP
F8
ENDCHAR
STARTCHAR 207C
ENCODING 8316
SWIDTH 420 0
DWIDTH 7 0
BBX 5 3 1 7
BITMAP
F8
00
F8
ENDCHAR
STARTCHAR 207D
ENCODING 8317
SWIDTH 240 0
DWIDTH 4 0
BBX 2 10 1 3
BITMAP
40
40
80
80
80
80
80
80
40
40
ENDCHAR
STARTCHAR 207E
ENCODING 8318
SWIDTH 240 0
DWIDTH 4 0
BBX 2 10 1 3
BITMAP
80
80
40
40
40
40
40
40
80
80
ENDCHAR
STARTCHAR 207F
ENCODING 8319
SWIDTH 420 0
DWIDTH 7 0
BBX 5 5 1 7
BITMAP
B0
C8
88
88
88
ENDCHAR
STARTCHAR 2080
ENCODING 8320
SWIDTH 420 0
DWIDTH 7 0
BBX 5 7 1 0
BITMAP
70
88
88
88
88
88
70
ENDCHAR
STARTCHAR 2081
ENCODING 8321
SWIDTH 420 0
DWIDTH 7 0
BBX 5 7 1 0
BITMAP
60
A0
20
20
20
20
F8
ENDCHAR
STARTCHAR 2082
ENCODING 8322
SWIDTH 420 0
DWIDTH 7 0
BBX 5 7 1 0
BITMAP
F0
08
08
10
60
80
F8
ENDCHAR
STARTCHAR 2083
ENCODING 8323
SWIDTH 420 0
DWIDTH 7 0
BBX 5 7 1 0
BITMAP
F0
08
08
70
08
08
F0
ENDCHAR
STARTCHAR 2084
ENCODING 8324
SWIDTH 420 0
DWIDTH 7 0
BBX 5 7 1 0
BITMAP
10
30
50
90
F8
10
10
ENDCHAR
STARTCHAR 2085
ENCODING 8325
SWIDTH 420 0
DWIDTH 7 0
BBX 5 7 1 0
BITMAP
F8
80
80
F0
08
08
F0
ENDCHAR
STARTCHAR 2086
ENCODING 8326
SWIDTH 420 0
DWIDTH 7 0
BBX 5 7 1 0
BITMAP
38
40
80
F0
88
88
70
ENDCHAR
STARTCHAR 2087
ENCODING 8327
SWIDTH 420 0
DWIDTH 7 0
BBX 4 7 2 0
BITMAP
F0
10
20
40
40
80
80
ENDCHAR
STARTCHAR 2088
ENCODING 8328
SWIDTH 420 0
DWIDTH 7 0
BBX 5 7 1 0
BITMAP
70
88
88
70
88
88
70
ENDCHAR
STARTCHAR 2089
ENCODING 8329
SWIDTH 420 0
DWIDTH 7 0
BBX 5 7 1 0
BITMAP
70
88
88
78
08
10
E0
ENDCHAR
STARTCHAR 208A
ENCODING 8330
SWIDTH 420 0
DWIDTH 7 0
BBX 5 5 1 1
BITMAP
20
20
F8
20
20
ENDCHAR
STARTCHAR 208B
ENCODING 8331
SWIDTH 420 0
DWIDTH 7 0
BBX 5 1 1 3
BITMAP
F8
ENDCHAR
STARTCHAR 208C
ENCODING 8332
SWIDTH 420 0
DWIDTH 7 0
BBX 5 3 1 2
BITMAP
F8
00
F8
ENDCHAR
STARTCHAR 208D
ENCODING 8333
SWIDTH 240 0
DWIDTH 4 0
BBX 2 10 1 -2
BITMAP
40
40
80
80
80
80
80
80
40
40
ENDCHAR
STARTCHAR 208E
ENCODING 8334
SWIDTH 240 0
DWIDTH 4 0
BBX 2 10 1 -2
BITMAP
80
80
40
40
40
40
40
40
80
80
ENDCHAR
STARTCHAR 2091
ENCODING 8337
SWIDTH 420 0
DWIDTH 7 0
BBX 3 7 1 5
BITMAP
60
A0
20
20
20
20
20
ENDCHAR
STARTCHAR 20A0
ENCODING 8352
SWIDTH 660 0
DWIDTH 11 0
BBX 9 12 1 0
BITMAP
3800
4400
8000
8000
8780
8400
4400
3F80
0400
0400
0400
0780
ENDCHAR
STARTCHAR 20A1
ENCODING 8353
SWIDTH 660 0
DWIDTH 11 0
BBX 9 14 1 -1
BITMAP
0480
1F00
6900
4900
9200
9200
9200
A400
A400
A400
4800
6900
5E00
9000
ENDCHAR
STARTCHAR 20A2
ENCODING 8354
SWIDTH 660 0
DWIDTH 11 0
BBX 9 12 1 0
BITMAP
1F00
2080
4000
8000
8B80
8C00
8800
8800
8800
4800
2880
1F00
ENDCHAR
STARTCHAR 20A3
ENCODING 8355
SWIDTH 660 0
DWIDTH 11 0
BBX 9 12 1 0
BITMAP
FE00
8000
8000
8000
8000
FB80
8C00
8800
8800
8800
8800
8800
ENDCHAR
STARTCHAR 20A4
ENCODING 8356
SWIDTH 660 0
DWIDTH 11 0
BBX 7 12 2 0
BITMAP
1C
22
20
20
F8
20
F8
20
20
20
40
FE
ENDCHAR
STARTCHAR 20A5
ENCODING 8357
SWIDTH 660 0
DWIDTH 11 0
BBX 9 14 1 -2
BITMAP
0100
0200
0200
B700
CC80
8C80
8880
8880
9880
9880
A880
A880
2000
4000
ENDCHAR
STARTCHAR 20A6
ENCODING 8358
SWIDTH 660 0
DWIDTH 11 0
BBX 11 12 0 0
BITMAP
2080
3080
3080
2880
FFE0
2480
2480
FFE0
2280
2180
2180
2080
ENDCHAR
STARTCHAR 20A7
ENCODING 8359
SWIDTH 1140 0
DWIDTH 19 0
BBX 17 12 1 0
BITMAP
F00000
880000
840000
840000
850000
8BC780
F10800
810800
810700
810080
810080
80CF00
ENDCHAR
STARTCHAR 20A8
ENCODING 8360
SWIDTH 960 0
DWIDTH 16 0
BBX 14 12 1 0
BITMAP
7C00
4200
4200
FF00
4200
443C
7840
5040
4838
4404
4404
4278
ENDCHAR
STARTCHAR 20A9
ENCODING 8361
SWIDTH 660 0
DWIDTH 11 0
BBX 11 12 0 0
BITMAP
8420
8420
FFE0
4A40
4A40
FFE0
5140
5140
5140
2080
2080
2080
ENDCHAR
STARTCHAR 20AA
ENCODING 8362
SWIDTH 660 0
DWIDTH 11 0
BBX 9 12 1 0
BITMAP
F880
8480
8480
8480
9480
9480
9480
9480
9080
9080
9080
9F00
ENDCHAR
STARTCHAR 20AB
ENCODING 8363
SWIDTH 660 0
DWIDTH 11 0
BBX 10 12 1 0
BITMAP
0100
1FC0
0100
3D00
4300
8100
8100
8100
4300
3D00
0000
7F00
ENDCHAR
STARTCHAR 20AC
ENCODING 8364
SWIDTH 660 0
DWIDTH 11 0
BBX 9 12 1 0
BITMAP
0F00
3080
2000
4000
FF00
4000
4000
FE00
4000
2000
3080
0F00
ENDCHAR
STARTCHAR 2100
ENCODING 8448
SWIDTH 780 0
DWIDTH 13 0
BBX 12 12 0 0
BITMAP
3C10
4420
4C40
D880
E900
0200
0660
0C80
1900
3100
2100
41E0
ENDCHAR
STARTCHAR 2101
ENCODING 8449
SWIDTH 780 0
DWIDTH 13 0
BBX 12 12 0 0
BITMAP
3C10
4420
4C40
D880
E900
0200
0660
0C80
1880
3040
2060
41C0
ENDCHAR
STARTCHAR 2102
ENCODING 8450
SWIDTH 780 0
DWIDTH 13 0
BBX 11 13 1 0
BITMAP
0300
1CC0
3000
5000
9000
A000
A000
A000
9000
5000
5000
2800
1FE0
ENDCHAR
STARTCHAR 2103
ENCODING 8451
SWIDTH 1020 0
DWIDTH 17 0
BBX 14 13 1 0
BITMAP
7000
90F8
8904
9200
7400
0400
0400
0400
0400
0400
0200
0104
00F8
ENDCHAR
STARTCHAR 2104
ENCODING 8452
SWIDTH 660 0
DWIDTH 11 0
BBX 9 12 1 0
BITMAP
1800
3E00
7800
D800
D800
D800
D800
D800
7E00
1C00
1800
1F80
ENDCHAR
STARTCHAR 2105
ENCODING 8453
SWIDTH 780 0
DWIDTH 13 0
BBX 11 12 1 0
BITMAP
3820
4040
C080
8100
F200
0400
0CC0
1B60
3260
6660
4640
8380
ENDCHAR
STARTCHAR 2106
ENCODING 8454
SWIDTH 780 0
DWIDTH 13 0
BBX 11 12 1 0
BITMAP
3820
4040
C080
8100
F200
0400
0C00
1A20
3260
6240
46C0
8740
ENDCHAR
STARTCHAR 2107
ENCODING 8455
SWIDTH 540 0
DWIDTH 9 0
BBX 8 13 1 0
BITMAP
1C
7E
C0
C0
C0
60
3C
E0
C0
C0
C0
E1
7F
ENDCHAR
STARTCHAR 2108
ENCODING 8456
SWIDTH 600 0
DWIDTH 10 0
BBX 8 13 1 0
BITMAP
30
FC
06
03
03
01
3F
03
03
03
06
0E
FC
ENDCHAR
STARTCHAR 2109
ENCODING 8457
SWIDTH 840 0
DWIDTH 14 0
BBX 12 13 1 0
BITMAP
7000
97F0
8C00
9400
7400
0400
07E0
0400
0400
0400
0400
0400
0400
ENDCHAR
STARTCHAR 210A
ENCODING 8458
SWIDTH 780 0
DWIDTH 13 0
BBX 13 15 0 -6
BITMAP
0FC0
19C0
30C0
3080
2180
2198
33B0
1DE0
03C0
1F00
7300
E200
C600
7C00
2000
ENDCHAR
STARTCHAR 210B
ENCODING 8459
SWIDTH 1140 0
DWIDTH 19 0
BBX 17 13 1 0
BITMAP
000780
1F0480
230C80
230880
231980
321B00
03FE00
061800
061000
063000
043200
8C3600
F81C00
ENDCHAR
STARTCHAR 210C
ENCODING 8460
SWIDTH 660 0
DWIDTH 11 0
BBX 10 16 0 -3
BITMAP
0300
0F80
1080
3000
3300
3780
3580
18C0
18C0
1840
3040
2040
F8C0
0080
0380
0300
ENDCHAR
STARTCHAR 210D
ENCODING 8461
SWIDTH 900 0
DWIDTH 15 0
BBX 11 12 2 0
BITMAP
E0E0
A0A0
A0A0
A0A0
A0A0
BFA0
A0A0
A0A0
A0A0
A0A0
A0A0
E0E0
ENDCHAR
STARTCHAR 210E
ENCODING 8462
SWIDTH 780 0
DWIDTH 13 0
BBX 11 13 1 0
BITMAP
1000
3000
3000
3000
2380
2780
6980
7180
7100
6100
4320
C3C0
C380
ENDCHAR
STARTCHAR 210F
ENCODING 8463
SWIDTH 780 0
DWIDTH 13 0
BBX 11 13 1 0
BITMAP
1000
3000
3C00
F000
2380
2780
6980
7180
7100
6100
4320
C3C0
C380
ENDCHAR
STARTCHAR 2110
ENCODING 8464
SWIDTH 780 0
DWIDTH 13 0
BBX 12 15 0 -3
BITMAP
00C0
03C0
0E80
1980
1190
1190
11A0
1FC0
0700
0300
0300
0200
0600
8400
F800
ENDCHAR
STARTCHAR 2111
ENCODING 8465
SWIDTH 720 0
DWIDTH 12 0
BBX 9 13 1 0
BITMAP
1000
3F80
4F00
6300
6300
6300
0300
0300
0100
0100
8100
E200
FC00
ENDCHAR
STARTCHAR 2112
ENCODING 8466
SWIDTH 840 0
DWIDTH 14 0
BBX 13 13 0 0
BITMAP
0020
00F8
3198
1118
1B30
0FC0
0300
0300
0200
3600
7E08
CFD8
78F0
ENDCHAR
STARTCHAR 2113
ENCODING 8467
SWIDTH 600 0
DWIDTH 10 0
BBX 10 13 0 0
BITMAP
03C0
04C0
0CC0
0CC0
0880
0900
1E00
1C00
F800
1080
1180
1300
1C00
ENDCHAR
STARTCHAR 2114
ENCODING 8468
SWIDTH 1020 0
DWIDTH 17 0
BBX 15 13 1 0
BITMAP
4100
4100
FFC0
4100
4178
41CC
4106
4106
4106
4106
4104
418C
4178
ENDCHAR
STARTCHAR 2115
ENCODING 8469
SWIDTH 840 0
DWIDTH 14 0
BBX 10 12 2 0
BITMAP
C040
A040
9040
8840
C440
A240
9140
88C0
8440
8240
8140
80C0
ENDCHAR
STARTCHAR 2116
ENCODING 8470
SWIDTH 960 0
DWIDTH 16 0
BBX 14 12 2 0
BITMAP
8200
C200
E200
E238
B24C
B244
9A44
9A4C
8E78
8E00
8600
827C
ENDCHAR
STARTCHAR 2117
ENCODING 8471
SWIDTH 900 0
DWIDTH 15 0
BBX 13 13 1 0
BITMAP
0600
19C0
2020
4F10
8C90
8C88
8D88
8E08
8C08
8C10
4C30
2060
1F80
ENDCHAR
STARTCHAR 2118
ENCODING 8472
SWIDTH 780 0
DWIDTH 13 0
BBX 12 13 0 -3
BITMAP
1800
10E0
33B0
2630
3C30
3830
1020
3860
6BC0
4900
C800
C800
7800
ENDCHAR
STARTCHAR 2119
ENCODING 8473
SWIDTH 720 0
DWIDTH 12 0
BBX 9 12 2 0
BITMAP
FF00
A480
A280
A280
A280
A580
BE00
A000
A000
A000
A000
E000
ENDCHAR
STARTCHAR 211A
ENCODING 8474
SWIDTH 900 0
DWIDTH 15 0
BBX 13 15 1 -2
BITMAP
0300
1CE0
2850
5050
9028
A028
A028
A028
9028
5048
5050
2860
1FC0
00C0
0038
ENDCHAR
STARTCHAR 211B
ENCODING 8475
SWIDTH 960 0
DWIDTH 16 0
BBX 14 13 1 0
BITMAP
03C0
1FF0
2318
2318
2318
3230
03C0
06C0
0660
0660
0460
8C24
F83C
ENDCHAR
STARTCHAR 211C
ENCODING 8476
SWIDTH 900 0
DWIDTH 15 0
BBX 13 13 1 0
BITMAP
0080
7B80
DEC0
DCC0
CC60
CD80
0F00
0F80
18C0
18C0
1068
3070
7820
ENDCHAR
STARTCHAR 211D
ENCODING 8477
SWIDTH 780 0
DWIDTH 13 0
BBX 10 12 2 0
BITMAP
FF00
A480
A480
A480
A480
A700
BA00
A900
A900
A480
A240
E3C0
ENDCHAR
STARTCHAR 211E
ENCODING 8478
SWIDTH 660 0
DWIDTH 11 0
BBX 8 12 2 0
BITMAP
FC
8E
86
86
86
BC
F9
9A
8E
86
8F
93
ENDCHAR
STARTCHAR 211F
ENCODING 8479
SWIDTH 660 0
DWIDTH 11 0
BBX 8 17 2 -2
BITMAP
08
06
01
FD
8E
86
86
86
BC
F8
98
9C
A6
A7
C3
40
80
ENDCHAR
STARTCHAR 2120
ENCODING 8480
SWIDTH 840 0
DWIDTH 14 0
BBX 12 6 1 6
BITMAP
F230
8350
6350
3350
1290
F210
ENDCHAR
STARTCHAR 2121
ENCODING 8481
SWIDTH 1500 0
DWIDTH 25 0
BBX 22 9 2 0
BITMAP
FF7C80
104080
104080
104080
107880
104080
104080
104080
107CFC
ENDCHAR
STARTCHAR 2122
ENCODING 8482
SWIDTH 840 0
DWIDTH 14 0
BBX 13 6 0 6
BITMAP
FD88
1198
1158
1168
1168
1108
ENDCHAR
STARTCHAR 2123
ENCODING 8483
SWIDTH 660 0
DWIDTH 11 0
BBX 10 17 1 -2
BITMAP
0800
0E00
0300
83C0
C280
C780
4580
6D00
6B00
3B00
3200
3600
3C00
7C00
4C00
C000
8000
ENDCHAR
STARTCHAR 2124
ENCODING 8484
SWIDTH 660 0
DWIDTH 11 0
BBX 9 12 1 0
BITMAP
FF80
0480
0900
0900
1200
1200
2400
2800
4800
5000
9000
FF80
ENDCHAR
STARTCHAR 2125
ENCODING 8485
SWIDTH 540 0
DWIDTH 9 0
BBX 7 16 1 -3
BITMAP
FE
0C
18
60
C0
FE
0C
18
30
70
3C
06
06
06
06
FC
ENDCHAR
STARTCHAR 2126
ENCODING 8486
SWIDTH 840 0
DWIDTH 14 0
BBX 12 13 1 0
BITMAP
0600
3F80
60C0
4060
C060
C020
C020
C020
C060
6060
20C0
1180
F9F0
ENDCHAR
STARTCHAR 2127
ENCODING 8487
SWIDTH 840 0
DWIDTH 14 0
BBX 12 12 1 0
BITMAP
F9F0
3080
60C0
4060
C060
C020
C020
C020
C060
6060
70C0
1F80
ENDCHAR
STARTCHAR 2128
ENCODING 8488
SWIDTH 600 0
DWIDTH 10 0
BBX 8 13 1 0
BITMAP
C0
FF
0E
0C
18
60
7E
06
03
03
02
C6
F8
ENDCHAR
STARTCHAR 2129
ENCODING 8489
SWIDTH 420 0
DWIDTH 7 0
BBX 4 9 1 0
BITMAP
F0
30
10
10
10
10
10
10
10
ENDCHAR
STARTCHAR 212A
ENCODING 8490
SWIDTH 660 0
DWIDTH 11 0
BBX 9 12 1 0
BITMAP
8200
8400
8800
9000
A000
E000
9000
8800
8400
8200
8100
8080
ENDCHAR
STARTCHAR 212B
ENCODING 8491
SWIDTH 720 0
DWIDTH 12 0
BBX 11 17 0 0
BITMAP
0400
0A00
0900
0E00
0000
0400
0400
0A00
0A00
1100
1100
1100
2080
3F80
4040
4040
8020
ENDCHAR
STARTCHAR 212C
ENCODING 8492
SWIDTH 840 0
DWIDTH 14 0
BBX 13 13 0 0
BITMAP
03C0
1FF0
3118
2118
3318
1330
03C0
02F0
0230
0618
7E18
CE10
7BE0
ENDCHAR
STARTCHAR 212D
ENCODING 8493
SWIDTH 720 0
DWIDTH 12 0
BBX 11 12 0 0
BITMAP
0FC0
3DC0
6800
6C00
C600
C600
C200
6000
6000
3020
1CE0
0F80
ENDCHAR
STARTCHAR 212E
ENCODING 8494
SWIDTH 1020 0
DWIDTH 17 0
BBX 13 14 2 -1
BITMAP
0700
38C0
6030
6030
E038
C018
C018
FFE0
C000
E000
6000
3010
1CE0
0300
ENDCHAR
STARTCHAR 212F
ENCODING 8495
SWIDTH 540 0
DWIDTH 9 0
BBX 7 9 1 0
BITMAP
1C
26
66
C4
D8
E0
C2
CC
78
ENDCHAR
STARTCHAR 2130
ENCODING 8496
SWIDTH 600 0
DWIDTH 10 0
BBX 8 16 1 -2
BITMAP
40
66
3F
33
7E
60
30
1C
60
C0
87
C9
C9
7E
18
18
ENDCHAR
STARTCHAR 2131
ENCODING 8497
SWIDTH 660 0
DWIDTH 11 0
BBX 9 13 1 0
BITMAP
3080
7F80
4100
4300
4300
0300
3F80
0600
0600
FE00
8580
8C00
F800
ENDCHAR
STARTCHAR 2132
ENCODING 8498
SWIDTH 660 0
DWIDTH 11 0
BBX 7 12 2 0
BITMAP
02
02
02
02
02
FE
02
02
02
02
02
FE
ENDCHAR
STARTCHAR 2133
ENCODING 8499
SWIDTH 1140 0
DWIDTH 19 0
BBX 18 12 1 0
BITMAP
030300
030700
070E00
050A00
051E00
0D1600
093600
09A600
99C600
91C640
F18680
600700
ENDCHAR
STARTCHAR 2134
ENCODING 8500
SWIDTH 600 0
DWIDTH 10 0
BBX 8 9 1 0
BITMAP
1E
23
63
C3
C3
C3
C6
CC
78
ENDCHAR
STARTCHAR 2135
ENCODING 8501
SWIDTH 660 0
DWIDTH 11 0
BBX 9 9 1 0
BITMAP
8080
4080
2080
5100
4900
8600
8200
8100
8080
ENDCHAR
STARTCHAR 2136
ENCODING 8502
SWIDTH 600 0
DWIDTH 10 0
BBX 9 9 0 0
BITMAP
7E00
0100
0100
0100
0100
0100
0100
0100
FF80
ENDCHAR
STARTCHAR 2137
ENCODING 8503
SWIDTH 420 0
DWIDTH 7 0
BBX 6 9 0 0
BITMAP
60
10
08
08
08
08
08
34
C4
ENDCHAR
STARTCHAR 2138
ENCODING 8504
SWIDTH 540 0
DWIDTH 9 0
BBX 8 9 0 0
BITMAP
FF
02
02
02
02
02
02
02
02
ENDCHAR
STARTCHAR 2153
ENCODING 8531
SWIDTH 840 0
DWIDTH 14 0
BBX 13 12 0 0
BITMAP
6020
A040
2080
2100
2100
22F0
2408
0808
0870
1008
2008
40F0
ENDCHAR
STARTCHAR 2154
ENCODING 8532
SWIDTH 840 0
DWIDTH 14 0
BBX 13 12 0 0
BITMAP
F010
0820
0840
1080
6080
81F0
FA08
0408
0470
0808
1008
20F0
ENDCHAR
STARTCHAR 2155
ENCODING 8533
SWIDTH 840 0
DWIDTH 14 0
BBX 13 12 0 0
BITMAP
6020
A040
2080
2100
2100
22F8
2480
0880
08F0
1008
2008
40F0
ENDCHAR
STARTCHAR 2156
ENCODING 8534
SWIDTH 840 0
DWIDTH 14 0
BBX 13 12 0 0
BITMAP
F010
0820
0840
1080
6080
81F8
FA80
0480
04F0
0808
1008
20F0
ENDCHAR
STARTCHAR 2157
ENCODING 8535
SWIDTH 840 0
DWIDTH 14 0
BBX 13 12 0 0
BITMAP
F010
0820
0840
7080
0880
09F8
F280
0480
04F0
0808
1008
20F0
ENDCHAR
STARTCHAR 2158
ENCODING 8536
SWIDTH 840 0
DWIDTH 14 0
BBX 13 12 0 0
BITMAP
1010
3020
5040
9080
F880
11F8
1280
0480
04F0
0808
1008
20F0
ENDCHAR
STARTCHAR 2159
ENCODING 8537
SWIDTH 840 0
DWIDTH 14 0
BBX 13 12 0 0
BITMAP
6020
A040
2080
2100
2100
2238
2440
0880
08F0
1088
2088
4070
ENDCHAR
STARTCHAR 215A
ENCODING 8538
SWIDTH 840 0
DWIDTH 14 0
BBX 13 12 0 0
BITMAP
F810
8020
8040
F080
0880
0938
F240
0480
04F0
0888
1088
2070
ENDCHAR
STARTCHAR 215B
ENCODING 8539
SWIDTH 840 0
DWIDTH 14 0
BBX 13 12 0 0
BITMAP
6020
A040
2080
2100
2100
2270
2488
0888
0870
1088
2088
4070
ENDCHAR
STARTCHAR 215C
ENCODING 8540
SWIDTH 840 0
DWIDTH 14 0
BBX 13 12 0 0
BITMAP
F010
0820
0840
7080
0880
0970
F288
0488
0470
0888
1088
2070
ENDCHAR
STARTCHAR 215D
ENCODING 8541
SWIDTH 840 0
DWIDTH 14 0
BBX 13 12 0 0
BITMAP
F810
8020
8040
F080
0880
0970
F288
0488
0470
0888
1088
2070
ENDCHAR
STARTCHAR 215E
ENCODING 8542
SWIDTH 840 0
DWIDTH 14 0
BBX 12 12 1 0
BITMAP
F040
1080
2100
4200
4200
84E0
8910
1110
10E0
2110
4110
80E0
ENDCHAR
STARTCHAR 215F
ENCODING 8543
SWIDTH 360 0
DWIDTH 6 0
BBX 11 12 0 0
BITMAP
6020
A040
2080
2100
2100
2200
2400
0800
0800
1000
2000
4000
ENDCHAR
STARTCHAR 2160
ENCODING 8544
SWIDTH 300 0
DWIDTH 5 0
BBX 1 12 2 0
BITMAP
80
80
80
80
80
80
80
80
80
80
80
80
ENDCHAR
STARTCHAR 2161
ENCODING 8545
SWIDTH 600 0
DWIDTH 10 0
BBX 6 12 2 0
BITMAP
84
84
84
84
84
84
84
84
84
84
84
84
ENDCHAR
STARTCHAR 2162
ENCODING 8546
SWIDTH 840 0
DWIDTH 14 0
BBX 9 12 2 0
BITMAP
8880
8880
8880
8880
8880
8880
8880
8880
8880
8880
8880
8880
ENDCHAR
STARTCHAR 2163
ENCODING 8547
SWIDTH 900 0
DWIDTH 15 0
BBX 13 12 2 0
BITMAP
A008
9010
9010
8820
8820
8820
8440
8440
8280
8280
8100
8100
ENDCHAR
STARTCHAR 2164
ENCODING 8548
SWIDTH 660 0
DWIDTH 11 0
BBX 11 12 0 0
BITMAP
8020
4040
4040
2080
2080
2080
1100
1100
0A00
0A00
0400
0400
ENDCHAR
STARTCHAR 2165
ENCODING 8549
SWIDTH 960 0
DWIDTH 16 0
BBX 14 12 0 0
BITMAP
8024
4044
4044
2084
2084
2084
1104
1104
0A04
0A04
0404
0404
ENDCHAR
STARTCHAR 2166
ENCODING 8550
SWIDTH 1260 0
DWIDTH 21 0
BBX 19 12 0 0
BITMAP
802420
404420
404420
208420
208420
208420
110420
110420
0A0420
0A0420
040420
040420
ENDCHAR
STARTCHAR 2167
ENCODING 8551
SWIDTH 1500 0
DWIDTH 25 0
BBX 23 12 0 0
BITMAP
802442
404442
404442
208442
208442
208442
110442
110442
0A0442
0A0442
040442
040442
ENDCHAR
STARTCHAR 2168
ENCODING 8552
SWIDTH 900 0
DWIDTH 15 0
BBX 12 12 2 0
BITMAP
A010
9020
8840
8840
8480
8300
8300
8480
8480
8840
9020
A010
ENDCHAR
STARTCHAR 2169
ENCODING 8553
SWIDTH 660 0
DWIDTH 11 0
BBX 10 12 0 0
BITMAP
8040
4080
2100
2100
1200
0C00
0C00
1200
1200
2100
4080
8040
ENDCHAR
STARTCHAR 216A
ENCODING 8554
SWIDTH 900 0
DWIDTH 15 0
BBX 13 12 0 0
BITMAP
8048
4088
2108
2108
1208
0C08
0C08
1208
1208
2108
4088
8048
ENDCHAR
STARTCHAR 216B
ENCODING 8555
SWIDTH 1200 0
DWIDTH 20 0
BBX 18 12 0 0
BITMAP
804840
408840
210840
210840
120840
0C0840
0C0840
120840
120840
210840
408840
804840
ENDCHAR
STARTCHAR 216C
ENCODING 8556
SWIDTH 540 0
DWIDTH 9 0
BBX 7 12 1 0
BITMAP
80
80
80
80
80
80
80
80
80
80
80
FE
ENDCHAR
STARTCHAR 216D
ENCODING 8557
SWIDTH 720 0
DWIDTH 12 0
BBX 9 12 1 0
BITMAP
1F00
6080
4000
8000
8000
8000
8000
8000
8000
4000
6080
1F00
ENDCHAR
STARTCHAR 216E
ENCODING 8558
SWIDTH 780 0
DWIDTH 13 0
BBX 10 12 1 0
BITMAP
FE00
8100
8080
8040
8040
8040
8040
8040
8040
8080
8100
FE00
ENDCHAR
STARTCHAR 216F
ENCODING 8559
SWIDTH 900 0
DWIDTH 15 0
BBX 11 12 2 0
BITMAP
8020
C060
C060
A0A0
A0A0
9120
9120
8A20
8A20
8420
8420
8020
ENDCHAR
STARTCHAR 2170
ENCODING 8560
SWIDTH 300 0
DWIDTH 5 0
BBX 1 12 2 0
BITMAP
80
80
00
80
80
80
80
80
80
80
80
80
ENDCHAR
STARTCHAR 2171
ENCODING 8561
SWIDTH 600 0
DWIDTH 10 0
BBX 6 12 2 0
BITMAP
84
84
00
84
84
84
84
84
84
84
84
84
ENDCHAR
STARTCHAR 2172
ENCODING 8562
SWIDTH 840 0
DWIDTH 14 0
BBX 9 12 2 0
BITMAP
8880
8880
0000
8880
8880
8880
8880
8880
8880
8880
8880
8880
ENDCHAR
STARTCHAR 2173
ENCODING 8563
SWIDTH 780 0
DWIDTH 13 0
BBX 11 12 2 0
BITMAP
8000
8000
0000
A020
9040
9040
8880
8880
8500
8500
8200
8200
ENDCHAR
STARTCHAR 2174
ENCODING 8564
SWIDTH 540 0
DWIDTH 9 0
BBX 9 9 0 0
BITMAP
8080
4100
4100
2200
2200
1400
1400
0800
0800
ENDCHAR
STARTCHAR 2175
ENCODING 8565
SWIDTH 780 0
DWIDTH 13 0
BBX 11 12 0 0
BITMAP
0020
0020
0000
80A0
4120
4120
2220
2220
1420
1420
0820
0820
ENDCHAR
STARTCHAR 2176
ENCODING 8566
SWIDTH 1080 0
DWIDTH 18 0
BBX 16 12 0 0
BITMAP
0021
0021
0000
80A1
4121
4121
2221
2221
1421
1421
0821
0821
ENDCHAR
STARTCHAR 2177
ENCODING 8567
SWIDTH 1320 0
DWIDTH 22 0
BBX 20 12 0 0
BITMAP
001110
001110
000000
809110
411110
411110
221110
221110
141110
141110
081110
081110
ENDCHAR
STARTCHAR 2178
ENCODING 8568
SWIDTH 840 0
DWIDTH 14 0
BBX 11 12 2 0
BITMAP
8000
8000
0000
9020
8840
8480
8300
8300
8300
8480
8840
9020
ENDCHAR
STARTCHAR 2179
ENCODING 8569
SWIDTH 600 0
DWIDTH 10 0
BBX 8 9 1 0
BITMAP
81
42
24
18
18
18
24
42
81
ENDCHAR
STARTCHAR 217A
ENCODING 8570
SWIDTH 840 0
DWIDTH 14 0
BBX 10 12 1 0
BITMAP
0040
0040
0000
8140
4240
2440
1840
1840
1840
2440
4240
8140
ENDCHAR
STARTCHAR 217B
ENCODING 8571
SWIDTH 1140 0
DWIDTH 19 0
BBX 16 12 1 0
BITMAP
0021
0021
0000
8121
4221
2421
1821
1821
1821
2421
4221
8121
ENDCHAR
STARTCHAR 217C
ENCODING 8572
SWIDTH 300 0
DWIDTH 5 0
BBX 1 12 2 0
BITMAP
80
80
80
80
80
80
80
80
80
80
80
80
ENDCHAR
STARTCHAR 217D
ENCODING 8573
SWIDTH 540 0
DWIDTH 9 0
BBX 7 9 1 0
BITMAP
3C
42
80
80
80
80
80
42
3C
ENDCHAR
STARTCHAR 217E
ENCODING 8574
SWIDTH 660 0
DWIDTH 11 0
BBX 8 12 1 0
BITMAP
01
01
01
3D
43
81
81
81
81
81
43
3D
ENDCHAR
STARTCHAR 217F
ENCODING 8575
SWIDTH 960 0
DWIDTH 16 0
BBX 11 9 2 0
BITMAP
B9C0
C620
8420
8420
8420
8420
8420
8420
8420
ENDCHAR
STARTCHAR 2180
ENCODING 8576
SWIDTH 1080 0
DWIDTH 18 0
BBX 15 12 1 0
BITMAP
1FF0
610C
4104
8102
8102
8102
8102
8102
8102
4104
610C
1FF0
ENDCHAR
STARTCHAR 2181
ENCODING 8577
SWIDTH 780 0
DWIDTH 13 0
BBX 10 12 1 0
BITMAP
FE00
8100
E080
9040
8840
8840
8840
8840
9040
E080
8100
FE00
ENDCHAR
STARTCHAR 2182
ENCODING 8578
SWIDTH 1080 0
DWIDTH 18 0
BBX 15 12 1 0
BITMAP
1FF0
610C
47C4
8922
9112
9112
9112
9112
8922
47C4
610C
1FF0
ENDCHAR
STARTCHAR 2190
ENCODING 8592
SWIDTH 960 0
DWIDTH 16 0
BBX 13 5 2 3
BITMAP
0800
3000
FFF8
3000
0800
ENDCHAR
STARTCHAR 2191
ENCODING 8593
SWIDTH 600 0
DWIDTH 10 0
BBX 5 13 2 0
BITMAP
20
20
70
70
A8
20
20
20
20
20
20
20
20
ENDCHAR
STARTCHAR 2192
ENCODING 8594
SWIDTH 960 0
DWIDTH 16 0
BBX 13 5 1 3
BITMAP
0080
0060
FFF8
0060
0080
ENDCHAR
STARTCHAR 2193
ENCODING 8595
SWIDTH 600 0
DWIDTH 10 0
BBX 5 13 2 -1
BITMAP
20
20
20
20
20
20
20
20
A8
70
70
20
20
ENDCHAR
STARTCHAR 2194
ENCODING 8596
SWIDTH 1200 0
DWIDTH 20 0
BBX 16 5 2 3
BITMAP
0810
300C
FFFF
300C
0810
ENDCHAR
STARTCHAR 2195
ENCODING 8597
SWIDTH 600 0
DWIDTH 10 0
BBX 5 16 2 -3
BITMAP
20
20
70
70
A8
20
20
20
20
20
20
A8
70
70
20
20
ENDCHAR
STARTCHAR 2196
ENCODING 8598
SWIDTH 780 0
DWIDTH 13 0
BBX 10 10 1 1
BITMAP
C000
FC00
6000
5000
4800
4400
0200
0100
0080
0040
ENDCHAR
STARTCHAR 2197
ENCODING 8599
SWIDTH 780 0
DWIDTH 13 0
BBX 10 10 2 1
BITMAP
00C0
0FC0
0180
0280
0480
0880
1000
2000
4000
8000
ENDCHAR
STARTCHAR 2198
ENCODING 8600
SWIDTH 780 0
DWIDTH 13 0
BBX 9 9 3 1
BITMAP
8000
4000
2000
1100
0900
0500
0700
1F80
0180
ENDCHAR
STARTCHAR 2199
ENCODING 8601
SWIDTH 780 0
DWIDTH 13 0
BBX 9 9 1 1
BITMAP
0080
0100
0200
4400
4800
5000
7000
FC00
C000
ENDCHAR
STARTCHAR 219A
ENCODING 8602
SWIDTH 960 0
DWIDTH 16 0
BBX 13 5 2 3
BITMAP
0840
3080
FFF8
3080
0900
ENDCHAR
STARTCHAR 219B
ENCODING 8603
SWIDTH 960 0
DWIDTH 16 0
BBX 13 5 1 3
BITMAP
0480
0860
FFF8
0860
1080
ENDCHAR
STARTCHAR 219C
ENCODING 8604
SWIDTH 840 0
DWIDTH 14 0
BBX 10 6 2 3
BITMAP
8000
E000
FB00
E480
A440
9800
ENDCHAR
STARTCHAR 219D
ENCODING 8605
SWIDTH 840 0
DWIDTH 14 0
BBX 10 6 2 3
BITMAP
0040
01C0
37C0
49C0
8940
0640
ENDCHAR
STARTCHAR 219E
ENCODING 8606
SWIDTH 960 0
DWIDTH 16 0
BBX 13 5 2 3
BITMAP
0900
3600
FFF8
3600
0900
ENDCHAR
STARTCHAR 219F
ENCODING 8607
SWIDTH 600 0
DWIDTH 10 0
BBX 5 13 2 0
BITMAP
20
20
70
70
A8
20
70
70
A8
20
20
20
20
ENDCHAR
STARTCHAR 21A0
ENCODING 8608
SWIDTH 960 0
DWIDTH 16 0
BBX 13 5 1 3
BITMAP
0480
0360
FFF8
0360
0480
ENDCHAR
STARTCHAR 21A1
ENCODING 8609
SWIDTH 600 0
DWIDTH 10 0
BBX 5 13 2 -1
BITMAP
20
20
20
20
A8
70
70
20
A8
70
70
20
20
ENDCHAR
STARTCHAR 21A2
ENCODING 8610
SWIDTH 960 0
DWIDTH 16 0
BBX 12 5 2 3
BITMAP
0830
3040
FF80
3040
0830
ENDCHAR
STARTCHAR 21A3
ENCODING 8611
SWIDTH 960 0
DWIDTH 16 0
BBX 12 5 2 3
BITMAP
C100
20C0
1FF0
20C0
C100
ENDCHAR
STARTCHAR 21A4
ENCODING 8612
SWIDTH 960 0
DWIDTH 16 0
BBX 13 5 2 3
BITMAP
0808
3008
FFF8
3008
0808
ENDCHAR
STARTCHAR 21A5
ENCODING 8613
SWIDTH 600 0
DWIDTH 10 0
BBX 5 13 2 0
BITMAP
20
20
70
70
A8
20
20
20
20
20
20
20
F8
ENDCHAR
ENDFONT
